SplineFontDB: 3.2
FontName: Samaano-Bold-Slanted
FullName: Samaano Bold Slanted
FamilyName: Samaano
Weight: Bold
Copyright: Copyright 2025 The Samaano Project Authors (https://github.com/mitradranirban/samaano-fonts)
UComments: "2024-8-27: Created with FontForge (http://fontforge.org)"
Version: 2.500
ItalicAngle: -20
UnderlinePosition: 0
UnderlineWidth: 102
Ascent: 1638
Descent: 410
InvalidEm: 0
UFOAscent: 1638
UFODescent: -410
LayerCount: 2
Layer: 0 0 "Back" 1
Layer: 1 0 "public.default" 0 "glyphs"
StyleMap: 0x0021
FSType: 256
OS2Version: 0
OS2_WeightWidthSlopeOnly: 0
OS2_UseTypoMetrics: 0
CreationTime: 1758187873
ModificationTime: 1758187873
PfmFamily: 16
TTFWeight: 700
TTFWidth: 5
LineGap: 0
VLineGap: 0
Panose: 2 7 8 9 2 2 5 2 4 4
OS2TypoAscent: 2457
OS2TypoAOffset: 0
OS2TypoDescent: -615
OS2TypoDOffset: 0
OS2TypoLinegap: 0
OS2WinAscent: 3225
OS2WinAOffset: 0
OS2WinDescent: 1040
OS2WinDOffset: 0
HheadAscent: 2457
HheadAOffset: 0
HheadDescent: -615
HheadDOffset: 0
OS2CapHeight: 1548
OS2XHeight: 1023
OS2FamilyClass: 1031
OS2Vendor: 'anir'
Lookup: 1 0 0 "loclLocalizedFormsinLatinlookup10" { "loclLocalizedFormsinLatinlookup10 subtable"  } ['locl' ('latn' <'MOL ' 'ROM ' > ) ]
Lookup: 6 0 0 "loclLocalizedFormsinLatinlookup11" { "loclLocalizedFormsinLatinlookup11 contextual 0"  "loclLocalizedFormsinLatinlookup11 contextual 1"  } ['locl' ('latn' <'CAT ' > ) ]
Lookup: 4 0 0 "Ligature Substitution lookup 2" { "Ligature Substitution lookup 2 subtable"  } []
Lookup: 4 0 0 "Ligature Substitution lookup 3" { "Ligature Substitution lookup 3 subtable"  } []
Lookup: 6 16 0 "ccmp_soft_dotted" { "ccmp_soft_dotted subtable"  } ['ccmp' ('latn' <'dflt' > 'DFLT' <'dflt' > ) ]
Lookup: 1 16 0 "Single Substitution lookup 5" { "Single Substitution lookup 5 subtable"  } []
Lookup: 4 0 0 "dligDiscretionaryLigatureslookup0" { "dligDiscretionaryLigatureslookup0 subtable"  } ['dlig' ('latn' <'dflt' > 'DFLT' <'dflt' > ) ]

StartChar: uni0000
Encoding: 0 0 0
GlifName: _notdef
Width: 1024
VWidth: 0
Flags: W
LayerCount: 2
Fore
SplineSet
-285 -26 m 257
 713 -26 l 257
 1309 1614 l 257
 311 1614 l 257
 -285 -26 l 257
-182 54 m 257
 357 1537 l 257
 488 817 l 257
 -182 54 l 257
-90 54 m 257
 498 740 l 257
 590 54 l 257
 -90 54 l 257
481 1548 m 257
 1112 1548 l 257
 558 899 l 257
 481 1548 l 257
568 822 m 257
 1208 1548 l 257
 665 54 l 257
 568 822 l 257
EndSplineSet
EndChar

StartChar: A
Encoding: 65 65 1
GlifName: A_
Width: 1024
VWidth: 0
GlyphClass: 2
Flags: W
AnchorPoint: "top" 1204.43 1641 basechar 0
AnchorPoint: "base" 525.426 -24 basechar 0
LayerCount: 2
Fore
SplineSet
113.713 0 m 257
 312.713 0 l 257
 875.713 1548 l 257
 676.713 1548 l 257
 113.713 0 l 257
659.713 1332 m 257
 1320.71 1332 l 257
 1398.71 1548 l 257
 737.713 1548 l 257
 659.713 1332 l 257
564.713 1023 m 257
 501.713 849 l 257
 1132.71 849 l 257
 1195.71 1023 l 257
 564.713 1023 l 257
710.713 0 m 257
 910.713 0 l 257
 1473.71 1548 l 257
 1273.71 1548 l 257
 710.713 0 l 257
EndSplineSet
EndChar

StartChar: AE
Encoding: 198 198 3
GlifName: A_E_
Width: 1024
VWidth: 0
GlyphClass: 2
Flags: W
AnchorPoint: "top" 1178 1805 basechar 0
AnchorPoint: "base" 528 -10 basechar 0
LayerCount: 2
Fore
SplineSet
713 185 m 257
 646 0 l 257
 996 0 l 257
 1063 185 l 257
 713 185 l 257
125 0 m 257
 324 0 l 257
 887 1548 l 257
 688 1548 l 257
 125 0 l 257
671 1332 m 257
 1459 1332 l 257
 1537 1548 l 257
 749 1548 l 257
 671 1332 l 257
576 1023 m 257
 513 849 l 257
 1231 849 l 257
 1294 1023 l 257
 576 1023 l 257
551 0 m 257
 751 0 l 257
 1314 1548 l 257
 1114 1548 l 257
 551 0 l 257
EndSplineSet
EndChar

StartChar: uni2C6D
Encoding: 11373 11373 12
GlifName: A_lpha_latin
Width: 1024
VWidth: 0
GlyphClass: 2
Flags: W
AnchorPoint: "top" 890 1524 basechar 0
AnchorPoint: "base" 490.171 -69 basechar 0
LayerCount: 2
Fore
SplineSet
476 1452 m 257
 103.171 0 l 257
 303.171 0 l 257
 676 1452 l 257
 476 1452 l 257
1091 1545 m 257
 718 -127 l 257
 920 -127 l 257
 1293 1545 l 257
 1091 1545 l 257
599 1452 m 257
 526 1251 l 257
 1112 1251 l 257
 1185 1452 l 257
 599 1452 l 257
303.171 200 m 257
 230.171 0 l 257
 802.171 0 l 257
 875.171 200 l 257
 303.171 200 l 257
EndSplineSet
EndChar

StartChar: B
Encoding: 66 66 22
GlifName: B_
Width: 1024
VWidth: 0
GlyphClass: 2
Flags: W
AnchorPoint: "top" 1110.12 1657 basechar 0
AnchorPoint: "base" 692.117 -67 basechar 0
LayerCount: 2
Fore
SplineSet
93.0586 0 m 257
 301.059 0 l 257
 860.059 1537 l 257
 652.059 1537 l 257
 93.0586 0 l 257
901.059 1331 m 257
 1290.06 989 l 257
 1372.06 1215 l 257
 976.059 1537 l 257
 901.059 1331 l 257
714.059 820 m 257
 1292.06 991 l 257
 1373.06 1215 l 257
 788.059 1023 l 257
 714.059 820 l 257
431.059 201 m 257
 358.059 0 l 257
 1044.06 364 l 257
 1126.06 588 l 257
 431.059 201 l 257
631.059 567 m 257
 1044.06 364 l 257
 1125.06 586 l 257
 704.059 766 l 257
 631.059 567 l 257
626.059 1023 m 257
 552.059 820 l 257
 714.059 820 l 257
 788.059 1023 l 257
 626.059 1023 l 257
532.059 766 m 257
 459.059 567 l 257
 631.059 567 l 257
 704.059 766 l 257
 532.059 766 l 257
264.059 200 m 257
 191.059 0 l 257
 358.059 0 l 257
 431.059 200 l 257
 264.059 200 l 257
812.059 1537 m 257
 737.059 1331 l 257
 900.059 1331 l 257
 975.059 1537 l 257
 812.059 1537 l 257
EndSplineSet
EndChar

StartChar: uni0411
Encoding: 1041 1041 24
GlifName: B_e-cy
Width: 1024
VWidth: 0
Flags: W
AnchorPoint: "base" 502.201 -60 basechar 0
AnchorPoint: "top" 820.201 1639 basechar 0
LayerCount: 2
Fore
SplineSet
606 1537 m 257
 47 0 l 257
 246 0 l 257
 805 1537 l 257
 606 1537 l 257
520 808 m 257
 448 609 l 257
 1096 609 l 257
 1168 808 l 257
 520 808 l 257
1108 808 m 257
 732 0 l 257
 931 0 l 257
 1307 808 l 257
 1108 808 l 257
247 207 m 257
 172 0 l 257
 852 0 l 257
 927 207 l 257
 247 207 l 257
761 1537 m 257
 689 1338 l 257
 1337 1338 l 257
 1409 1537 l 257
 761 1537 l 257
EndSplineSet
EndChar

StartChar: uniA7B4
Encoding: 42932 42932 26
GlifName: B_eta_latin
Width: 1024
VWidth: 0
GlyphClass: 2
Flags: W
AnchorPoint: "top" 1110.12 1657 basechar 0
AnchorPoint: "base" 692.117 -67 basechar 0
LayerCount: 2
Fore
SplineSet
-135 -412 m 257
 73 -412 l 257
 860.059 1537 l 257
 652.059 1537 l 257
 -135 -412 l 257
901.059 1331 m 257
 1290.06 989 l 257
 1372.06 1215 l 257
 976.059 1537 l 257
 901.059 1331 l 257
714.059 820 m 257
 1292.06 991 l 257
 1373.06 1215 l 257
 788.059 1023 l 257
 714.059 820 l 257
431.059 201 m 257
 358.059 0 l 257
 1044.06 364 l 257
 1126.06 588 l 257
 431.059 201 l 257
631.059 567 m 257
 1044.06 364 l 257
 1125.06 586 l 257
 704.059 766 l 257
 631.059 567 l 257
626.059 1023 m 257
 552.059 820 l 257
 714.059 820 l 257
 788.059 1023 l 257
 626.059 1023 l 257
532.059 766 m 257
 459.059 567 l 257
 631.059 567 l 257
 704.059 766 l 257
 532.059 766 l 257
264.059 200 m 257
 191.059 0 l 257
 358.059 0 l 257
 431.059 200 l 257
 264.059 200 l 257
812.059 1537 m 257
 737.059 1331 l 257
 900.059 1331 l 257
 975.059 1537 l 257
 812.059 1537 l 257
EndSplineSet
EndChar

StartChar: uni0182
Encoding: 386 386 30
GlifName: B_topbar
Width: 1024
VWidth: 0
GlyphClass: 2
Flags: W
AnchorPoint: "top" 1110.12 1657 basechar 0
AnchorPoint: "base" 692.117 -67 basechar 0
LayerCount: 2
Fore
SplineSet
93.0586 0 m 257
 301.059 0 l 257
 860.059 1537 l 257
 652.059 1537 l 257
 93.0586 0 l 257
431.059 201 m 257
 358.059 0 l 257
 1044.06 364 l 257
 1126.06 588 l 257
 431.059 201 l 257
631.059 567 m 257
 1044.06 364 l 257
 1125.06 586 l 257
 704.059 766 l 257
 631.059 567 l 257
532.059 766 m 257
 459.059 567 l 257
 631.059 567 l 257
 704.059 766 l 257
 532.059 766 l 257
264.059 200 m 257
 191.059 0 l 257
 358.059 0 l 257
 431.059 200 l 257
 264.059 200 l 257
812.059 1537 m 257
 737.059 1331 l 257
 1378 1331 l 257
 1453 1537 l 257
 812.059 1537 l 257
EndSplineSet
EndChar

StartChar: C
Encoding: 67 67 31
GlifName: C_
Width: 1024
VWidth: 0
GlyphClass: 2
Flags: W
AnchorPoint: "top" 1029.42 1637 basechar 0
AnchorPoint: "base" 1077.42 -47 basechar 0
LayerCount: 2
Fore
SplineSet
630.711 1537 m 257
 70.7109 0 l 257
 270.711 0 l 257
 830.711 1537 l 257
 630.711 1537 l 257
729.711 1537 m 257
 656.711 1338 l 257
 1439.71 1338 l 257
 1512.71 1537 l 257
 729.711 1537 l 257
228.711 199 m 257
 155.711 0 l 257
 950.711 0 l 257
 1023.71 199 l 257
 228.711 199 l 257
EndSplineSet
EndChar

StartChar: uni0427
Encoding: 1063 1063 37
GlifName: C_he-cy
Width: 1024
VWidth: 0
Flags: W
LayerCount: 2
Fore
SplineSet
1252 1554 m 257
 686 -1 l 257
 886 -1 l 257
 1452 1554 l 257
 1252 1554 l 257
656 1554 m 257
 302 582 l 257
 502 582 l 257
 856 1554 l 257
 656 1554 l 257
555 782 m 257
 502 581 l 257
 1046 698 l 257
 1100 899 l 257
 555 782 l 257
EndSplineSet
EndChar

StartChar: D
Encoding: 68 68 40
GlifName: D_
Width: 1024
VWidth: 0
GlyphClass: 2
Flags: W
AnchorPoint: "base" 310.171 -108 basechar 0
AnchorPoint: "top" 871.171 1660 basechar 0
LayerCount: 2
Fore
SplineSet
671.171 1548 m 257
 107.171 0 l 257
 309.171 0 l 257
 873.171 1548 l 257
 671.171 1548 l 257
997.171 1548 m 257
 925.171 1350 l 257
 1195.17 767 l 257
 1289.17 1023 l 257
 997.171 1548 l 257
514.171 201 m 257
 441.171 0 l 257
 1193.17 769 l 257
 1286.17 1023 l 257
 514.171 201 l 257
835.171 1548 m 257
 762.171 1349 l 257
 924.171 1349 l 257
 997.171 1548 l 257
 835.171 1548 l 257
352.171 200 m 257
 279.171 0 l 257
 441.171 0 l 257
 514.171 200 l 257
 352.171 200 l 257
EndSplineSet
EndChar

StartChar: Dcroat
Encoding: 272 272 44
GlifName: D_croat
Width: 1024
VWidth: 0
GlyphClass: 2
Flags: W
AnchorPoint: "top" 922 1631 basechar 0
AnchorPoint: "base" 248 -124 basechar 0
LayerCount: 2
Fore
SplineSet
340 935 m 257
 266 730 l 257
 742 730 l 257
 816 935 l 257
 340 935 l 257
670 1548 m 257
 107 0 l 257
 309 0 l 257
 872 1548 l 257
 670 1548 l 257
996 1548 m 257
 924 1350 l 257
 1195 767 l 257
 1288 1023 l 257
 996 1548 l 257
514 201 m 257
 441 0 l 257
 1193 769 l 257
 1285 1023 l 257
 514 201 l 257
834 1548 m 257
 762 1349 l 257
 924 1349 l 257
 996 1548 l 257
 834 1548 l 257
352 200 m 257
 279 0 l 257
 441 0 l 257
 514 200 l 257
 352 200 l 257
EndSplineSet
EndChar

StartChar: uni0414
Encoding: 1044 1044 45
GlifName: D_e-cy
Width: 1024
VWidth: 0
Flags: W
LayerCount: 2
Fore
SplineSet
92 203 m 257
 19 3 l 257
 993 3 l 257
 1066 203 l 257
 92 203 l 257
76 159 m 257
 -127 -405 l 257
 73 -405 l 257
 276 159 l 257
 76 159 l 257
850 159 m 257
 642 -412 l 257
 842 -412 l 257
 1050 159 l 257
 850 159 l 257
1227 1436 m 257
 752 132 l 257
 952 132 l 257
 1427 1436 l 257
 1227 1436 l 257
988 1538 m 257
 915 1338 l 257
 1391 1338 l 257
 1464 1538 l 257
 988 1538 l 257
968 1539 m 257
 174 185 l 257
 374 185 l 257
 1168 1539 l 257
 968 1539 l 257
EndSplineSet
EndChar

StartChar: uni0402
Encoding: 1026 1026 47
GlifName: D_je-cy
Width: 1024
VWidth: 0
Flags: W
LayerCount: 2
Fore
SplineSet
586 1548 m 257
 513 1348 l 257
 1301 1348 l 257
 1374 1548 l 257
 586 1548 l 257
769 1544 m 257
 207 -1 l 257
 407 -1 l 257
 969 1544 l 257
 769 1544 l 257
652 994 m 257
 579 794 l 257
 1192 794 l 257
 1265 994 l 257
 652 994 l 257
1063 989 m 257
 717 37 l 257
 917 37 l 257
 1263 989 l 257
 1063 989 l 257
653 200 m 257
 580 0 l 257
 903 0 l 257
 976 200 l 257
 653 200 l 257
EndSplineSet
EndChar

StartChar: uni040F
Encoding: 1039 1039 51
GlifName: D_zhe-cy
Width: 1024
VWidth: 0
Flags: W
LayerCount: 2
Fore
SplineSet
589 1466 m 257
 62 18 l 257
 262 18 l 257
 789 1466 l 257
 589 1466 l 257
1290 1470 m 257
 756 3 l 257
 956 3 l 257
 1490 1470 l 257
 1290 1470 l 257
128 200 m 257
 55 0 l 257
 955 0 l 257
 1028 200 l 257
 128 200 l 257
434 79 m 257
 258 -405 l 257
 458 -405 l 257
 634 79 l 257
 434 79 l 257
EndSplineSet
EndChar

StartChar: E
Encoding: 69 69 52
GlifName: E_
Width: 1024
VWidth: 0
GlyphClass: 2
Flags: W
AnchorPoint: "top" 1093.65 1645 basechar 0
AnchorPoint: "base" 565.654 -84 basechar 0
LayerCount: 2
Fore
SplineSet
664.654 1537 m 257
 105.654 0 l 257
 305.654 0 l 257
 864.654 1537 l 257
 664.654 1537 l 257
742.654 1537 m 257
 668.654 1333 l 257
 1387.65 1333 l 257
 1461.65 1537 l 257
 742.654 1537 l 257
246.654 203 m 257
 172.654 0 l 257
 918.654 0 l 257
 992.654 203 l 257
 246.654 203 l 257
495.654 888 m 257
 422.654 688 l 257
 921.654 688 l 257
 994.654 888 l 257
 495.654 888 l 257
EndSplineSet
EndChar

StartChar: uni0404
Encoding: 1028 1028 53
GlifName: E_-cy
Width: 1024
VWidth: 0
Flags: W
LayerCount: 2
Fore
SplineSet
1008 1542 m 257
 935 1342 l 257
 1426 1342 l 257
 1499 1542 l 257
 1008 1542 l 257
534 898 m 257
 461 698 l 257
 1126 698 l 257
 1199 898 l 257
 534 898 l 257
492 201 m 257
 419 1 l 257
 933 1 l 257
 1006 201 l 257
 492 201 l 257
1008 1541 m 257
 333 806 l 257
 533 806 l 257
 1208 1541 l 257
 1008 1541 l 257
335 806 m 257
 419 0 l 257
 619 0 l 257
 535 806 l 257
 335 806 l 257
EndSplineSet
EndChar

StartChar: uni041B
Encoding: 1051 1051 63
GlifName: E_l-cy
Width: 1024
VWidth: 0
Flags: W
LayerCount: 2
Fore
SplineSet
1375 1548 m 257
 812 1 l 257
 1012 1 l 257
 1575 1548 l 257
 1375 1548 l 257
969 1548 m 257
 897 1348 l 257
 1491 1348 l 257
 1563 1548 l 257
 969 1548 l 257
959 1548 m 257
 214 0 l 257
 414 0 l 257
 1159 1548 l 257
 959 1548 l 257
106 201 m 257
 33 1 l 257
 414 1 l 257
 487 201 l 257
 106 201 l 257
EndSplineSet
EndChar

StartChar: Eng
Encoding: 330 330 65
GlifName: E_ng
Width: 1024
VWidth: 0
GlyphClass: 2
Flags: W
AnchorPoint: "top" 498 1627 basechar 0
AnchorPoint: "base" 524 -511 basechar 0
LayerCount: 2
Fore
SplineSet
524 -211 m 257
 524 -406 l 257
 911 -406 l 257
 911 -211 l 257
 524 -211 l 257
112 1490 m 257
 112 0 l 257
 313 0 l 257
 313 1490 l 257
 112 1490 l 257
711 1476 m 257
 711 -406 l 257
 912 -406 l 257
 912 1476 l 257
 711 1476 l 257
112 1548 m 257
 112 1353 l 257
 911 1353 l 257
 911 1548 l 257
 112 1548 l 257
EndSplineSet
EndChar

StartChar: uni0190
Encoding: 400 400 67
GlifName: E_open
Width: 1024
VWidth: 0
GlyphClass: 2
Flags: W
AnchorPoint: "base" 504 -125 basechar 0
AnchorPoint: "top" 938 1613 basechar 0
LayerCount: 2
Fore
SplineSet
518 1542 m 257
 525 930 l 257
 725 929 l 257
 718 1541 l 257
 518 1542 l 257
596 1541 m 257
 541 1337 l 257
 1260 1337 l 257
 1315 1541 l 257
 596 1541 l 257
175 199 m 257
 170 0 l 257
 916 0 l 257
 921 199 l 257
 175 199 l 257
705 931 m 257
 632 731 l 257
 840 731 l 257
 913 931 l 257
 705 931 l 257
461 734 m 257
 97 2 l 257
 296 1 l 257
 661 733 l 257
 461 734 l 257
EndSplineSet
EndChar

StartChar: uni042D
Encoding: 1069 1069 71
GlifName: E_reversed-cy
Width: 1024
VWidth: 0
Flags: W
LayerCount: 2
Fore
SplineSet
1068 1542 m 257
 577 1542 l 257
 504 1342 l 257
 995 1342 l 257
 1068 1542 l 257
1073 898 m 257
 408 898 l 257
 335 698 l 257
 1000 698 l 257
 1073 898 l 257
608 201 m 257
 94 201 l 257
 21 1 l 257
 535 1 l 257
 608 201 l 257
1067 1541 m 257
 867 1541 l 257
 1007 806 l 257
 1207 806 l 257
 1067 1541 l 257
1205 806 m 257
 1005 806 l 257
 334 0 l 257
 534 0 l 257
 1205 806 l 257
EndSplineSet
EndChar

StartChar: uni01A9
Encoding: 425 425 72
GlifName: E_sh
Width: 1024
VWidth: 0
GlyphClass: 2
Flags: W
LayerCount: 2
Fore
SplineSet
1041.76 928 m 257
 186.434 210 l 257
 104.904 -14 l 257
 967.879 725 l 257
 1041.76 928 l 257
1041.22 921 m 257
 688.15 1539 l 257
 615.992 1338 l 257
 968.786 722 l 257
 1041.22 921 l 257
1336.63 1337 m 257
 1409.42 1537 l 257
 687.422 1537 l 257
 614.628 1337 l 257
 1336.63 1337 l 257
788 0 m 257
 862.978 206 l 257
 199.978 206 l 257
 125 0 l 257
 788 0 l 257
EndSplineSet
EndChar

StartChar: Eth
Encoding: 208 208 76
GlifName: E_th
Width: 1024
VWidth: 0
GlyphClass: 2
Flags: W
AnchorPoint: "top" 958 1645 basechar 0
AnchorPoint: "base" 292 -132 basechar 0
LayerCount: 2
Fore
SplineSet
340 935 m 257
 266 730 l 257
 742 730 l 257
 816 935 l 257
 340 935 l 257
670 1548 m 257
 107 0 l 257
 309 0 l 257
 872 1548 l 257
 670 1548 l 257
996 1548 m 257
 924 1350 l 257
 1195 767 l 257
 1288 1023 l 257
 996 1548 l 257
514 201 m 257
 441 0 l 257
 1193 769 l 257
 1285 1023 l 257
 514 201 l 257
834 1548 m 257
 762 1349 l 257
 924 1349 l 257
 996 1548 l 257
 834 1548 l 257
352 200 m 257
 279 0 l 257
 441 0 l 257
 514 200 l 257
 352 200 l 257
EndSplineSet
EndChar

StartChar: Euro
Encoding: 8364 8364 78
GlifName: E_uro
Width: 1024
VWidth: 0
GlyphClass: 2
Flags: W
LayerCount: 2
Fore
SplineSet
303 520 m 257
 249 372 l 257
 1045 372 l 257
 1099 520 l 257
 303 520 l 257
466 935 m 257
 413 788 l 257
 1193 788 l 257
 1246 935 l 257
 466 935 l 257
754 1023 m 257
 447 179 l 257
 637 179 l 257
 944 1023 l 257
 754 1023 l 257
1294 1633 m 257
 753 1023 l 257
 944 1023 l 257
 1403 1601 l 257
 1294 1633 l 257
447 179 m 257
 578 -406 l 257
 730 -406 l 257
 637 179 l 257
 447 179 l 257
EndSplineSet
EndChar

StartChar: uni01B7
Encoding: 439 439 79
GlifName: E_zh
Width: 1024
VWidth: 0
GlyphClass: 2
Flags: W
LayerCount: 2
Fore
SplineSet
860 0 m 257
 932 197 l 257
 236 197 l 257
 164 0 l 257
 860 0 l 257
872 39 m 257
 1186 889 l 257
 984 889 l 257
 670 39 l 257
 872 39 l 257
1006 688 m 257
 1080 889 l 257
 498 889 l 257
 424 688 l 257
 1006 688 l 257
683 1544 m 257
 611 1347 l 257
 1439 1347 l 257
 1511 1544 l 257
 683 1544 l 257
1147 1347 m 257
 493 889 l 257
 799 889 l 257
 1439 1347 l 257
 1147 1347 l 257
EndSplineSet
EndChar

StartChar: uni01B8
Encoding: 440 440 81
GlifName: E_zhreversed
Width: 1024
VWidth: 0
GlyphClass: 2
Flags: W
LayerCount: 2
Fore
SplineSet
210 0 m 257
 906 0 l 257
 906 197 l 257
 210 197 l 257
 210 0 l 257
212 39 m 257
 414 39 l 257
 662 889 l 257
 460 889 l 257
 212 39 l 257
493 688 m 257
 1075 688 l 257
 1148 889 l 257
 566 889 l 257
 493 688 l 257
1439 1544 m 257
 611 1544 l 257
 540 1347 l 257
 1368 1347 l 257
 1439 1544 l 257
832 1347 m 257
 540 1347 l 257
 847 889 l 257
 1153 889 l 257
 832 1347 l 257
EndSplineSet
EndChar

StartChar: F
Encoding: 70 70 82
GlifName: F_
Width: 1024
VWidth: 0
GlyphClass: 2
Flags: W
AnchorPoint: "top" 1096.63 1648 basechar 0
AnchorPoint: "base" 547.634 -71 basechar 0
LayerCount: 2
Fore
SplineSet
707.634 1548 m 257
 143.634 0 l 257
 343.634 0 l 257
 907.634 1548 l 257
 707.634 1548 l 257
809.634 1548 m 257
 736.634 1347 l 257
 1370.63 1347 l 257
 1443.63 1548 l 257
 809.634 1548 l 257
552.634 875 m 257
 478.634 672 l 257
 1027.63 672 l 257
 1101.63 875 l 257
 552.634 875 l 257
EndSplineSet
EndChar

StartChar: G
Encoding: 71 71 85
GlifName: G_
Width: 1024
VWidth: 0
GlyphClass: 2
Flags: W
AnchorPoint: "top" 1089.76 1637 basechar 0
AnchorPoint: "base" 531.762 -58 basechar 0
LayerCount: 2
Fore
SplineSet
678.762 1548 m 257
 114.762 0 l 257
 316.762 0 l 257
 880.762 1548 l 257
 678.762 1548 l 257
736.762 1548 m 257
 663.762 1347 l 257
 1363.76 1347 l 257
 1436.76 1548 l 257
 736.762 1548 l 257
219.762 202 m 257
 145.762 0 l 257
 908.762 0 l 257
 982.762 202 l 257
 219.762 202 l 257
913.762 561 m 257
 716.762 18 l 257
 915.762 18 l 257
 1112.76 561 l 257
 913.762 561 l 257
EndSplineSet
EndChar

StartChar: Gamma
Encoding: 915 915 86
GlifName: G_amma
Width: 1024
VWidth: 0
GlyphClass: 2
Flags: W
LayerCount: 2
Fore
SplineSet
688.426 1548 m 257
 615.632 1348 l 257
 1389.63 1348 l 257
 1462.43 1548 l 257
 688.426 1548 l 257
651.661 1436 m 257
 131.184 6 l 257
 331.184 6 l 257
 851.661 1436 l 257
 651.661 1436 l 257
EndSplineSet
EndChar

StartChar: uni0194
Encoding: 404 404 87
GlifName: G_amma_latin
Width: 1024
VWidth: 0
GlyphClass: 2
Flags: W
LayerCount: 2
Fore
SplineSet
740 1543 m 257
 630 -158 l 257
 830 -158 l 257
 940 1543 l 257
 740 1543 l 257
1400 1543 m 257
 292 -158 l 257
 491 -158 l 257
 1600 1543 l 257
 1400 1543 l 257
219 -360 m 257
 757 -361 l 257
 831 -158 l 257
 293 -158 l 257
 219 -360 l 257
EndSplineSet
EndChar

StartChar: uni0490
Encoding: 1168 1168 92
GlifName: G_eupturn-cy
Width: 1024
VWidth: 0
Flags: W
LayerCount: 2
Fore
SplineSet
688.426 1548 m 257
 615.632 1348 l 257
 1389.63 1348 l 257
 1462.43 1548 l 257
 688.426 1548 l 257
651.661 1436 m 257
 131.184 6 l 257
 331.184 6 l 257
 851.661 1436 l 257
 651.661 1436 l 257
1478 1758.82696863 m 257
 1188 1352.68000156 l 257
 1390 1352.68000156 l 257
 1680 1758.82696863 l 257
 1478 1758.82696863 l 257
EndSplineSet
EndChar

StartChar: H
Encoding: 72 72 96
GlifName: H_
Width: 1024
VWidth: 0
GlyphClass: 2
Flags: W
AnchorPoint: "top" 1099.71 1642 basechar 0
AnchorPoint: "base" 487.711 -46 basechar 0
LayerCount: 2
Fore
SplineSet
673.711 1537 m 257
 113.711 0 l 257
 313.711 0 l 257
 873.711 1537 l 257
 673.711 1537 l 257
1259.71 1537 m 257
 699.711 0 l 257
 909.711 0 l 257
 1469.71 1537 l 257
 1259.71 1537 l 257
606.711 1023 m 257
 531.711 818 l 257
 1077.71 818 l 257
 1152.71 1023 l 257
 606.711 1023 l 257
EndSplineSet
EndChar

StartChar: uni042A
Encoding: 1066 1066 97
GlifName: H_ardsign-cy
Width: 1024
VWidth: 0
Flags: W
AnchorPoint: "base" 502.201 -60 basechar 0
AnchorPoint: "top" 820.201 1639 basechar 0
LayerCount: 2
Fore
SplineSet
793 1537 m 257
 208 0 l 257
 380 0 l 257
 992 1537 l 257
 793 1537 l 257
573 808 m 257
 448 609 l 257
 1096 609 l 257
 1168 808 l 257
 573 808 l 257
1108 808 m 257
 732 0 l 257
 931 0 l 257
 1307 808 l 257
 1108 808 l 257
300 207 m 257
 225 0 l 257
 852 0 l 257
 927 207 l 257
 300 207 l 257
581 1541 m 257
 521 1342 l 257
 840 1342 l 257
 886 1541 l 257
 581 1541 l 257
EndSplineSet
EndChar

StartChar: Hbar
Encoding: 294 294 98
GlifName: H_bar
Width: 1024
VWidth: 0
GlyphClass: 2
Flags: W
LayerCount: 2
Fore
SplineSet
648 1537 m 257
 89 0 l 257
 289 0 l 257
 848 1537 l 257
 648 1537 l 257
1234 1537 m 257
 675 0 l 257
 885 0 l 257
 1444 1537 l 257
 1234 1537 l 257
581 1023 m 257
 507 818 l 257
 1053 818 l 257
 1127 1023 l 257
 581 1023 l 257
550 1434 m 257
 474 1226 l 257
 1399 1226 l 257
 1475 1434 l 257
 550 1434 l 257
EndSplineSet
EndChar

StartChar: uniA78D
Encoding: 42893 42893 103
GlifName: H_turned
Width: 1024
VWidth: 0
GlyphClass: 2
Flags: W
AnchorPoint: "top" 872.211 1636 basechar 0
AnchorPoint: "base" 821 -44 basechar 0
LayerCount: 2
Fore
SplineSet
665 0 m 257
 1222 1531 l 257
 1022 1531 l 257
 465 0 l 257
 665 0 l 257
715 514 m 257
 787 711 l 257
 256 711 l 257
 184 514 l 257
 715 514 l 257
375 514 m 257
 747 1537 l 257
 548 1537 l 257
 176 514 l 257
 375 514 l 257
EndSplineSet
EndChar

StartChar: I
Encoding: 73 73 104
GlifName: I_
Width: 1024
VWidth: 0
GlyphClass: 2
Flags: W
AnchorPoint: "top" 1053.22 1645 basechar 0
AnchorPoint: "base" 499.217 -50 basechar 0
LayerCount: 2
Fore
SplineSet
713.217 1537 m 257
 640.217 1335 l 257
 1341.22 1335 l 257
 1414.22 1537 l 257
 713.217 1537 l 257
921.217 1468 m 257
 417.217 84 l 257
 617.217 84 l 257
 1121.22 1468 l 257
 921.217 1468 l 257
208.217 204 m 257
 136.217 6 l 257
 892.217 6 l 257
 964.217 204 l 257
 208.217 204 l 257
EndSplineSet
EndChar

StartChar: uniA7AE
Encoding: 42926 42926 108
GlifName: I_capitalsmall
Width: 1024
VWidth: 0
GlyphClass: 2
Flags: W
AnchorPoint: "top" 1069 1631 basechar 0
AnchorPoint: "base" 504 -66 basechar 0
LayerCount: 2
Fore
SplineSet
703 1537 m 257
 630 1335 l 257
 1331 1335 l 257
 1404 1537 l 257
 703 1537 l 257
911 1468 m 257
 408 84 l 257
 608 84 l 257
 1111 1468 l 257
 911 1468 l 257
198 204 m 257
 121 0 l 257
 877 0 l 257
 954 204 l 257
 198 204 l 257
248 0 m 257
 388 373 l 257
 188 373 l 257
 52 0 l 257
 248 0 l 257
960 0 m 257
 1100 373 l 257
 900 373 l 257
 764 0 l 257
 960 0 l 257
675 1165 m 257
 815 1538 l 257
 615 1538 l 257
 479 1165 l 257
 675 1165 l 257
1387 1164 m 257
 1526 1537 l 257
 1326 1537 l 257
 1191 1164 l 257
 1387 1164 l 257
EndSplineSet
EndChar

StartChar: uni0418
Encoding: 1048 1048 114
GlifName: I_i-cy
Width: 1024
VWidth: 0
Flags: W
LayerCount: 2
Fore
SplineSet
599 1552 m 257
 34 0 l 257
 234 0 l 257
 799 1552 l 257
 599 1552 l 257
1354 1552 m 257
 789 0 l 257
 989 0 l 257
 1554 1552 l 257
 1354 1552 l 257
1354 1552 m 257
 34 0 l 257
 234 0 l 257
 1555 1552 l 257
 1354 1552 l 257
EndSplineSet
EndChar

StartChar: uni0196
Encoding: 406 406 120
GlifName: I_ota_latin
Width: 1024
VWidth: 0
GlyphClass: 2
Flags: W
AnchorPoint: "top" 814 1639 basechar 0
AnchorPoint: "base" 499.217 -50 basechar 0
LayerCount: 2
Fore
SplineSet
664 1543 m 257
 381 239 l 257
 583 239 l 257
 866 1543 l 257
 664 1543 l 257
404 304 m 257
 332 106 l 257
 792 6 l 257
 864 204 l 257
 404 304 l 257
EndSplineSet
EndChar

StartChar: uni0474
Encoding: 1140 1140 126
GlifName: I_zhitsa-cy
Width: 1024
VWidth: 0
Flags: W
AnchorPoint: "top" 1092.93 1642 basechar 0
AnchorPoint: "base" 514.926 -82 basechar 0
LayerCount: 2
Fore
SplineSet
669.926 1548 m 257
 366.926 0 l 257
 587.926 0 l 257
 870.926 1548 l 257
 669.926 1548 l 257
1279.93 1548 m 257
 491.926 0 l 257
 714.926 0 l 257
 1480.93 1548 l 257
 1279.93 1548 l 257
1279 1551 m 257
 1552 1543 l 257
 1621 1689 l 257
 1347 1697 l 257
 1279 1551 l 257
EndSplineSet
EndChar

StartChar: J
Encoding: 74 74 127
GlifName: J_
Width: 1024
VWidth: 0
GlyphClass: 2
Flags: W
AnchorPoint: "base" 812.43 -67 basechar 0
AnchorPoint: "top" 1349.43 1602 basechar 0
LayerCount: 2
Fore
SplineSet
1255.43 1527 m 257
 699.43 0 l 257
 899.43 0 l 257
 1455.43 1527 l 257
 1255.43 1527 l 257
201.43 208 m 257
 125.43 0 l 257
 740.43 0 l 257
 816.43 208 l 257
 201.43 208 l 257
307.43 503 m 257
 143.43 52 l 257
 341.43 52 l 257
 505.43 503 l 257
 307.43 503 l 257
EndSplineSet
EndChar

StartChar: K
Encoding: 75 75 131
GlifName: K_
Width: 1024
VWidth: 0
GlyphClass: 2
Flags: W
AnchorPoint: "base" 454.91 -86 basechar 0
AnchorPoint: "top" 776.91 1642 basechar 0
LayerCount: 2
Fore
SplineSet
634.91 1537 m 257
 76.9102 5 l 257
 277.91 5 l 257
 835.91 1537 l 257
 634.91 1537 l 257
483.91 999 m 257
 542.91 835 l 257
 1452.91 1529 l 257
 1185.91 1529 l 257
 483.91 999 l 257
540.91 798 m 257
 346.91 643 l 257
 667.91 0 l 257
 948.91 0 l 257
 540.91 798 l 257
EndSplineSet
EndChar

StartChar: uni03CF
Encoding: 975 975 132
GlifName: K_aiS_ymbol
Width: 1024
VWidth: 0
GlyphClass: 2
Flags: W
LayerCount: 2
Fore
SplineSet
427 -275 m 257
 620 -374 l 257
 955 5 l 257
 762 104 l 257
 427 -275 l 257
EndSplineSet
Refer: 131 75 N 1 0 0 1 0 0 2
EndChar

StartChar: uni0198
Encoding: 408 408 134
GlifName: K_hook
Width: 1024
VWidth: 0
GlyphClass: 2
Flags: W
LayerCount: 2
Fore
SplineSet
677 1537 m 257
 120 5 l 257
 321 5 l 257
 878 1537 l 257
 677 1537 l 257
527 999 m 257
 586 835 l 257
 1496 1529 l 257
 1229 1529 l 257
 527 999 l 257
583 798 m 257
 390 643 l 257
 711 0 l 257
 992 0 l 257
 583 798 l 257
1890 1729 m 257
 1846 1944 l 257
 1605 1830 l 257
 1651 1615 l 257
 1890 1729 l 257
1655 1712 m 257
 1605 1828 l 257
 1222 1523 l 257
 1495 1529 l 257
 1655 1712 l 257
EndSplineSet
EndChar

StartChar: L
Encoding: 76 76 136
GlifName: L_
Width: 1024
VWidth: 0
GlyphClass: 2
Flags: W
AnchorPoint: "base" 534.621 -43 basechar 0
AnchorPoint: "top" 816.621 1663 basechar 0
LayerCount: 2
Fore
SplineSet
655.621 1542 m 257
 94.6211 0 l 257
 292.621 0 l 257
 853.621 1542 l 257
 655.621 1542 l 257
276.621 202 m 257
 203.621 0 l 257
 929.621 0 l 257
 1002.62 202 l 257
 276.621 202 l 257
EndSplineSet
EndChar

StartChar: Lambda
Encoding: 923 923 139
GlifName: L_ambda
Width: 1024
VWidth: 0
GlyphClass: 2
Flags: W
LayerCount: 2
Fore
SplineSet
917 0 m 257
 1220.43 1548 l 257
 999.426 1548 l 257
 716 0 l 257
 917 0 l 257
307 0 m 257
 1095.43 1548 l 257
 872.426 1548 l 257
 106 0 l 257
 307 0 l 257
EndSplineSet
EndChar

StartChar: Lcaron
Encoding: 317 317 140
GlifName: L_caron
Width: 1024
VWidth: 0
GlyphClass: 2
Flags: W
LayerCount: 2
Fore
SplineSet
614 1542 m 257
 53 0 l 257
 251 0 l 257
 812 1542 l 257
 614 1542 l 257
236 202 m 257
 162 0 l 257
 888 0 l 257
 962 202 l 257
 236 202 l 257
991 1496 m 257
 907 1264 l 257
 1037 1264 l 257
 1122 1496 l 257
 991 1496 l 257
EndSplineSet
EndChar

StartChar: uni0409
Encoding: 1033 1033 143
GlifName: L_je-cy
Width: 1024
VWidth: 0
Flags: W
LayerCount: 2
Fore
SplineSet
997 1548 m 257
 541 1 l 257
 741 1 l 257
 1197 1548 l 257
 997 1548 l 257
747 1548 m 257
 675 1348 l 257
 1113 1348 l 257
 1185 1548 l 257
 747 1548 l 257
737 1548 m 257
 99 0 l 257
 299 0 l 257
 937 1548 l 257
 737 1548 l 257
106 201 m 257
 33 1 l 257
 299 1 l 257
 372 201 l 257
 106 201 l 257
805 197 m 257
 732 -3 l 257
 998 -3 l 257
 1071 197 l 257
 805 197 l 257
982 793 m 257
 909 593 l 257
 1208 584 l 257
 1281 784 l 257
 982 793 l 257
843 187 m 257
 1043 114 l 257
 1250 705 l 257
 1050 778 l 257
 843 187 l 257
EndSplineSet
EndChar

StartChar: Lslash
Encoding: 321 321 145
GlifName: L_slash
Width: 1024
VWidth: 0
GlyphClass: 2
Flags: W
LayerCount: 2
Fore
SplineSet
732 1542 m 257
 171 0 l 257
 369 0 l 257
 930 1542 l 257
 732 1542 l 257
354 202 m 257
 280 0 l 257
 1006 0 l 257
 1080 202 l 257
 354 202 l 257
344 902 m 257
 362 730 l 257
 869 932 l 257
 852 1104 l 257
 344 902 l 257
EndSplineSet
EndChar

StartChar: M
Encoding: 77 77 146
GlifName: M_
Width: 1024
VWidth: 0
GlyphClass: 2
Flags: W
AnchorPoint: "base" 567.713 -67 basechar 0
AnchorPoint: "top" 1093.71 1620 basechar 0
LayerCount: 2
Fore
SplineSet
663.713 1548 m 257
 100.713 0 l 257
 303.713 0 l 257
 866.713 1548 l 257
 663.713 1548 l 257
1281 1548 m 257
 721.713 0 l 257
 923.713 0 l 257
 1483 1548 l 257
 1281 1548 l 257
657.713 1429 m 257
 802.713 1031 l 257
 990.713 1031 l 257
 842.713 1548 l 257
 657.713 1429 l 257
1308 1548 m 257
 798.713 1023 l 257
 985.713 1023 l 257
 1456 1499 l 257
 1308 1548 l 257
EndSplineSet
EndChar

StartChar: uni019C
Encoding: 412 412 147
GlifName: M_turned
Width: 1024
VWidth: 0
GlyphClass: 2
Flags: W
AnchorPoint: "base" 544.938 -112 basechar 0
AnchorPoint: "top" 939.938 1110 basechar 0
LayerCount: 2
Fore
SplineSet
975 30 m 257
 1337 1546 l 257
 1137 1546 l 257
 775 30 l 257
 975 30 l 257
668 51 m 257
 1022 1546 l 257
 822 1546 l 257
 468 51 l 257
 668 51 l 257
351 47 m 257
 707 1546 l 257
 507 1546 l 257
 151 47 l 257
 351 47 l 257
1041 0 m 257
 1113 197 l 257
 207 197 l 257
 135 0 l 257
 1041 0 l 257
EndSplineSet
EndChar

StartChar: N
Encoding: 78 78 149
GlifName: N_
Width: 1024
VWidth: 0
GlyphClass: 2
Flags: W
AnchorPoint: "top" 1100.71 1617 basechar 0
AnchorPoint: "base" 536.713 -55 basechar 0
LayerCount: 2
Fore
SplineSet
659.713 1548 m 257
 96.7129 0 l 257
 301.713 0 l 257
 864.713 1548 l 257
 659.713 1548 l 257
1286.71 1548 m 257
 724.713 0 l 257
 927.713 0 l 257
 1488.71 1548 l 257
 1286.71 1548 l 257
660.713 1548 m 257
 724.713 0 l 257
 927.713 0 l 257
 865.713 1548 l 257
 660.713 1548 l 257
EndSplineSet
EndChar

StartChar: uni040A
Encoding: 1034 1034 154
GlifName: N_je-cy
Width: 1024
VWidth: 0
Flags: W
LayerCount: 2
Fore
SplineSet
596 1545 m 257
 34 0 l 257
 234 0 l 257
 796 1545 l 257
 596 1545 l 257
1006 1545 m 257
 444 0 l 257
 644 0 l 257
 1206 1545 l 257
 1006 1545 l 257
391 923 m 257
 318 723 l 257
 1163 723 l 257
 1236 923 l 257
 391 923 l 257
1126 924 m 257
 790 1 l 257
 990 0 l 257
 1326 923 l 257
 1126 924 l 257
568 200 m 257
 495 0 l 257
 990 0 l 257
 1063 200 l 257
 568 200 l 257
EndSplineSet
EndChar

StartChar: O
Encoding: 79 79 158
GlifName: O_
Width: 1024
VWidth: 0
GlyphClass: 2
Flags: W
AnchorPoint: "top" 1136.71 1630 basechar 0
AnchorPoint: "base" 804 -169 basechar 0
LayerCount: 2
Fore
SplineSet
671.711 1537 m 257
 111.711 0 l 257
 312.711 0 l 257
 872.711 1537 l 257
 671.711 1537 l 257
1268.71 1537 m 257
 708.711 0 l 257
 911.711 0 l 257
 1471.71 1537 l 257
 1268.71 1537 l 257
735.711 1537 m 257
 662.711 1337 l 257
 1305.71 1337 l 257
 1378.71 1537 l 257
 735.711 1537 l 257
226.711 204 m 257
 151.711 0 l 257
 824.711 0 l 257
 899.711 204 l 257
 226.711 204 l 257
EndSplineSet
EndChar

StartChar: OE
Encoding: 338 338 159
GlifName: O_E_
Width: 1024
VWidth: 0
GlyphClass: 2
Flags: W
AnchorPoint: "top" 755 1650 basechar 0
AnchorPoint: "base" 126 -78 basechar 0
LayerCount: 2
Fore
SplineSet
393 1548 m 257
 -171 0 l 257
 30 0 l 257
 594 1548 l 257
 393 1548 l 257
785 1548 m 257
 221 0 l 257
 422 0 l 257
 986 1548 l 257
 785 1548 l 257
430 1548 m 257
 357 1349 l 257
 1089 1349 l 257
 1162 1548 l 257
 430 1548 l 257
-59 200 m 257
 -132 0 l 257
 606 0 l 257
 679 200 l 257
 -59 200 l 257
637 859 m 257
 564 659 l 257
 808 659 l 257
 881 859 l 257
 637 859 l 257
EndSplineSet
EndChar

StartChar: uni019F
Encoding: 415 415 161
GlifName: O_barred
Width: 1024
VWidth: 0
GlyphClass: 2
Flags: W
AnchorPoint: "top" 1220 1682 basechar 0
AnchorPoint: "base" 804 -169 basechar 0
LayerCount: 2
Fore
SplineSet
671.711 1537 m 257
 111.711 0 l 257
 312.711 0 l 257
 872.711 1537 l 257
 671.711 1537 l 257
1268.71 1537 m 257
 708.711 0 l 257
 911.711 0 l 257
 1471.71 1537 l 257
 1268.71 1537 l 257
735.711 1537 m 257
 662.711 1337 l 257
 1305.71 1337 l 257
 1378.71 1537 l 257
 735.711 1537 l 257
226.711 204 m 257
 151.711 0 l 257
 824.711 0 l 257
 899.711 204 l 257
 226.711 204 l 257
417.595598 812 m 257
 346.257894 604 l 257
 1121.586098 604 l 257
 1192.923802 812 l 257
 417.595598 812 l 257
EndSplineSet
EndChar

StartChar: uniA7B6
Encoding: 42934 42934 171
GlifName: O_mega_latin
Width: 1024
VWidth: 0
GlyphClass: 2
Flags: W
AnchorPoint: "base" 515.579 -67 basechar 0
AnchorPoint: "top" 1103.58 1627 basechar 0
LayerCount: 2
Fore
SplineSet
627 1548 m 257
 64 0 l 257
 264 0 l 257
 827 1548 l 257
 627 1548 l 257
1322 1548 m 257
 759 0 l 257
 959 0 l 257
 1525 1549 l 257
 1322 1548 l 257
654 669 m 257
 464 146 l 257
 664 146 l 257
 854 669 l 257
 654 669 l 257
337 200 m 257
 264 0 l 257
 464 146 l 257
 537 346 l 257
 337 200 l 257
737 346 m 257
 664 146 l 257
 759 1 l 257
 832 201 l 257
 737 346 l 257
658 1548 m 257
 588 1348 l 257
 888 1348 l 257
 958 1548 l 257
 658 1548 l 257
1182 1548 m 257
 1108 1348 l 257
 1450 1348 l 257
 1524 1548 l 257
 1182 1548 l 257
EndSplineSet
EndChar

StartChar: Oslash
Encoding: 216 216 177
GlifName: O_slash
Width: 1024
VWidth: 0
GlyphClass: 2
Flags: W
AnchorPoint: "top" 1137 1639 basechar 0
AnchorPoint: "base" 553 -87 basechar 0
LayerCount: 2
Fore
SplineSet
1395 1667 m 257
 19 -45 l 257
 180 -118 l 257
 1556 1594 l 257
 1395 1667 l 257
669 1537 m 257
 110 0 l 257
 311 0 l 257
 870 1537 l 257
 669 1537 l 257
1266 1537 m 257
 707 0 l 257
 910 0 l 257
 1469 1537 l 257
 1266 1537 l 257
733 1537 m 257
 661 1337 l 257
 1304 1337 l 257
 1376 1537 l 257
 733 1537 l 257
224 204 m 257
 150 0 l 257
 823 0 l 257
 897 204 l 257
 224 204 l 257
EndSplineSet
EndChar

StartChar: P
Encoding: 80 80 180
GlifName: P_
Width: 1024
VWidth: 0
GlyphClass: 2
Flags: W
AnchorPoint: "base" 791.351 -19 basechar 0
AnchorPoint: "top" 1013.35 1658 basechar 0
LayerCount: 2
Fore
SplineSet
698.351 1548 m 257
 137.351 9 l 257
 327.351 9 l 257
 888.351 1548 l 257
 698.351 1548 l 257
777.351 1548 m 257
 703.351 1346 l 257
 1359.35 1346 l 257
 1433.35 1548 l 257
 777.351 1548 l 257
1253.35 1548 m 257
 1010.35 881 l 257
 1210.35 881 l 257
 1453.35 1548 l 257
 1253.35 1548 l 257
586.351 1068 m 257
 513.351 868 l 257
 1200.35 868 l 257
 1273.35 1068 l 257
 586.351 1068 l 257
EndSplineSet
EndChar

StartChar: Phi
Encoding: 934 934 182
GlifName: P_hi
Width: 1024
VWidth: 0
GlyphClass: 2
Flags: W
LayerCount: 2
Fore
SplineSet
984.878 1541 m 257
 428.731 13 l 257
 627.731 13 l 257
 1183.88 1541 l 257
 984.878 1541 l 257
626.838 1420 m 257
 152.948 118 l 257
 353.948 118 l 257
 827.838 1420 l 257
 626.838 1420 l 257
1223.84 1420 m 257
 749.948 118 l 257
 952.948 118 l 257
 1426.84 1420 l 257
 1223.84 1420 l 257
690.838 1420 m 257
 618.044 1220 l 257
 1261.04 1220 l 257
 1333.84 1420 l 257
 690.838 1420 l 257
267.198 322 m 257
 192.948 118 l 257
 865.948 118 l 257
 940.198 322 l 257
 267.198 322 l 257
EndSplineSet
EndChar

StartChar: uni01A4
Encoding: 420 420 183
GlifName: P_hook
Width: 1024
VWidth: 0
GlyphClass: 2
Flags: W
AnchorPoint: "base" 932.351 -19 basechar 0
AnchorPoint: "top" 1154.35 1658 basechar 0
LayerCount: 2
Fore
SplineSet
839.351 1548 m 257
 278.351 9 l 257
 468.351 9 l 257
 1029.35 1548 l 257
 839.351 1548 l 257
918.351 1548 m 257
 844.351 1346 l 257
 1500.35 1346 l 257
 1574.35 1548 l 257
 918.351 1548 l 257
1394.35 1548 m 257
 1151.35 881 l 257
 1351.35 881 l 257
 1594.35 1548 l 257
 1394.35 1548 l 257
727.351 1068 m 257
 654.351 868 l 257
 1341.35 868 l 257
 1414.35 1068 l 257
 727.351 1068 l 257
421.799 1301.86 m 257
 663.847 1332.02 l 257
 550.309 1552.5 l 257
 308.261 1522.34 l 257
 421.799 1301.86 l 257
592.656 1376.34 m 257
 869.232 1361.29 l 257
 867.914 1547.33 l 257
 550.767 1551.61 l 257
 592.656 1376.34 l 257
EndSplineSet
EndChar

StartChar: Pi
Encoding: 928 928 184
GlifName: P_i
Width: 1024
VWidth: 0
GlyphClass: 2
Flags: W
LayerCount: 2
Fore
SplineSet
669.422 1537 m 257
 110 0 l 257
 311 0 l 257
 870.422 1537 l 257
 669.422 1537 l 257
1266.42 1537 m 257
 707 0 l 257
 910 0 l 257
 1469.42 1537 l 257
 1266.42 1537 l 257
733.422 1537 m 257
 660.628 1337 l 257
 1303.63 1337 l 257
 1376.42 1537 l 257
 733.422 1537 l 257
EndSplineSet
EndChar

StartChar: Psi
Encoding: 936 936 185
GlifName: P_si
Width: 1024
VWidth: 0
GlyphClass: 2
Flags: W
LayerCount: 2
Fore
SplineSet
871.786 1266 m 257
 411 0 l 257
 613 0 l 257
 1073.79 1266 l 257
 871.786 1266 l 257
723.426 1548 m 257
 453.36 806 l 257
 653.36 806 l 257
 923.426 1548 l 257
 723.426 1548 l 257
1228.43 1548 m 257
 958.36 806 l 257
 1157.36 806 l 257
 1427.43 1548 l 257
 1228.43 1548 l 257
581.051 970 m 257
 521.36 806 l 257
 1067.36 806 l 257
 1127.05 970 l 257
 581.051 970 l 257
EndSplineSet
EndChar

StartChar: Q
Encoding: 81 81 187
GlifName: Q_
Width: 1024
VWidth: 0
GlyphClass: 2
Flags: W
AnchorPoint: "base" 494.154 -35 basechar 0
AnchorPoint: "top" 1033.15 1626 basechar 0
LayerCount: 2
Fore
SplineSet
659.154 1537 m 257
 101.154 5 l 257
 300.154 5 l 257
 858.154 1537 l 257
 659.154 1537 l 257
1258.15 1537 m 257
 698.154 0 l 257
 899.154 0 l 257
 1459.15 1537 l 257
 1258.15 1537 l 257
723.154 1537 m 257
 650.154 1337 l 257
 1293.15 1337 l 257
 1366.15 1537 l 257
 723.154 1537 l 257
214.154 205 m 257
 139.154 0 l 257
 812.154 0 l 257
 887.154 205 l 257
 214.154 205 l 257
555.154 21 m 257
 630.154 -285 l 257
 863.154 -169 l 257
 788.154 137 l 257
 555.154 21 l 257
EndSplineSet
EndChar

StartChar: R
Encoding: 82 82 188
GlifName: R_
Width: 1024
VWidth: 0
GlyphClass: 2
Flags: W
AnchorPoint: "base" 514 -59 basechar 0
AnchorPoint: "top" 1042 1636 basechar 0
LayerCount: 2
Fore
SplineSet
650 1537 m 257
 90 0 l 257
 291 0 l 257
 851 1537 l 257
 650 1537 l 257
729 1537 m 257
 655 1335 l 257
 1311 1335 l 257
 1385 1537 l 257
 729 1537 l 257
1212 1537 m 257
 970 872 l 257
 1170 872 l 257
 1412 1537 l 257
 1212 1537 l 257
546 1079 m 257
 469 868 l 257
 1156 868 l 257
 1233 1079 l 257
 546 1079 l 257
610 874 m 257
 694 0 l 257
 934 0 l 257
 837 872 l 257
 610 874 l 257
EndSplineSet
EndChar

StartChar: S
Encoding: 83 83 196
GlifName: S_
Width: 1024
VWidth: 0
GlyphClass: 2
Flags: W
AnchorPoint: "top" 1041.08 1644 basechar 0
AnchorPoint: "base" 537.08 -77 basechar 0
LayerCount: 2
Fore
SplineSet
686.08 1537 m 257
 613.08 1336 l 257
 1211.08 1336 l 257
 1284.08 1537 l 257
 686.08 1537 l 257
688.08 1542 m 257
 500.08 1028 l 257
 702.08 1028 l 257
 890.08 1542 l 257
 688.08 1542 l 257
227.08 199 m 257
 154.08 0 l 257
 862.08 0 l 257
 935.08 199 l 257
 227.08 199 l 257
697.08 0 m 257
 898.08 0 l 257
 1027.08 355 l 257
 826.08 355 l 257
 697.08 0 l 257
500.08 1028 m 257
 826.08 355 l 257
 1027.08 355 l 257
 702.08 1028 l 257
 500.08 1028 l 257
EndSplineSet
EndChar

StartChar: uniA78B
Encoding: 42891 42891 198
GlifName: S_altillo
Width: 1024
VWidth: 0
GlyphClass: 2
Flags: W
LayerCount: 2
Fore
SplineSet
803 1458 m 257
 522 454 l 257
 626 449 l 257
 1077 1458 l 257
 803 1458 l 257
EndSplineSet
EndChar

StartChar: uni0428
Encoding: 1064 1064 202
GlifName: S_ha-cy
Width: 1024
VWidth: 0
Flags: W
LayerCount: 2
Fore
SplineSet
696 1548 m 257
 133 0 l 257
 333 0 l 257
 896 1548 l 257
 696 1548 l 257
1269 1553 m 257
 703 0 l 257
 903 0 l 257
 1469 1553 l 257
 1269 1553 l 257
214 200 m 257
 141 0 l 257
 903 0 l 257
 976 200 l 257
 214 200 l 257
981 1545 m 257
 415 -1 l 257
 615 -1 l 257
 1181 1545 l 257
 981 1545 l 257
EndSplineSet
EndChar

StartChar: uni0429
Encoding: 1065 1065 203
GlifName: S_hcha-cy
Width: 1024
VWidth: 0
Flags: W
LayerCount: 2
Fore
SplineSet
599 1548 m 257
 36 0 l 257
 236 0 l 257
 799 1548 l 257
 599 1548 l 257
1172 1553 m 257
 606 0 l 257
 806 0 l 257
 1372 1553 l 257
 1172 1553 l 257
117 200 m 257
 44 0 l 257
 806 0 l 257
 879 200 l 257
 117 200 l 257
874 198 m 257
 656 -401 l 257
 855 -401 l 257
 1073 198 l 257
 874 198 l 257
884 1545 m 257
 318 -1 l 257
 518 -1 l 257
 1084 1545 l 257
 884 1545 l 257
EndSplineSet
EndChar

StartChar: Sigma
Encoding: 931 931 204
GlifName: S_igma
Width: 1024
VWidth: 0
GlyphClass: 2
Flags: W
LayerCount: 2
Fore
SplineSet
1041.76 928 m 257
 186.434 210 l 257
 104.904 -14 l 257
 967.879 725 l 257
 1041.76 928 l 257
1041.22 921 m 257
 688.15 1539 l 257
 615.992 1338 l 257
 968.786 722 l 257
 1041.22 921 l 257
1336.63 1337 m 257
 1409.42 1537 l 257
 687.422 1537 l 257
 614.628 1337 l 257
 1336.63 1337 l 257
788 0 m 257
 862.978 206 l 257
 199.978 206 l 257
 125 0 l 257
 788 0 l 257
EndSplineSet
EndChar

StartChar: uni042C
Encoding: 1068 1068 205
GlifName: S_oftsign-cy
Width: 1024
VWidth: 0
Flags: W
AnchorPoint: "base" 502.201 -60 basechar 0
AnchorPoint: "top" 820.201 1639 basechar 0
LayerCount: 2
Fore
SplineSet
606 1537 m 257
 47 0 l 257
 246 0 l 257
 805 1537 l 257
 606 1537 l 257
520 808 m 257
 448 609 l 257
 1096 609 l 257
 1168 808 l 257
 520 808 l 257
1108 808 m 257
 732 0 l 257
 931 0 l 257
 1307 808 l 257
 1108 808 l 257
247 207 m 257
 172 0 l 257
 852 0 l 257
 927 207 l 257
 247 207 l 257
EndSplineSet
EndChar

StartChar: T
Encoding: 84 84 206
GlifName: T_
Width: 1024
VWidth: 0
GlyphClass: 2
Flags: W
AnchorPoint: "top" 1130.53 1629 basechar 0
AnchorPoint: "base" 526.529 -79 basechar 0
LayerCount: 2
Fore
SplineSet
688.529 1548 m 257
 615.529 1348 l 257
 1389.53 1348 l 257
 1462.53 1548 l 257
 688.529 1548 l 257
934.529 1436 m 257
 414.529 6 l 257
 614.529 6 l 257
 1134.53 1436 l 257
 934.529 1436 l 257
EndSplineSet
EndChar

StartChar: Theta
Encoding: 920 920 211
GlifName: T_heta
Width: 1024
VWidth: 0
GlyphClass: 2
Flags: W
LayerCount: 2
Fore
SplineSet
728.863 953 m 257
 656.069 753 l 257
 944.069 753 l 257
 1016.86 953 l 257
 728.863 953 l 257
669.422 1537 m 257
 110 0 l 257
 311 0 l 257
 870.422 1537 l 257
 669.422 1537 l 257
1266.42 1537 m 257
 707 0 l 257
 910 0 l 257
 1469.42 1537 l 257
 1266.42 1537 l 257
733.422 1537 m 257
 660.628 1337 l 257
 1303.63 1337 l 257
 1376.42 1537 l 257
 733.422 1537 l 257
224.25 204 m 257
 150 0 l 257
 823 0 l 257
 897.25 204 l 257
 224.25 204 l 257
EndSplineSet
EndChar

StartChar: uni01AC
Encoding: 428 428 212
GlifName: T_hook
Width: 1024
VWidth: 0
GlyphClass: 2
Flags: W
AnchorPoint: "top" 1238.53 1629 basechar 0
AnchorPoint: "base" 634.529 -79 basechar 0
LayerCount: 2
Fore
SplineSet
796.529 1548 m 257
 723.529 1348 l 257
 1497.53 1348 l 257
 1570.53 1548 l 257
 796.529 1548 l 257
1042.53 1436 m 257
 522.529 6 l 257
 722.529 6 l 257
 1242.53 1436 l 257
 1042.53 1436 l 257
962.895 1544.24 m 257
 368.177 1545.45 l 257
 435.724 1358.26 l 257
 1028.56 1356.38 l 257
 962.895 1544.24 l 257
368.177 1545.45 m 257
 492.41 1201.18 l 257
 705.314 1200.4 l 257
 581.082 1544.67 l 257
 368.177 1545.45 l 257
EndSplineSet
EndChar

StartChar: Thorn
Encoding: 222 222 213
GlifName: T_horn
Width: 1024
VWidth: 0
GlyphClass: 2
Flags: W
AnchorPoint: "base" 221 -42 basechar 0
AnchorPoint: "top" 189 1684 basechar 0
LayerCount: 2
Fore
SplineSet
673 1542 m 257
 115 9 l 257
 305 9 l 257
 863 1542 l 257
 673 1542 l 257
640 1234 m 257
 568 1035 l 257
 1224 1035 l 257
 1296 1234 l 257
 640 1234 l 257
1116 1233 m 257
 874 569 l 257
 1074 569 l 257
 1316 1233 l 257
 1116 1233 l 257
428 684 m 257
 355 484 l 257
 1042 484 l 257
 1115 684 l 257
 428 684 l 257
EndSplineSet
EndChar

StartChar: uni01AE
Encoding: 430 430 215
GlifName: T_retroflexhook
Width: 1024
VWidth: 0
GlyphClass: 2
Flags: W
AnchorPoint: "top" 1130.53 1629 basechar 0
AnchorPoint: "base" 526.529 -79 basechar 0
LayerCount: 2
Fore
SplineSet
688.529 1548 m 257
 615.529 1348 l 257
 1389.53 1348 l 257
 1462.53 1548 l 257
 688.529 1548 l 257
934.529 1436 m 257
 414.529 6 l 257
 614.529 6 l 257
 1134.53 1436 l 257
 934.529 1436 l 257
492 219 m 257
 289 -340 l 257
 488 -340 l 257
 691 217 l 257
 492 219 l 257
289 -340 m 257
 655 -340 l 257
 728 -140 l 257
 362 -140 l 257
 289 -340 l 257
EndSplineSet
EndChar

StartChar: uni0426
Encoding: 1062 1062 216
GlifName: T_se-cy
Width: 1024
VWidth: 0
Flags: W
LayerCount: 2
Fore
SplineSet
599 1548 m 257
 36 3 l 257
 236 3 l 257
 799 1548 l 257
 599 1548 l 257
1172 1553 m 257
 606 0 l 257
 806 0 l 257
 1372 1553 l 257
 1172 1553 l 257
117 200 m 257
 44 0 l 257
 806 0 l 257
 879 200 l 257
 117 200 l 257
874 198 m 257
 656 -401 l 257
 855 -401 l 257
 1073 198 l 257
 874 198 l 257
EndSplineSet
EndChar

StartChar: uni040B
Encoding: 1035 1035 217
GlifName: T_she-cy
Width: 1024
VWidth: 0
Flags: W
LayerCount: 2
Fore
SplineSet
612 1548 m 257
 539 1348 l 257
 1327 1348 l 257
 1400 1548 l 257
 612 1548 l 257
795 1544 m 257
 233 -1 l 257
 433 -1 l 257
 995 1544 l 257
 795 1544 l 257
678 994 m 257
 605 794 l 257
 1218 794 l 257
 1291 994 l 257
 678 994 l 257
1089 989 m 257
 729 0 l 257
 929 0 l 257
 1289 989 l 257
 1089 989 l 257
EndSplineSet
EndChar

StartChar: U
Encoding: 85 85 218
GlifName: U_
Width: 1024
VWidth: 0
GlyphClass: 2
Flags: W
AnchorPoint: "top" 1057.71 1642 basechar 0
AnchorPoint: "base" 480.711 -100 basechar 0
LayerCount: 2
Fore
SplineSet
716.711 1537 m 257
 156.711 0 l 257
 356.711 0 l 257
 916.711 1537 l 257
 716.711 1537 l 257
1227.71 1537 m 257
 667.711 0 l 257
 866.711 0 l 257
 1426.71 1537 l 257
 1227.71 1537 l 257
276.711 200 m 257
 203.711 0 l 257
 823.711 0 l 257
 896.711 200 l 257
 276.711 200 l 257
EndSplineSet
EndChar

StartChar: uni0423
Encoding: 1059 1059 219
GlifName: U_-cy
Width: 1024
VWidth: 0
Flags: W
AnchorPoint: "top" 895.285 1145 basechar 0
AnchorPoint: "base" 395.285 -500 basechar 0
LayerCount: 2
Fore
SplineSet
1051 1427 m 257
 530 -2 l 257
 730 -2 l 257
 1251 1427 l 257
 1051 1427 l 257
68 193 m 257
 -3 -2 l 257
 714 -2 l 257
 785 193 l 257
 68 193 l 257
518 1427 m 257
 241 668 l 257
 441 668 l 257
 718 1427 l 257
 518 1427 l 257
314 868 m 257
 241 668 l 257
 859 668 l 257
 932 868 l 257
 314 868 l 257
EndSplineSet
EndChar

StartChar: uni01B1
Encoding: 433 433 231
GlifName: U_psilon_latin
Width: 1024
VWidth: 0
GlyphClass: 2
Flags: W
AnchorPoint: "top" 944 1612 basechar 0
LayerCount: 2
Fore
SplineSet
672 1455 m 257
 139 0 l 257
 340 0 l 257
 873 1455 l 257
 672 1455 l 257
971 1455 m 257
 717 0 l 257
 917 0 l 257
 1171 1455 l 257
 971 1455 l 257
257 196 m 257
 186 0 l 257
 867 0 l 257
 941 203 l 257
 257 196 l 257
1080 1455 m 257
 1012 1255 l 257
 1310 1255 l 257
 1378 1455 l 257
 1080 1455 l 257
461 1455 m 257
 388 1255 l 257
 686 1255 l 257
 759 1455 l 257
 461 1455 l 257
EndSplineSet
EndChar

StartChar: V
Encoding: 86 86 238
GlifName: V_
Width: 1024
VWidth: 0
GlyphClass: 2
Flags: W
AnchorPoint: "top" 1092.93 1642 basechar 0
AnchorPoint: "base" 514.926 -82 basechar 0
LayerCount: 2
Fore
SplineSet
669.926 1548 m 257
 366.926 0 l 257
 587.926 0 l 257
 870.926 1548 l 257
 669.926 1548 l 257
1279.93 1548 m 257
 491.926 0 l 257
 714.926 0 l 257
 1480.93 1548 l 257
 1279.93 1548 l 257
EndSplineSet
EndChar

StartChar: uni01B2
Encoding: 434 434 239
GlifName: V_hook
Width: 1024
VWidth: 0
GlyphClass: 2
Flags: W
AnchorPoint: "top" 881.171 1127 basechar 0
AnchorPoint: "base" 490.171 -69 basechar 0
LayerCount: 2
Fore
SplineSet
476 1623 m 257
 103.171 0 l 257
 303.171 0 l 257
 676 1623 l 257
 476 1623 l 257
1091 1623 m 257
 718.171 0 l 257
 920.171 0 l 257
 1293 1623 l 257
 1091 1623 l 257
958 1623 m 257
 885 1422 l 257
 1112 1422 l 257
 1185 1623 l 257
 958 1623 l 257
303.171 200 m 257
 230.171 0 l 257
 802.171 0 l 257
 875.171 200 l 257
 303.171 200 l 257
EndSplineSet
EndChar

StartChar: W
Encoding: 87 87 241
GlifName: W_
Width: 1024
VWidth: 0
GlyphClass: 2
Flags: W
AnchorPoint: "base" 515.579 -67 basechar 0
AnchorPoint: "top" 1103.58 1627 basechar 0
LayerCount: 2
Fore
SplineSet
666.579 1548 m 257
 103.579 0 l 257
 304.579 0 l 257
 867.579 1548 l 257
 666.579 1548 l 257
1283.58 1548 m 257
 724.579 12 l 257
 925.579 12 l 257
 1484.58 1548 l 257
 1283.58 1548 l 257
786.579 1028 m 257
 412.579 0 l 257
 613.579 0 l 257
 987.579 1028 l 257
 786.579 1028 l 257
175.579 201 m 257
 102.579 0 l 257
 921.579 0 l 257
 994.579 201 l 257
 175.579 201 l 257
EndSplineSet
EndChar

StartChar: X
Encoding: 88 88 247
GlifName: X_
Width: 1024
VWidth: 0
GlyphClass: 2
Flags: W
AnchorPoint: "top" 1091.21 1627 basechar 0
AnchorPoint: "base" 568.213 -32 basechar 0
LayerCount: 2
Fore
SplineSet
654.213 1548 m 257
 733.213 0 l 257
 933.213 0 l 257
 853.213 1548 l 257
 654.213 1548 l 257
96.2129 6 m 257
 297.213 6 l 257
 1488.21 1548 l 257
 1289.21 1548 l 257
 96.2129 6 l 257
EndSplineSet
EndChar

StartChar: Xi
Encoding: 926 926 248
GlifName: X_i
Width: 1024
VWidth: 0
GlyphClass: 2
Flags: W
LayerCount: 2
Fore
SplineSet
496.044 948 m 257
 418.882 736 l 257
 1138.88 736 l 257
 1216.04 948 l 257
 496.044 948 l 257
660.426 1548 m 257
 583.265 1336 l 257
 1417.26 1336 l 257
 1494.43 1548 l 257
 660.426 1548 l 257
175.162 212 m 257
 98 0 l 257
 926 0 l 257
 1003.16 212 l 257
 175.162 212 l 257
EndSplineSet
EndChar

StartChar: Y
Encoding: 89 89 249
GlifName: Y_
Width: 1024
VWidth: 0
GlyphClass: 2
Flags: W
AnchorPoint: "top" 1069.54 1638 basechar 0
AnchorPoint: "base" 482.538 -123 basechar 0
LayerCount: 2
Fore
SplineSet
737.538 897 m 257
 411.538 0 l 257
 613.538 0 l 257
 939.538 897 l 257
 737.538 897 l 257
723.538 1548 m 257
 472.538 859 l 257
 672.538 859 l 257
 923.538 1548 l 257
 723.538 1548 l 257
1228.54 1548 m 257
 977.538 859 l 257
 1176.54 859 l 257
 1427.54 1548 l 257
 1228.54 1548 l 257
600.538 1023 m 257
 540.538 859 l 257
 1086.54 859 l 257
 1146.54 1023 l 257
 600.538 1023 l 257
EndSplineSet
EndChar

StartChar: uni042F
Encoding: 1071 1071 250
GlifName: Y_a-cy
Width: 1024
VWidth: 0
Flags: W
AnchorPoint: "base" 510 -28 basechar 0
AnchorPoint: "top" 480 1642 basechar 0
LayerCount: 2
Fore
SplineSet
1515 1537 m 257
 956 0 l 257
 755 0 l 257
 1314 1537 l 257
 1515 1537 l 257
1436 1537 m 257
 1363 1335 l 257
 707 1335 l 257
 780 1537 l 257
 1436 1537 l 257
953 1537 m 257
 711 872 l 257
 511 872 l 257
 753 1537 l 257
 953 1537 l 257
1286 1079 m 257
 1209 868 l 257
 522 868 l 257
 599 1079 l 257
 1286 1079 l 257
1072 874 m 257
 352 0 l 257
 112 0 l 257
 844 872 l 257
 1072 874 l 257
EndSplineSet
EndChar

StartChar: uni0462
Encoding: 1122 1122 252
GlifName: Y_at-cy
Width: 1024
VWidth: 0
Flags: W
AnchorPoint: "base" 502.201 -60 basechar 0
AnchorPoint: "top" 820.201 1639 basechar 0
LayerCount: 2
Fore
SplineSet
793 1537 m 257
 208 0 l 257
 380 0 l 257
 992 1537 l 257
 793 1537 l 257
573 808 m 257
 448 609 l 257
 1096 609 l 257
 1168 808 l 257
 573 808 l 257
1108 808 m 257
 732 0 l 257
 931 0 l 257
 1307 808 l 257
 1108 808 l 257
300 207 m 257
 225 0 l 257
 852 0 l 257
 927 207 l 257
 300 207 l 257
540 1281 m 257
 385 1082 l 257
 1135 1082 l 257
 1325 1281 l 257
 540 1281 l 257
EndSplineSet
EndChar

StartChar: uni042B
Encoding: 1067 1067 255
GlifName: Y_eru-cy
Width: 1024
VWidth: 0
Flags: W
AnchorPoint: "base" 502.201 -60 basechar 0
AnchorPoint: "top" 820.201 1639 basechar 0
LayerCount: 2
Fore
SplineSet
606 1537 m 257
 47 0 l 257
 246 0 l 257
 805 1537 l 257
 606 1537 l 257
520 808 m 257
 448 609 l 257
 893 609 l 257
 965 808 l 257
 520 808 l 257
795 808 m 257
 483 0 l 257
 682 0 l 257
 994 808 l 257
 795 808 l 257
247 207 m 257
 172 0 l 257
 668 0 l 257
 743 207 l 257
 247 207 l 257
1351 1550 m 257
 792 -1 l 257
 991 -1 l 257
 1550 1550 l 257
 1351 1550 l 257
EndSplineSet
EndChar

StartChar: uni042E
Encoding: 1070 1070 258
GlifName: Y_u-cy
Width: 1024
VWidth: 0
Flags: W
AnchorPoint: "top" 1136.71 1630 basechar 0
AnchorPoint: "base" 804 -169 basechar 0
LayerCount: 2
Fore
SplineSet
895 1537 m 257
 335 0 l 257
 536 0 l 257
 1096 1537 l 257
 895 1537 l 257
1268.71 1537 m 257
 708.711 0 l 257
 911.711 0 l 257
 1471.71 1537 l 257
 1268.71 1537 l 257
892 1537 m 257
 819 1337 l 257
 1305.71 1337 l 257
 1378.71 1537 l 257
 892 1537 l 257
407 204 m 257
 336 0 l 257
 828 0 l 257
 900 204 l 257
 407 204 l 257
582 1550 m 257
 22 13 l 257
 223 13 l 257
 783 1550 l 257
 582 1550 l 257
406 924 m 257
 353 724 l 257
 690 724 l 257
 744 924 l 257
 406 924 l 257
EndSplineSet
EndChar

StartChar: Z
Encoding: 90 90 259
GlifName: Z_
Width: 1024
VWidth: 0
GlyphClass: 2
Flags: W
AnchorPoint: "top" 1066.35 1649 basechar 0
AnchorPoint: "base" 460.346 -84 basechar 0
LayerCount: 2
Fore
SplineSet
658.346 1548 m 257
 581.346 1336 l 257
 1415.35 1336 l 257
 1492.35 1548 l 257
 658.346 1548 l 257
173.346 212 m 257
 96.3457 0 l 257
 924.346 0 l 257
 1001.35 212 l 257
 173.346 212 l 257
1154.35 1335 m 257
 173.346 211 l 257
 380.346 211 l 257
 1399.35 1335 l 257
 1154.35 1335 l 257
EndSplineSet
EndChar

StartChar: uni0417
Encoding: 1047 1047 263
GlifName: Z_e-cy
Width: 1024
VWidth: 0
Flags: W
LayerCount: 2
Fore
SplineSet
662 1547 m 257
 589 1347 l 257
 1415 1347 l 257
 1488 1547 l 257
 662 1547 l 257
662 1547 m 257
 539 1211 l 257
 739 1211 l 257
 862 1547 l 257
 662 1547 l 257
1284 1535 m 257
 1041 868 l 257
 1241 868 l 257
 1484 1535 l 257
 1284 1535 l 257
984 710 m 257
 728 7 l 257
 928 7 l 257
 1184 710 l 257
 984 710 l 257
175 200 m 257
 102 0 l 257
 921 0 l 257
 994 200 l 257
 175 200 l 257
242 395 m 257
 98 0 l 257
 298 0 l 257
 442 395 l 257
 242 395 l 257
568 892 m 257
 495 692 l 257
 1024 692 l 257
 1097 892 l 257
 568 892 l 257
EndSplineSet
EndChar

StartChar: uni0416
Encoding: 1046 1046 265
GlifName: Z_he-cy
Width: 1024
VWidth: 0
Flags: W
AnchorPoint: "base" 494 -39 basechar 0
AnchorPoint: "top" 214 1642 basechar 0
LayerCount: 2
Fore
SplineSet
966 1537 m 257
 409 5 l 257
 610 5 l 257
 1167 1537 l 257
 966 1537 l 257
816 999 m 257
 875 835 l 257
 1520 1529 l 257
 1253 1529 l 257
 816 999 l 257
872 798 m 257
 679 643 l 257
 735 0 l 257
 1016 0 l 257
 872 798 l 257
888 999 m 257
 871 1529 l 257
 604 1529 l 257
 709 835 l 257
 888 999 l 257
684 798 m 257
 -6 0 l 257
 275 0 l 257
 765 643 l 257
 684 798 l 257
EndSplineSet
EndChar

StartChar: a
Encoding: 97 97 266
GlifName: a
Width: 1024
VWidth: 0
GlyphClass: 2
Flags: W
AnchorPoint: "top" 843.955 1144 basechar 0
AnchorPoint: "base" 531.955 -76 basechar 0
LayerCount: 2
Fore
SplineSet
538.955 1023 m 257
 465.955 824 l 257
 1071.96 824 l 257
 1144.96 1023 l 257
 538.955 1023 l 257
1031.96 1023 m 257
 658.955 0 l 257
 852.955 0 l 257
 1225.96 1023 l 257
 1031.96 1023 l 257
387.955 599 m 257
 315.955 400 l 257
 939.955 400 l 257
 1011.96 599 l 257
 387.955 599 l 257
379.955 575 m 257
 169.955 0 l 257
 370.955 0 l 257
 580.955 575 l 257
 379.955 575 l 257
240.955 201 m 257
 167.955 0 l 257
 857.955 0 l 257
 930.955 201 l 257
 240.955 201 l 257
EndSplineSet
EndChar

StartChar: acute
Encoding: 180 180 271
GlifName: acute
Width: 1024
VWidth: 0
GlyphClass: 2
Flags: W
LayerCount: 2
Fore
SplineSet
1098.92 1556 m 257
 875.924 1302 l 257
 947.924 1256 l 257
 1171.92 1511 l 257
 1098.92 1556 l 257
EndSplineSet
EndChar

StartChar: acutecomb
Encoding: 769 769 272
GlifName: acutecomb
Width: 0
VWidth: 0
GlyphClass: 4
Flags: W
AnchorPoint: "top" -8 779 mark 0
LayerCount: 2
Fore
SplineSet
83 1137 m 257
 -139 883 l 257
 8 784 l 257
 232 1039 l 257
 83 1137 l 257
EndSplineSet
EndChar

StartChar: ae
Encoding: 230 230 276
GlifName: ae
Width: 1024
VWidth: 0
GlyphClass: 2
Flags: W
AnchorPoint: "base" 516 -103 basechar 0
AnchorPoint: "top" 955 1125 basechar 0
LayerCount: 2
Fore
SplineSet
420 1023 m 257
 348 824 l 257
 1167 824 l 257
 1239 1023 l 257
 420 1023 l 257
821 1023 m 257
 449 0 l 257
 643 0 l 257
 1015 1023 l 257
 821 1023 l 257
289 599 m 257
 217 400 l 257
 1014 400 l 257
 1086 599 l 257
 289 599 l 257
280 575 m 257
 71 0 l 257
 272 0 l 257
 481 575 l 257
 280 575 l 257
142 201 m 257
 69 0 l 257
 989 0 l 257
 1062 201 l 257
 142 201 l 257
1145 1023 m 257
 919 400 l 257
 1114 400 l 257
 1340 1023 l 257
 1145 1023 l 257
EndSplineSet
EndChar

StartChar: alpha
Encoding: 945 945 279
GlifName: alpha
Width: 1024
VWidth: 0
GlyphClass: 2
Flags: W
LayerCount: 2
Fore
SplineSet
544 1023 m 257
 472 826 l 257
 897 826 l 257
 969 1023 l 257
 544 1023 l 257
529 984 m 257
 171 0 l 257
 375 0 l 257
 733 984 l 257
 529 984 l 257
352 201 m 257
 279 0 l 257
 619 5 l 257
 692 206 l 257
 352 201 l 257
818 -20 m 257
 1029 65 l 257
 970 1024 l 257
 759 939 l 257
 818 -20 l 257
621 3 m 257
 1347 939 l 257
 1198 1024 l 257
 472 88 l 257
 621 3 l 257
EndSplineSet
EndChar

StartChar: uni0251
Encoding: 593 593 280
GlifName: alpha_latin
Width: 1024
VWidth: 0
GlyphClass: 2
Flags: W
AnchorPoint: "top" 881.171 1127 basechar 0
AnchorPoint: "base" 490.171 -69 basechar 0
LayerCount: 2
Fore
SplineSet
476.171 1023 m 257
 103.171 0 l 257
 303.171 0 l 257
 676.171 1023 l 257
 476.171 1023 l 257
1091 1116 m 257
 718 -127 l 257
 920 -127 l 257
 1293 1116 l 257
 1091 1116 l 257
599.171 1023 m 257
 526.171 822 l 257
 1112.17 822 l 257
 1185.17 1023 l 257
 599.171 1023 l 257
303.171 200 m 257
 230.171 0 l 257
 802.171 0 l 257
 875.171 200 l 257
 303.171 200 l 257
EndSplineSet
EndChar

StartChar: ampersand
Encoding: 38 38 287
GlifName: ampersand
Width: 1024
VWidth: 0
GlyphClass: 2
Flags: W
LayerCount: 2
Fore
SplineSet
595 1537 m 257
 488 12 l 257
 650 56 l 257
 757 1537 l 257
 595 1537 l 257
1089 1401 m 257
 1139 1537 l 257
 673 1537 l 257
 623 1401 l 257
 1089 1401 l 257
945 1446 m 257
 753 917 l 257
 913 917 l 257
 1106 1446 l 257
 945 1446 l 257
264 1045 m 257
 190 843 l 257
 886 843 l 257
 960 1045 l 257
 264 1045 l 257
264 1045 m 257
 -108 24 l 257
 102 24 l 257
 474 1045 l 257
 264 1045 l 257
-48 190 m 257
 -115 6 l 257
 693 6 l 257
 760 190 l 257
 -48 190 l 257
EndSplineSet
EndChar

StartChar: approxequal
Encoding: 8776 8776 290
GlifName: approxequal
Width: 1024
VWidth: 0
GlyphClass: 2
Flags: W
LayerCount: 2
Fore
SplineSet
533 559 m 257
 497 395 l 257
 825 334 l 257
 861 498 l 257
 533 559 l 257
274 501 m 257
 254 338 l 257
 497 395 l 257
 533 559 l 257
 274 501 l 257
861 498 m 257
 825 334 l 257
 1058 475 l 257
 1068 636 l 257
 861 498 l 257
627 898 m 257
 591 716 l 257
 918 655 l 257
 954 837 l 257
 627 898 l 257
368 840 m 257
 347 659 l 257
 591 716 l 257
 627 898 l 257
 368 840 l 257
954 837 m 257
 918 655 l 257
 1151 796 l 257
 1162 975 l 257
 954 837 l 257
EndSplineSet
EndChar

StartChar: asciicircum
Encoding: 94 94 294
GlifName: asciicircum
Width: 1024
VWidth: 0
GlyphClass: 2
Flags: W
LayerCount: 2
Fore
SplineSet
813 1023 m 257
 664 1023 l 257
 175 407 l 257
 302 345 l 257
 813 1023 l 257
627 904 m 257
 678 343 l 257
 849 400 l 257
 813 1023 l 257
 627 904 l 257
EndSplineSet
EndChar

StartChar: asciitilde
Encoding: 126 126 295
GlifName: asciitilde
Width: 1024
VWidth: 0
GlyphClass: 2
Flags: W
LayerCount: 2
Fore
SplineSet
384 815 m 257
 348 656 l 257
 676 595 l 257
 712 754 l 257
 384 815 l 257
125 757 m 257
 105 599 l 257
 348 656 l 257
 384 815 l 257
 125 757 l 257
712 754 m 257
 676 595 l 257
 908 736 l 257
 919 892 l 257
 712 754 l 257
EndSplineSet
EndChar

StartChar: asterisk
Encoding: 42 42 296
GlifName: asterisk
Width: 1024
VWidth: 0
GlyphClass: 2
Flags: W
LayerCount: 2
Fore
SplineSet
894.363 1297 m 257
 531.363 300 l 257
 761.363 300 l 257
 1124.36 1297 l 257
 894.363 1297 l 257
465.363 1099 m 257
 924.363 360 l 257
 1135.36 504 l 257
 671.363 1241 l 257
 465.363 1099 l 257
1265.36 1232 m 257
 285.363 525 l 257
 371.363 372 l 257
 1351.36 1079 l 257
 1265.36 1232 l 257
EndSplineSet
EndChar

StartChar: at
Encoding: 64 64 297
GlifName: at
Width: 1024
VWidth: 0
GlyphClass: 2
Flags: W
LayerCount: 2
Fore
SplineSet
336 1023 m 257
 284 879 l 257
 1103 879 l 257
 1155 1023 l 257
 336 1023 l 257
715 592 m 257
 500 0 l 257
 653 0 l 257
 868 592 l 257
 715 592 l 257
385 600 m 257
 329 444 l 257
 754 444 l 257
 810 600 l 257
 385 600 l 257
378 589 m 257
 168 12 l 257
 342 12 l 257
 552 589 l 257
 378 589 l 257
230 188 m 257
 162 0 l 257
 656 0 l 257
 724 188 l 257
 230 188 l 257
248 1023 m 257
 -205 -223 l 257
 -29 -223 l 257
 424 1023 l 257
 248 1023 l 257
-157 -86 m 257
 -220 -258 l 257
 728 -258 l 257
 791 -86 l 257
 -157 -86 l 257
1093 1011 m 257
 725 0 l 257
 876 0 l 257
 1244 1011 l 257
 1093 1011 l 257
661 175 m 257
 597 0 l 257
 806 0 l 257
 870 175 l 257
 661 175 l 257
EndSplineSet
EndChar

StartChar: uni0250
Encoding: 592 592 299
GlifName: aturned
Width: 1024
VWidth: 0
GlyphClass: 2
Flags: W
AnchorPoint: "top" 551.045 -121 basechar 0
AnchorPoint: "base" 863.045 1099 basechar 0
LayerCount: 2
Fore
SplineSet
856.045 0 m 257
 929.045 199 l 257
 323.04 199 l 257
 250.04 0 l 257
 856.045 0 l 257
387 0 m 257
 760 1080 l 257
 566 1080 l 257
 193 0 l 257
 387 0 l 257
1007.04 424 m 257
 1079.05 623 l 257
 455.045 623 l 257
 383.04 424 l 257
 1007.04 424 l 257
1015.04 448 m 257
 1225.05 1023 l 257
 1024.05 1023 l 257
 814.045 448 l 257
 1015.04 448 l 257
1155 822 m 257
 1227 1023 l 257
 549 1023 l 257
 477 822 l 257
 1155 822 l 257
EndSplineSet
EndChar

StartChar: b
Encoding: 98 98 300
GlifName: b
Width: 1024
VWidth: 0
GlyphClass: 2
Flags: W
AnchorPoint: "base" 502.201 -60 basechar 0
AnchorPoint: "top" 820.201 1639 basechar 0
LayerCount: 2
Fore
SplineSet
694.201 1537 m 257
 135.201 0 l 257
 334.201 0 l 257
 893.201 1537 l 257
 694.201 1537 l 257
608.201 1033 m 257
 536.201 834 l 257
 1054.2 834 l 257
 1126.2 1033 l 257
 608.201 1033 l 257
1066.2 1033 m 257
 690.201 0 l 257
 889.201 0 l 257
 1265.2 1033 l 257
 1066.2 1033 l 257
335.201 207 m 257
 260.201 0 l 257
 810.201 0 l 257
 885.201 207 l 257
 335.201 207 l 257
EndSplineSet
EndChar

StartChar: backslash
Encoding: 92 92 301
GlifName: backslash
Width: 1024
VWidth: 0
GlyphClass: 2
Flags: W
LayerCount: 2
Fore
SplineSet
353 1441 m 257
 451 -13 l 257
 671 65 l 257
 574 1519 l 257
 353 1441 l 257
EndSplineSet
EndChar

StartChar: bar
Encoding: 124 124 303
GlifName: bar
Width: 1024
VWidth: 0
GlyphClass: 2
Flags: W
LayerCount: 2
Fore
SplineSet
933 1435 m 257
 378 -90 l 257
 581 -90 l 257
 1136 1435 l 257
 933 1435 l 257
EndSplineSet
EndChar

StartChar: uni0431
Encoding: 1073 1073 305
GlifName: be-cy
Width: 1024
VWidth: 0
Flags: W
AnchorPoint: "base" 502.201 -60 basechar 0
AnchorPoint: "top" 820.201 1639 basechar 0
LayerCount: 2
Fore
SplineSet
694 1261 m 257
 135.201 0 l 257
 334.201 0 l 257
 893 1261 l 257
 694 1261 l 257
608.201 1033 m 257
 536.201 834 l 257
 1054.2 834 l 257
 1126.2 1033 l 257
 608.201 1033 l 257
1066.2 1033 m 257
 690.201 0 l 257
 889.201 0 l 257
 1265.2 1033 l 257
 1066.2 1033 l 257
335.201 207 m 257
 260.201 0 l 257
 810.201 0 l 257
 885.201 207 l 257
 335.201 207 l 257
694 1261 m 257
 622 1062 l 257
 1457 1349 l 257
 1529 1548 l 257
 694 1261 l 257
EndSplineSet
EndChar

StartChar: beta
Encoding: 946 946 306
GlifName: beta
Width: 1024
VWidth: 0
GlyphClass: 2
Flags: W
LayerCount: 2
Fore
SplineSet
456 1505 m 257
 -258 -457 l 257
 -58 -457 l 257
 656 1505 l 257
 456 1505 l 257
472 1547 m 257
 399 1347 l 257
 1187 1252 l 257
 1260 1452 l 257
 472 1547 l 257
1060 1453 m 257
 532 2 l 257
 732 2 l 257
 1260 1453 l 257
 1060 1453 l 257
242 916 m 257
 169 716 l 257
 992 716 l 257
 1065 916 l 257
 242 916 l 257
274 202 m 257
 201 2 l 257
 732 2 l 257
 805 202 l 257
 274 202 l 257
EndSplineSet
EndChar

StartChar: uniA7B5
Encoding: 42933 42933 307
GlifName: beta_latin
Width: 1024
VWidth: 0
GlyphClass: 2
Flags: W
LayerCount: 2
Fore
SplineSet
456 1505 m 257
 -258 -457 l 257
 -58 -457 l 257
 656 1505 l 257
 456 1505 l 257
472 1547 m 257
 399 1347 l 257
 1187 1252 l 257
 1260 1452 l 257
 472 1547 l 257
1060 1453 m 257
 532 2 l 257
 732 2 l 257
 1260 1453 l 257
 1060 1453 l 257
242 916 m 257
 169 716 l 257
 992 716 l 257
 1065 916 l 257
 242 916 l 257
274 202 m 257
 201 2 l 257
 732 2 l 257
 805 202 l 257
 274 202 l 257
EndSplineSet
EndChar

StartChar: H18533
Encoding: 9679 9679 310
GlifName: blackC_ircle
Width: 1024
VWidth: 0
GlyphClass: 2
Flags: W
LayerCount: 2
Fore
SplineSet
561 1191 m 257
 378 1179 l 257
 225 1094 l 257
 131 928 l 257
 145 735 l 257
 212 520 l 257
 436 426 l 257
 598 448 l 257
 777 498 l 257
 844 650 l 257
 876 785 l 257
 871 951 l 257
 781 1094 l 257
 561 1191 l 257
EndSplineSet
EndChar

StartChar: uni25C6
Encoding: 9670 9670 311
GlifName: blackD_iamond
Width: 1024
VWidth: 0
GlyphClass: 2
Flags: W
LayerCount: 2
Fore
SplineSet
82 829 m 257
 508 402 l 257
 935 829 l 257
 509 1255 l 257
 82 829 l 257
EndSplineSet
EndChar

StartChar: H18543
Encoding: 9642 9642 312
GlifName: blackS_mallS_quare
Width: 1024
VWidth: 0
GlyphClass: 2
Flags: W
LayerCount: 2
Fore
SplineSet
260 1077 m 257
 260 580 l 257
 757 580 l 257
 757 1077 l 257
 260 1077 l 257
EndSplineSet
EndChar

StartChar: filledbox
Encoding: 9632 9632 313
GlifName: blackS_quare
Width: 1024
VWidth: 0
GlyphClass: 2
Flags: W
LayerCount: 2
Fore
SplineSet
95 1242 m 257
 95 415 l 257
 922 415 l 257
 922 1242 l 257
 95 1242 l 257
EndSplineSet
EndChar

StartChar: braceleft
Encoding: 123 123 315
GlifName: braceleft
Width: 1024
VWidth: 0
GlyphClass: 2
Flags: W
LayerCount: 2
Fore
SplineSet
1075.29 1548 m 257
 817.287 838 l 257
 963.287 838 l 257
 1221.29 1548 l 257
 1075.29 1548 l 257
678.287 424 m 257
 420.287 -286 l 257
 566.287 -286 l 257
 824.287 424 l 257
 678.287 424 l 257
474.287 690 m 257
 452.287 630 l 257
 963.287 838 l 257
 817.287 838 l 257
 474.287 690 l 257
474.287 690 m 257
 452.287 630 l 257
 677.287 425 l 257
 826.287 425 l 257
 474.287 690 l 257
1096.29 1603 m 257
 1041.29 1452 l 257
 1354.29 1574 l 257
 1368.29 1603 l 257
 1096.29 1603 l 257
474.287 -140 m 257
 420.287 -287 l 257
 696.287 -287 l 257
 701.287 -274 l 257
 474.287 -140 l 257
EndSplineSet
EndChar

StartChar: braceright
Encoding: 125 125 316
GlifName: braceright
Width: 1024
VWidth: 0
GlyphClass: 2
Flags: W
LayerCount: 2
Fore
SplineSet
1091.21 1548 m 257
 929.206 1548 l 257
 671.206 838 l 257
 833.206 838 l 257
 1091.21 1548 l 257
668.206 424 m 257
 508.206 424 l 257
 250.206 -286 l 257
 410.206 -286 l 257
 668.206 424 l 257
1052.21 690 m 257
 828.206 838 l 257
 667.206 838 l 257
 1030.21 630 l 257
 1052.21 690 l 257
1052.21 690 m 257
 508.206 424 l 257
 668.206 424 l 257
 1030.21 630 l 257
 1052.21 690 l 257
1112.21 1603 m 257
 837.206 1603 l 257
 831.206 1574 l 257
 1057.21 1452 l 257
 1112.21 1603 l 257
448.206 -140 m 257
 123.206 -274 l 257
 120.206 -284 l 257
 396.206 -284 l 257
 448.206 -140 l 257
EndSplineSet
EndChar

StartChar: bracketleft
Encoding: 91 91 317
GlifName: bracketleft
Width: 1024
VWidth: 0
GlyphClass: 2
Flags: W
LayerCount: 2
Fore
SplineSet
939.061 1542 m 257
 290.061 -242 l 257
 412.061 -242 l 257
 1061.06 1542 l 257
 939.061 1542 l 257
993.061 1543 m 257
 947.061 1416 l 257
 1156.06 1416 l 257
 1202.06 1543 l 257
 993.061 1543 l 257
399.061 -91 m 257
 344.061 -242 l 257
 558.061 -242 l 257
 613.061 -91 l 257
 399.061 -91 l 257
EndSplineSet
EndChar

StartChar: bracketright
Encoding: 93 93 318
GlifName: bracketright
Width: 1024
VWidth: 0
GlyphClass: 2
Flags: W
LayerCount: 2
Fore
SplineSet
1087.58 1542 m 257
 437.58 -242 l 257
 559.58 -242 l 257
 1209.58 1542 l 257
 1087.58 1542 l 257
937.58 1543 m 257
 891.58 1416 l 257
 1100.58 1416 l 257
 1146.58 1543 l 257
 937.58 1543 l 257
342.58 -91 m 257
 287.58 -242 l 257
 501.58 -242 l 257
 556.58 -91 l 257
 342.58 -91 l 257
EndSplineSet
EndChar

StartChar: breve
Encoding: 728 728 319
GlifName: breve
Width: 1024
VWidth: 0
GlyphClass: 2
Flags: W
LayerCount: 2
Fore
SplineSet
1240.08 1548 m 257
 1216.08 1480 l 257
 1405.08 1548 l 257
 1441.08 1645 l 257
 1240.08 1548 l 257
916.078 1548 m 257
 892.078 1480 l 257
 1216.08 1480 l 257
 1240.08 1548 l 257
 916.078 1548 l 257
775.078 1630 m 257
 745.078 1548 l 257
 892.078 1480 l 257
 916.078 1548 l 257
 775.078 1630 l 257
EndSplineSet
EndChar

StartChar: brokenbar
Encoding: 166 166 325
GlifName: brokenbar
Width: 1024
VWidth: 0
GlyphClass: 2
Flags: W
LayerCount: 2
Fore
SplineSet
334.343 -332 m 257
 444.343 -332 l 257
 813.343 682 l 257
 703.343 682 l 257
 334.343 -332 l 257
746.343 790 m 257
 856.343 790 l 257
 1164.34 1636 l 257
 1054.34 1636 l 257
 746.343 790 l 257
EndSplineSet
EndChar

StartChar: bullet
Encoding: 8226 8226 328
GlifName: bullet
Width: 1024
VWidth: 0
GlyphClass: 2
Flags: W
LayerCount: 2
Fore
SplineSet
416 1023 m 257
 323 765 l 257
 608 765 l 257
 701 1023 l 257
 416 1023 l 257
EndSplineSet
EndChar

StartChar: uni2219
Encoding: 8729 8729 329
GlifName: bulletoperator
Width: 1024
VWidth: 0
GlyphClass: 2
Flags: W
LayerCount: 2
Fore
SplineSet
416 1023 m 257
 323 765 l 257
 608 765 l 257
 701 1023 l 257
 416 1023 l 257
EndSplineSet
EndChar

StartChar: c
Encoding: 99 99 330
GlifName: c
Width: 1024
VWidth: 0
GlyphClass: 2
Flags: W
AnchorPoint: "base" 539.49 -67 basechar 0
AnchorPoint: "top" 864.49 1116 basechar 0
LayerCount: 2
Fore
SplineSet
536.49 1023 m 257
 464.49 826 l 257
 1160.49 826 l 257
 1232.49 1023 l 257
 536.49 1023 l 257
524.49 984 m 257
 166.49 0 l 257
 368.49 0 l 257
 726.49 984 l 257
 524.49 984 l 257
345.49 201 m 257
 272.49 0 l 257
 854.49 0 l 257
 927.49 201 l 257
 345.49 201 l 257
EndSplineSet
EndChar

StartChar: caron
Encoding: 711 711 333
GlifName: caron
Width: 1024
VWidth: 0
GlyphClass: 2
Flags: W
LayerCount: 2
Fore
SplineSet
434 1083 m 257
 425 1437 l 257
 335 1404 l 257
 356 1083 l 257
 434 1083 l 257
382 1146 m 257
 434 1083 l 257
 689 1408 l 257
 622 1437 l 257
 382 1146 l 257
EndSplineSet
EndChar

StartChar: cedilla
Encoding: 184 184 338
GlifName: cedilla
Width: 1024
VWidth: 0
GlyphClass: 2
Flags: W
LayerCount: 2
Fore
SplineSet
376.61 242 m 257
 258.61 -82 l 257
 414.61 -82 l 257
 532.61 242 l 257
 376.61 242 l 257
206.61 -226 m 257
 163.61 -346 l 257
 609.61 -346 l 257
 652.61 -226 l 257
 206.61 -226 l 257
605.61 62 m 257
 470.61 -310 l 257
 622.61 -310 l 257
 757.61 62 l 257
 605.61 62 l 257
311.61 62 m 257
 254.61 -94 l 257
 700.61 -94 l 257
 757.61 62 l 257
 311.61 62 l 257
EndSplineSet
EndChar

StartChar: cent
Encoding: 162 162 339
GlifName: cent
Width: 1024
VWidth: 0
GlyphClass: 2
Flags: W
LayerCount: 2
Fore
SplineSet
1121.49 1183 m 257
 974.49 1183 l 257
 513.49 -86 l 257
 660.49 -86 l 257
 1121.49 1183 l 257
536.49 1023 m 257
 464.49 826 l 257
 1160.49 826 l 257
 1232.49 1023 l 257
 536.49 1023 l 257
524.49 984 m 257
 166.49 0 l 257
 368.49 0 l 257
 726.49 984 l 257
 524.49 984 l 257
345.49 201 m 257
 272.49 0 l 257
 854.49 0 l 257
 927.49 201 l 257
 345.49 201 l 257
EndSplineSet
EndChar

StartChar: uni0447
Encoding: 1095 1095 340
GlifName: che-cy
Width: 1024
VWidth: 0
Flags: W
LayerCount: 2
Fore
SplineSet
1085 1024 m 257
 686 -1 l 257
 886 -1 l 257
 1285 1024 l 257
 1085 1024 l 257
489 1024 m 257
 135 286 l 257
 335 286 l 257
 689 1024 l 257
 489 1024 l 257
394 486 m 257
 335 285 l 257
 945 402 l 257
 1005 603 l 257
 394 486 l 257
EndSplineSet
EndChar

StartChar: chi
Encoding: 967 967 341
GlifName: chi
Width: 1024
VWidth: 0
GlyphClass: 2
Flags: W
LayerCount: 2
Fore
SplineSet
87 -245 m 257
 283 -245 l 257
 1392 1023 l 257
 1199 1023 l 257
 87 -245 l 257
552 1023 m 257
 744 -245 l 257
 938 -245 l 257
 748 1023 l 257
 552 1023 l 257
473 1023 m 257
 399 821 l 257
 673 821 l 257
 747 1023 l 257
 473 1023 l 257
819 -43 m 257
 745 -245 l 257
 1015 -245 l 257
 1089 -43 l 257
 819 -43 l 257
EndSplineSet
EndChar

StartChar: circumflex
Encoding: 710 710 343
GlifName: circumflex
Width: 1024
VWidth: 0
GlyphClass: 2
Flags: W
LayerCount: 2
Fore
SplineSet
633 1330 m 257
 573 1330 l 257
 377 1083 l 257
 428 1058 l 257
 633 1330 l 257
557 1282 m 257
 579 1058 l 257
 647 1080 l 257
 633 1330 l 257
 557 1282 l 257
EndSplineSet
EndChar

StartChar: colon
Encoding: 58 58 353
GlifName: colon
Width: 1024
VWidth: 0
GlyphClass: 2
Flags: W
LayerCount: 2
Fore
SplineSet
275 430 m 257
 192 201 l 257
 440 201 l 257
 523 430 l 257
 275 430 l 257
566 1294 m 257
 476 1047 l 257
 742 1047 l 257
 832 1294 l 257
 566 1294 l 257
EndSplineSet
EndChar

StartChar: colonmonetary
Encoding: 8353 8353 355
GlifName: colonmonetary
Width: 1024
VWidth: 0
GlyphClass: 2
Flags: W
LayerCount: 2
Fore
SplineSet
1317 1483 m 257
 209 6 l 257
 277 -67 l 257
 1384 1410 l 257
 1317 1483 l 257
1146 1606 m 257
 38 129 l 257
 117 56 l 257
 1225 1533 l 257
 1146 1606 l 257
630 1537 m 257
 71 0 l 257
 271 0 l 257
 830 1537 l 257
 630 1537 l 257
729 1537 m 257
 657 1338 l 257
 1440 1338 l 257
 1512 1537 l 257
 729 1537 l 257
228 199 m 257
 156 0 l 257
 951 0 l 257
 1023 199 l 257
 228 199 l 257
EndSplineSet
EndChar

StartChar: comma
Encoding: 44 44 356
GlifName: comma
Width: 1024
VWidth: 0
GlyphClass: 2
Flags: W
LayerCount: 2
Fore
SplineSet
468 237 m 257
 384 8 l 257
 632 8 l 257
 716 237 l 257
 468 237 l 257
529 135 m 257
 308 -146 l 257
 430 -206 l 257
 627 0 l 257
 529 135 l 257
EndSplineSet
EndChar

StartChar: uni0315
Encoding: 789 789 358
GlifName: commaaboverightcomb
Width: 0
VWidth: 0
GlyphClass: 4
Flags: W
AnchorPoint: "top" -283 1018 mark 0
LayerCount: 2
Fore
SplineSet
-7 1201 m 257
 -91 972 l 257
 157 972 l 257
 241 1201 l 257
 -7 1201 l 257
-19 1015 m 257
 -159 776 l 257
 7 692 l 257
 156 972 l 257
 -19 1015 l 257
EndSplineSet
EndChar

StartChar: uni0314
Encoding: 788 788 359
GlifName: commareversedabovecomb
Width: 0
VWidth: 0
GlyphClass: 4
Flags: W
AnchorPoint: "top" -116.803 949 mark 0
LayerCount: 2
Fore
SplineSet
295.551 1444 m 257
 47.5509 1444 l 257
 -60.603 1215 l 257
 187.397 1215 l 257
 295.551 1444 l 257
151.478 1258 m 257
 -59.603 1215 l 257
 -145.551 935 l 257
 90.9335 1019 l 257
 151.478 1258 l 257
EndSplineSet
EndChar

StartChar: copyright
Encoding: 169 169 361
GlifName: copyright
Width: 1024
VWidth: 0
GlyphClass: 2
Flags: W
LayerCount: 2
Fore
SplineSet
570.711 1537 m 257
 11.7109 0 l 257
 212.711 0 l 257
 771.711 1537 l 257
 570.711 1537 l 257
1368.71 1537 m 257
 809.711 0 l 257
 1012.71 0 l 257
 1571.71 1537 l 257
 1368.71 1537 l 257
680.711 1537 m 257
 607.711 1337 l 257
 1298.71 1337 l 257
 1371.71 1537 l 257
 680.711 1537 l 257
219.711 204 m 257
 145.711 0 l 257
 818.711 0 l 257
 892.711 204 l 257
 219.711 204 l 257
692.711 1197 m 257
 619.711 996 l 257
 1054.71 996 l 257
 1127.71 1197 l 257
 692.711 1197 l 257
678.711 1154 m 257
 382.711 340 l 257
 551.711 340 l 257
 847.711 1154 l 257
 678.711 1154 l 257
438.711 495 m 257
 365.711 294 l 257
 805.711 294 l 257
 878.711 495 l 257
 438.711 495 l 257
EndSplineSet
EndChar

StartChar: currency
Encoding: 164 164 362
GlifName: currency
Width: 1024
VWidth: 0
GlyphClass: 2
Flags: W
LayerCount: 2
Fore
SplineSet
547.543 1202 m 257
 175.543 180 l 257
 375.543 180 l 257
 747.543 1202 l 257
 547.543 1202 l 257
1162.54 1204 m 257
 790.543 180 l 257
 992.543 180 l 257
 1364.54 1204 l 257
 1162.54 1204 l 257
670.543 1204 m 257
 597.543 1002 l 257
 1183.54 1002 l 257
 1256.54 1204 l 257
 670.543 1204 l 257
374.543 380 m 257
 302.543 181 l 257
 874.543 181 l 257
 946.543 380 l 257
 374.543 380 l 257
524.543 1356 m 257
 434.543 1109 l 257
 702.543 1109 l 257
 792.543 1356 l 257
 524.543 1356 l 257
1213.54 1331 m 257
 1123.54 1084 l 257
 1387.54 1084 l 257
 1477.54 1331 l 257
 1213.54 1331 l 257
173.543 366 m 257
 83.543 119 l 257
 347.543 119 l 257
 437.543 366 l 257
 173.543 366 l 257
845.543 371 m 257
 755.543 124 l 257
 1019.54 124 l 257
 1109.54 371 l 257
 845.543 371 l 257
EndSplineSet
EndChar

StartChar: d
Encoding: 100 100 363
GlifName: d
Width: 1024
VWidth: 0
GlyphClass: 2
Flags: W
AnchorPoint: "base" 575.671 -63 basechar 0
AnchorPoint: "top" 1309.67 1632 basechar 0
LayerCount: 2
Fore
SplineSet
1246.67 1527 m 257
 691.671 0 l 257
 892.671 0 l 257
 1447.67 1527 l 257
 1246.67 1527 l 257
599.671 1023 m 257
 526.671 822 l 257
 1079.67 822 l 257
 1152.67 1023 l 257
 599.671 1023 l 257
503.671 1023 m 257
 131.671 0 l 257
 332.671 0 l 257
 704.671 1023 l 257
 503.671 1023 l 257
298.671 195 m 257
 227.671 0 l 257
 844.671 0 l 257
 915.671 195 l 257
 298.671 195 l 257
EndSplineSet
EndChar

StartChar: dagger
Encoding: 8224 8224 364
GlifName: dagger
Width: 1024
VWidth: 0
GlyphClass: 2
Flags: W
LayerCount: 2
Fore
SplineSet
325 1251 m 257
 265 1086 l 257
 871 1086 l 257
 931 1251 l 257
 325 1251 l 257
657 1548 m 257
 93 0 l 257
 238 0 l 257
 802 1548 l 257
 657 1548 l 257
EndSplineSet
EndChar

StartChar: daggerdbl
Encoding: 8225 8225 365
GlifName: daggerdbl
Width: 1024
VWidth: 0
GlyphClass: 2
Flags: W
LayerCount: 2
Fore
SplineSet
210 937 m 257
 150 772 l 257
 756 772 l 257
 816 937 l 257
 210 937 l 257
325 1251 m 257
 265 1086 l 257
 871 1086 l 257
 931 1251 l 257
 325 1251 l 257
657 1548 m 257
 93 0 l 257
 238 0 l 257
 802 1548 l 257
 657 1548 l 257
EndSplineSet
EndChar

StartChar: dcaron
Encoding: 271 271 368
GlifName: dcaron
Width: 1024
VWidth: 0
GlyphClass: 2
Flags: W
AnchorPoint: "base" 508 -97 basechar 0
LayerCount: 2
Fore
SplineSet
1169 1527 m 257
 613 0 l 257
 814 0 l 257
 1370 1527 l 257
 1169 1527 l 257
521 1023 m 257
 448 822 l 257
 1001 822 l 257
 1074 1023 l 257
 521 1023 l 257
425 1023 m 257
 53 0 l 257
 254 0 l 257
 626 1023 l 257
 425 1023 l 257
220 195 m 257
 149 0 l 257
 766 0 l 257
 837 195 l 257
 220 195 l 257
1404 1496 m 257
 1320 1264 l 257
 1450 1264 l 257
 1534 1496 l 257
 1404 1496 l 257
EndSplineSet
EndChar

StartChar: dcroat
Encoding: 273 273 370
GlifName: dcroat
Width: 1024
VWidth: 0
GlyphClass: 2
Flags: W
AnchorPoint: "top" 1338 1627 basechar 0
AnchorPoint: "base" 522 -86 basechar 0
LayerCount: 2
Fore
SplineSet
1248 1527 m 257
 692 0 l 257
 893 0 l 257
 1449 1527 l 257
 1248 1527 l 257
600 1023 m 257
 527 822 l 257
 1080 822 l 257
 1153 1023 l 257
 600 1023 l 257
504 1023 m 257
 132 0 l 257
 333 0 l 257
 705 1023 l 257
 504 1023 l 257
299 195 m 257
 228 0 l 257
 845 0 l 257
 916 195 l 257
 299 195 l 257
1066 1403 m 257
 992 1202 l 257
 1436 1202 l 257
 1510 1403 l 257
 1066 1403 l 257
EndSplineSet
EndChar

StartChar: uni0221
Encoding: 545 545 371
GlifName: dcurl
Width: 1024
VWidth: 0
GlyphClass: 2
Flags: W
AnchorPoint: "base" 575.671 -63 basechar 0
AnchorPoint: "top" 1309.67 1632 basechar 0
LayerCount: 2
Fore
SplineSet
931 1543 m 257
 376 16 l 257
 577 16 l 257
 1132 1543 l 257
 931 1543 l 257
452 1023 m 257
 401 822 l 257
 793 822 l 257
 845 1023 l 257
 452 1023 l 257
378 1023 m 257
 6 0 l 257
 207 0 l 257
 579 1023 l 257
 378 1023 l 257
198 195 m 257
 102 0 l 257
 936 0 l 257
 1032 195 l 257
 198 195 l 257
517 -144 m 257
 633 -138 l 257
 924 297 l 257
 1035 549 l 257
 517 -144 l 257
1036 549 m 257
 792 4 l 257
 997 -1 l 257
 1229 555 l 257
 1036 549 l 257
EndSplineSet
EndChar

StartChar: uni0434
Encoding: 1076 1076 372
GlifName: de-cy
Width: 1024
VWidth: 0
Flags: W
LayerCount: 2
Fore
SplineSet
92 203 m 257
 19 3 l 257
 993 3 l 257
 1066 203 l 257
 92 203 l 257
76 159 m 257
 -127 -405 l 257
 73 -405 l 257
 276 159 l 257
 76 159 l 257
850 159 m 257
 642 -412 l 257
 842 -412 l 257
 1050 159 l 257
 850 159 l 257
1227 916 m 257
 752 132 l 257
 952 132 l 257
 1427 916 l 257
 1227 916 l 257
988 1018 m 257
 915 818 l 257
 1391 818 l 257
 1464 1018 l 257
 988 1018 l 257
968 1019 m 257
 174 185 l 257
 374 185 l 257
 1168 1019 l 257
 968 1019 l 257
EndSplineSet
EndChar

StartChar: degree
Encoding: 176 176 373
GlifName: degree
Width: 1024
VWidth: 0
GlyphClass: 2
Flags: W
LayerCount: 2
Fore
SplineSet
967.01 1456 m 257
 1115.01 1456 l 257
 1068.01 1326 l 257
 920.01 1326 l 257
 967.01 1456 l 257
895.01 1548 m 257
 783.01 1238 l 257
 1143.01 1238 l 257
 1255.01 1548 l 257
 895.01 1548 l 257
EndSplineSet
EndChar

StartChar: delta
Encoding: 948 948 374
GlifName: delta
Width: 1024
VWidth: 0
GlyphClass: 2
Flags: W
LayerCount: 2
Fore
SplineSet
804 1548 m 257
 692 0 l 257
 893 0 l 257
 1005 1548 l 257
 804 1548 l 257
600 1023 m 257
 527 822 l 257
 868 822 l 257
 941 1023 l 257
 600 1023 l 257
504 1023 m 257
 132 0 l 257
 333 0 l 257
 705 1023 l 257
 504 1023 l 257
299 195 m 257
 228 0 l 257
 845 0 l 257
 916 195 l 257
 299 195 l 257
917 1548 m 257
 849 1361 l 257
 1381 1361 l 257
 1449 1548 l 257
 917 1548 l 257
EndSplineSet
EndChar

StartChar: divide
Encoding: 247 247 379
GlifName: divide
Width: 1024
VWidth: 0
GlyphClass: 2
Flags: W
LayerCount: 2
Fore
SplineSet
557 430 m 257
 473 201 l 257
 721 201 l 257
 805 430 l 257
 557 430 l 257
847 1294 m 257
 757 1047 l 257
 1023 1047 l 257
 1113 1294 l 257
 847 1294 l 257
393 808 m 257
 317 600 l 257
 1143 600 l 257
 1219 808 l 257
 393 808 l 257
EndSplineSet
EndChar

StartChar: uni2215
Encoding: 8725 8725 380
GlifName: divisionslash
Width: 1024
VWidth: 0
GlyphClass: 2
Flags: W
LayerCount: 2
Fore
SplineSet
985 1483 m 257
 -123 6 l 257
 39 -67 l 257
 1147 1410 l 257
 985 1483 l 257
EndSplineSet
EndChar

StartChar: uni0452
Encoding: 1106 1106 381
GlifName: dje-cy
Width: 1024
VWidth: 0
Flags: W
LayerCount: 2
Fore
SplineSet
586 1369 m 257
 513 1169 l 257
 1301 1169 l 257
 1374 1369 l 257
 586 1369 l 257
769 1544 m 257
 207 -1 l 257
 407 -1 l 257
 969 1544 l 257
 769 1544 l 257
652 994 m 257
 579 794 l 257
 1192 794 l 257
 1265 994 l 257
 652 994 l 257
1063 989 m 257
 537 -406 l 257
 737 -406 l 257
 1263 989 l 257
 1063 989 l 257
473 -243 m 257
 400 -443 l 257
 723 -443 l 257
 796 -243 l 257
 473 -243 l 257
EndSplineSet
EndChar

StartChar: dollar
Encoding: 36 36 383
GlifName: dollar
Width: 1024
VWidth: 0
GlyphClass: 2
Flags: W
LayerCount: 2
Fore
SplineSet
479 1537 m 257
 414 1358 l 257
 1012 1358 l 257
 1077 1537 l 257
 479 1537 l 257
481 1542 m 257
 293 1028 l 257
 498 1028 l 257
 686 1542 l 257
 481 1542 l 257
7 163 m 257
 -53 0 l 257
 655 0 l 257
 715 163 l 257
 7 163 l 257
485 0 m 257
 691 0 l 257
 820 355 l 257
 614 355 l 257
 485 0 l 257
293 1028 m 257
 614 355 l 257
 820 355 l 257
 498 1028 l 257
 293 1028 l 257
774 1636 m 257
 100 -215 l 257
 314 -215 l 257
 988 1636 l 257
 774 1636 l 257
EndSplineSet
EndChar

StartChar: dong
Encoding: 8363 8363 384
GlifName: dong
Width: 1024
VWidth: 0
GlyphClass: 2
Flags: W
LayerCount: 2
Fore
SplineSet
235 18 m 257
 164 -177 l 257
 781 -177 l 257
 852 18 l 257
 235 18 l 257
1248 1527 m 257
 728 98 l 257
 929 98 l 257
 1449 1527 l 257
 1248 1527 l 257
600 1023 m 257
 527 822 l 257
 1080 822 l 257
 1153 1023 l 257
 600 1023 l 257
504 1023 m 257
 168 98 l 257
 369 98 l 257
 705 1023 l 257
 504 1023 l 257
335 293 m 257
 264 98 l 257
 881 98 l 257
 952 293 l 257
 335 293 l 257
1066 1403 m 257
 992 1202 l 257
 1436 1202 l 257
 1510 1403 l 257
 1066 1403 l 257
EndSplineSet
EndChar

StartChar: dotaccent
Encoding: 729 729 385
GlifName: dotaccent
Width: 1024
VWidth: 0
GlyphClass: 2
Flags: W
LayerCount: 2
Fore
SplineSet
455 1053 m 257
 401 902 l 257
 569 902 l 257
 623 1053 l 257
 455 1053 l 257
EndSplineSet
EndChar

StartChar: dotbelowcomb
Encoding: 803 803 386
GlifName: dotbelowcomb
Width: 0
VWidth: 0
GlyphClass: 4
Flags: W
AnchorPoint: "base" -70 -191 mark 0
LayerCount: 2
Fore
SplineSet
-206 -204 m 257
 -296 -451 l 257
 -32 -451 l 257
 58 -204 l 257
 -206 -204 l 257
EndSplineSet
EndChar

StartChar: dotlessi
Encoding: 305 305 387
GlifName: dotlessi
Width: 1024
VWidth: 0
GlyphClass: 2
Flags: W
AnchorPoint: "top" 925 1191 basechar 0
AnchorPoint: "base" 1179 -9 basechar 0
LayerCount: 2
Fore
SplineSet
782 1018 m 257
 462 139 l 257
 664 139 l 257
 984 1018 l 257
 782 1018 l 257
215 204 m 257
 143 6 l 257
 885 6 l 257
 957 204 l 257
 215 204 l 257
562 1018 m 257
 489 818 l 257
 865 818 l 257
 938 1018 l 257
 562 1018 l 257
EndSplineSet
EndChar

StartChar: uni035F
Encoding: 863 863 389
GlifName: doublemacronbelowcomb
Width: 0
VWidth: 0
GlyphClass: 4
Flags: W
AnchorPoint: "base" 4 -163 mark 0
LayerCount: 2
Fore
SplineSet
-512 -170 m 257
 -540 -248 l 257
 352 -248 l 257
 380 -170 l 257
 -512 -170 l 257
EndSplineSet
EndChar

StartChar: arrowdown
Encoding: 8595 8595 390
GlifName: downA_rrow
Width: 1024
VWidth: 0
GlyphClass: 2
Flags: W
LayerCount: 2
Fore
SplineSet
534 451 m 257
 745 374 l 257
 745 1118 l 257
 534 1195 l 257
 534 451 l 257
313 667 m 257
 645 322 l 257
 645 564 l 257
 313 909 l 257
 313 667 l 257
645 322 m 257
 978 444 l 257
 978 686 l 257
 645 565 l 257
 645 322 l 257
EndSplineSet
EndChar

StartChar: uni25BE
Encoding: 9662 9662 391
GlifName: downB_lackS_mallT_riangle
Width: 1024
VWidth: 0
GlyphClass: 2
Flags: W
LayerCount: 2
Fore
SplineSet
509 470 m 257
 758 884 l 257
 264 886 l 257
 509 470 l 257
EndSplineSet
EndChar

StartChar: triagdn
Encoding: 9660 9660 392
GlifName: downB_lackT_riangle
Width: 1024
VWidth: 0
GlyphClass: 2
Flags: W
LayerCount: 2
Fore
SplineSet
507 332 m 257
 923 1021 l 257
 99 1024 l 257
 507 332 l 257
EndSplineSet
EndChar

StartChar: uni25BF
Encoding: 9663 9663 393
GlifName: downW_hiteS_mallT_riangle
Width: 1024
VWidth: 0
GlyphClass: 2
Flags: W
LayerCount: 2
Fore
SplineSet
509 470 m 257
 758 884 l 257
 264 886 l 257
 509 470 l 257
515 525 m 257
 318 857 l 257
 714 856 l 257
 515 525 l 257
EndSplineSet
EndChar

StartChar: uni25BD
Encoding: 9661 9661 394
GlifName: downW_hiteT_riangle
Width: 1024
VWidth: 0
GlyphClass: 2
Flags: W
LayerCount: 2
Fore
SplineSet
508 353 m 257
 895 1001 l 257
 124 1003 l 257
 508 353 l 257
508 419 m 257
 198 963 l 257
 814 964 l 257
 508 419 l 257
EndSplineSet
EndChar

StartChar: uni045F
Encoding: 1119 1119 397
GlifName: dzhe-cy
Width: 1024
VWidth: 0
Flags: W
LayerCount: 2
Fore
SplineSet
589 942 m 257
 62 18 l 257
 262 18 l 257
 789 942 l 257
 589 942 l 257
1290 946 m 257
 756 3 l 257
 956 3 l 257
 1490 946 l 257
 1290 946 l 257
128 200 m 257
 55 0 l 257
 955 0 l 257
 1028 200 l 257
 128 200 l 257
434 79 m 257
 258 -405 l 257
 458 -405 l 257
 634 79 l 257
 434 79 l 257
EndSplineSet
EndChar

StartChar: e
Encoding: 101 101 398
GlifName: e
Width: 1024
VWidth: 0
GlyphClass: 2
Flags: W
AnchorPoint: "top" 916.171 1156 basechar 0
AnchorPoint: "base" 515.171 -75 basechar 0
LayerCount: 2
Fore
SplineSet
592.171 1023 m 257
 515.171 812 l 257
 1150.17 812 l 257
 1227.17 1023 l 257
 592.171 1023 l 257
542.171 1023 m 257
 169.171 0 l 257
 371.171 0 l 257
 744.171 1023 l 257
 542.171 1023 l 257
344.171 201 m 257
 271.171 0 l 257
 853.171 0 l 257
 926.171 201 l 257
 344.171 201 l 257
467.171 625 m 257
 402.171 446 l 257
 992.171 446 l 257
 1057.17 625 l 257
 467.171 625 l 257
1019.17 993 m 257
 819.171 445 l 257
 1014.17 445 l 257
 1214.17 993 l 257
 1019.17 993 l 257
EndSplineSet
EndChar

StartChar: uni0454
Encoding: 1108 1108 399
GlifName: e-cy
Width: 1024
VWidth: 0
Flags: W
LayerCount: 2
Fore
SplineSet
880 1018 m 257
 807 818 l 257
 1298 818 l 257
 1371 1018 l 257
 880 1018 l 257
534 598 m 257
 461 398 l 257
 1126 398 l 257
 1199 598 l 257
 534 598 l 257
492 201 m 257
 419 1 l 257
 933 1 l 257
 1006 201 l 257
 492 201 l 257
880 1017 m 257
 333 506 l 257
 533 506 l 257
 1080 1017 l 257
 880 1017 l 257
335 506 m 257
 419 0 l 257
 619 0 l 257
 535 506 l 257
 335 506 l 257
EndSplineSet
EndChar

StartChar: uni0444
Encoding: 1092 1092 409
GlifName: ef-cy
Width: 1024
VWidth: 0
Flags: W
LayerCount: 2
Fore
SplineSet
882 1541 m 257
 326 -430 l 257
 525 -430 l 257
 1081 1541 l 257
 882 1541 l 257
466 1015 m 257
 131 0 l 257
 332 0 l 257
 667 1015 l 257
 466 1015 l 257
1063 1015 m 257
 728 0 l 257
 931 0 l 257
 1266 1015 l 257
 1063 1015 l 257
530 1015 m 257
 457 815 l 257
 1100 815 l 257
 1173 1015 l 257
 530 1015 l 257
245 204 m 257
 171 0 l 257
 844 0 l 257
 918 204 l 257
 245 204 l 257
EndSplineSet
EndChar

StartChar: eight
Encoding: 56 56 411
GlifName: eight
Width: 1024
VWidth: 0
GlyphClass: 2
Flags: W
LayerCount: 2
Fore
SplineSet
337 1548 m 257
 -226 0 l 257
 687 0 l 257
 1250 1548 l 257
 337 1548 l 257
761 759 m 257
 556 197 l 257
 49 197 l 257
 254 759 l 257
 761 759 l 257
835 959 m 257
 327 959 l 257
 469 1350 l 257
 977 1350 l 257
 835 959 l 257
EndSplineSet
Substitution2: "supsSuperscriptinLatinlookup16 subtable" uni2078
EndChar

StartChar: uni043B
Encoding: 1083 1083 412
GlifName: el-cy
Width: 1024
VWidth: 0
Flags: W
LayerCount: 2
Fore
SplineSet
1173 1021 m 257
 812 1 l 257
 1012 1 l 257
 1373 1021 l 257
 1173 1021 l 257
767 1021 m 257
 659 817 l 257
 1253 817 l 257
 1361 1021 l 257
 767 1021 l 257
757 1021 m 257
 214 0 l 257
 414 0 l 257
 957 1021 l 257
 757 1021 l 257
106 201 m 257
 33 1 l 257
 414 1 l 257
 487 201 l 257
 106 201 l 257
EndSplineSet
EndChar

StartChar: ellipsis
Encoding: 8230 8230 413
GlifName: ellipsis
Width: 1024
VWidth: 0
GlyphClass: 2
Flags: W
LayerCount: 2
Fore
SplineSet
201 114 m 257
 159 0 l 257
 301 0 l 257
 343 114 l 257
 201 114 l 257
457 114 m 257
 415 0 l 257
 559 0 l 257
 601 114 l 257
 457 114 l 257
723 114 m 257
 681 0 l 257
 823 0 l 257
 865 114 l 257
 723 114 l 257
EndSplineSet
EndChar

StartChar: uni043C
Encoding: 1084 1084 414
GlifName: em-cy
Width: 1024
VWidth: 0
Flags: W
AnchorPoint: "base" 567.713 -67 basechar 0
AnchorPoint: "top" 1093.71 1620 basechar 0
LayerCount: 2
Fore
SplineSet
492 1009 m 257
 100.713 0 l 257
 303.713 0 l 257
 695 1009 l 257
 492 1009 l 257
1109 1009 m 257
 721.713 0 l 257
 923.713 0 l 257
 1311 1009 l 257
 1109 1009 l 257
486 890 m 257
 595 296 l 257
 783 296 l 257
 671 1009 l 257
 486 890 l 257
1136 1009 m 257
 591 288 l 257
 778 288 l 257
 1284 949 l 257
 1136 1009 l 257
EndSplineSet
EndChar

StartChar: emdash
Encoding: 8212 8212 416
GlifName: emdash
Width: 1024
VWidth: 0
GlyphClass: 2
Flags: W
LayerCount: 2
Fore
SplineSet
-38 600 m 257
 986 600 l 257
 1062 808 l 257
 38 808 l 257
 -38 600 l 257
EndSplineSet
EndChar

StartChar: uni043D
Encoding: 1085 1085 419
GlifName: en-cy
Width: 1024
VWidth: 0
Flags: W
AnchorPoint: "top" 1099.71 1642 basechar 0
AnchorPoint: "base" 487.711 -46 basechar 0
LayerCount: 2
Fore
SplineSet
522 1019 m 257
 113.711 0 l 257
 313.711 0 l 257
 722 1019 l 257
 522 1019 l 257
1108 1019 m 257
 699.711 0 l 257
 909.711 0 l 257
 1318 1019 l 257
 1108 1019 l 257
474 646 m 257
 399 441 l 257
 945 441 l 257
 1020 646 l 257
 474 646 l 257
EndSplineSet
EndChar

StartChar: endash
Encoding: 8211 8211 420
GlifName: endash
Width: 1024
VWidth: 0
GlyphClass: 2
Flags: W
LayerCount: 2
Fore
SplineSet
317 600 m 257
 1143 600 l 257
 1219 808 l 257
 393 808 l 257
 317 600 l 257
EndSplineSet
EndChar

StartChar: eng
Encoding: 331 331 421
GlifName: eng
Width: 1024
VWidth: 0
GlyphClass: 2
Flags: W
AnchorPoint: "top" 800 1119 basechar 0
AnchorPoint: "base" 304 -441 basechar 0
LayerCount: 2
Fore
SplineSet
267 -211 m 257
 196 -406 l 257
 583 -406 l 257
 654 -211 l 257
 267 -211 l 257
492 990 m 257
 132 0 l 257
 333 0 l 257
 693 990 l 257
 492 990 l 257
886 976 m 257
 383 -406 l 257
 584 -406 l 257
 1087 976 l 257
 886 976 l 257
325 1023 m 257
 253 826 l 257
 1031 826 l 257
 1103 1023 l 257
 325 1023 l 257
EndSplineSet
EndChar

StartChar: uni025B
Encoding: 603 603 423
GlifName: eopen
Width: 1024
VWidth: 0
GlyphClass: 2
Flags: W
AnchorPoint: "top" 989 1225 basechar 0
AnchorPoint: "base" 515.171 -75 basechar 0
LayerCount: 2
Fore
SplineSet
518 1140 m 257
 421 669 l 257
 621 668 l 257
 718 1139 l 257
 518 1140 l 257
596 1139 m 257
 521 935 l 257
 1240 935 l 257
 1315 1139 l 257
 596 1139 l 257
244 203 m 257
 170 0 l 257
 916 0 l 257
 990 203 l 257
 244 203 l 257
601 670 m 257
 528 470 l 257
 840 470 l 257
 913 670 l 257
 601 670 l 257
357 473 m 257
 97 2 l 257
 296 1 l 257
 557 472 l 257
 357 473 l 257
EndSplineSet
EndChar

StartChar: epsilon
Encoding: 949 949 424
GlifName: epsilon
Width: 1024
VWidth: 0
GlyphClass: 2
Flags: W
LayerCount: 2
Fore
SplineSet
518 1140 m 257
 339 669 l 257
 539 668 l 257
 718 1139 l 257
 518 1140 l 257
596 1139 m 257
 521 935 l 257
 1240 935 l 257
 1315 1139 l 257
 596 1139 l 257
244 203 m 257
 170 0 l 257
 916 0 l 257
 990 203 l 257
 244 203 l 257
414 670 m 257
 341 470 l 257
 840 470 l 257
 913 670 l 257
 414 670 l 257
275 473 m 257
 97 2 l 257
 296 1 l 257
 475 472 l 257
 275 473 l 257
EndSplineSet
EndChar

StartChar: equal
Encoding: 61 61 426
GlifName: equal
Width: 1024
VWidth: 0
GlyphClass: 2
Flags: W
LayerCount: 2
Fore
SplineSet
374 914 m 257
 304 724 l 257
 1120 724 l 257
 1190 914 l 257
 374 914 l 257
238 540 m 257
 168 350 l 257
 984 350 l 257
 1054 540 l 257
 238 540 l 257
EndSplineSet
EndChar

StartChar: uni044D
Encoding: 1101 1101 427
GlifName: ereversed-cy
Width: 1024
VWidth: 0
Flags: W
LayerCount: 2
Fore
SplineSet
970 1024 m 257
 479 1024 l 257
 406 824 l 257
 897 824 l 257
 970 1024 l 257
955 631 m 257
 310 632 l 257
 237 432 l 257
 902 432 l 257
 955 631 l 257
608 201 m 257
 94 201 l 257
 21 1 l 257
 535 1 l 257
 608 201 l 257
969 1023 m 257
 769 1023 l 257
 909 540 l 257
 1109 540 l 257
 969 1023 l 257
1107 540 m 257
 907 540 l 257
 334 0 l 257
 534 0 l 257
 1107 540 l 257
EndSplineSet
EndChar

StartChar: uni0283
Encoding: 643 643 428
GlifName: esh
Width: 1024
VWidth: 0
GlyphClass: 2
Flags: W
LayerCount: 2
Fore
SplineSet
534 1641 m 257
 311 -399 l 257
 504 -399 l 257
 727 1641 l 257
 534 1641 l 257
131 -198 m 257
 131 -399 l 257
 469 -399 l 257
 469 -198 l 257
 131 -198 l 257
589 1641 m 257
 589 1442 l 257
 925 1442 l 257
 925 1641 l 257
 589 1641 l 257
EndSplineSet
EndChar

StartChar: uni0285
Encoding: 645 645 429
GlifName: eshsquatreversed
Width: 1024
VWidth: 0
GlyphClass: 2
Flags: W
LayerCount: 2
Fore
SplineSet
387 1001 m 257
 493 -408 l 257
 686 -408 l 257
 580 1001 l 257
 387 1001 l 257
542 -207 m 257
 542 -408 l 257
 940 -408 l 257
 940 -207 l 257
 542 -207 l 257
68 1001 m 257
 68 802 l 257
 449 802 l 257
 449 1001 l 257
 68 1001 l 257
EndSplineSet
EndChar

StartChar: estimated
Encoding: 8494 8494 430
GlifName: estimated
Width: 1024
VWidth: 0
GlyphClass: 2
Flags: W
LayerCount: 2
Fore
SplineSet
171 798 m 257
 171 718 l 257
 917 719 l 257
 917 799 l 257
 171 798 l 257
726 1098 m 257
 732 727 l 257
 916 727 l 257
 910 1098 l 257
 726 1098 l 257
167 1103 m 257
 168 731 l 257
 347 731 l 257
 346 1103 l 257
 167 1103 l 257
168 1175 m 257
 168 1081 l 257
 513 1125 l 257
 513 1219 l 257
 168 1175 l 257
513 1221 m 257
 512 1123 l 257
 910 1081 l 257
 911 1179 l 257
 513 1221 l 257
171 731 m 257
 171 287 l 257
 252 287 l 257
 252 731 l 257
 171 731 l 257
171 342 m 257
 171 248 l 257
 513 183 l 257
 513 277 l 257
 171 342 l 257
512 277 m 257
 512 183 l 257
 911 247 l 257
 911 341 l 257
 512 277 l 257
EndSplineSet
EndChar

StartChar: eta
Encoding: 951 951 431
GlifName: eta
Width: 1024
VWidth: 0
GlyphClass: 2
Flags: W
LayerCount: 2
Fore
SplineSet
493 990 m 257
 132 0 l 257
 333 0 l 257
 694 990 l 257
 493 990 l 257
886 976 m 257
 382 -409 l 257
 583 -409 l 257
 1087 976 l 257
 886 976 l 257
326 1023 m 257
 254 826 l 257
 1032 826 l 257
 1104 1023 l 257
 326 1023 l 257
EndSplineSet
EndChar

StartChar: eth
Encoding: 240 240 433
GlifName: eth
Width: 1024
VWidth: 0
GlyphClass: 2
Flags: W
AnchorPoint: "top" 869 1634 basechar 0
AnchorPoint: "base" 513 -132 basechar 0
LayerCount: 2
Fore
SplineSet
804 1548 m 257
 692 0 l 257
 893 0 l 257
 1005 1548 l 257
 804 1548 l 257
600 1023 m 257
 527 822 l 257
 868 822 l 257
 941 1023 l 257
 600 1023 l 257
504 1023 m 257
 132 0 l 257
 333 0 l 257
 705 1023 l 257
 504 1023 l 257
299 195 m 257
 228 0 l 257
 845 0 l 257
 916 195 l 257
 299 195 l 257
676 1416 m 257
 608 1229 l 257
 1140 1229 l 257
 1208 1416 l 257
 676 1416 l 257
EndSplineSet
EndChar

StartChar: exclam
Encoding: 33 33 436
GlifName: exclam
Width: 1024
VWidth: 0
GlyphClass: 2
Flags: W
LayerCount: 2
Fore
SplineSet
169 17 m 257
 313 17 l 257
 404 265 l 257
 260 265 l 257
 169 17 l 257
356 502 m 257
 484 502 l 257
 855 1520 l 257
 727 1520 l 257
 356 502 l 257
EndSplineSet
EndChar

StartChar: exclamdown
Encoding: 161 161 437
GlifName: exclamdown
Width: 1024
VWidth: 0
GlyphClass: 2
Flags: W
LayerCount: 2
Fore
SplineSet
1137.6 1520 m 257
 993.602 1520 l 257
 902.602 1272 l 257
 1046.6 1272 l 257
 1137.6 1520 l 257
950.602 1035 m 257
 822.602 1035 l 257
 451.602 17 l 257
 579.602 17 l 257
 950.602 1035 l 257
EndSplineSet
EndChar

StartChar: uni0292
Encoding: 658 658 438
GlifName: ezh
Width: 1024
VWidth: 0
GlyphClass: 2
Flags: W
LayerCount: 2
Fore
SplineSet
860 0 m 257
 932 197 l 257
 236 197 l 257
 164 0 l 257
 860 0 l 257
872 39 m 257
 1087 619 l 257
 885 619 l 257
 670 39 l 257
 872 39 l 257
908 418 m 257
 981 619 l 257
 399 619 l 257
 326 418 l 257
 908 418 l 257
585 1274 m 257
 513 1077 l 257
 1341 1077 l 257
 1413 1274 l 257
 585 1274 l 257
1049 1077 m 257
 394 619 l 257
 700 619 l 257
 1341 1077 l 257
 1049 1077 l 257
EndSplineSet
EndChar

StartChar: uni01B9
Encoding: 441 441 440
GlifName: ezhreversed
Width: 1024
VWidth: 0
GlyphClass: 2
Flags: W
LayerCount: 2
Fore
SplineSet
210 0 m 257
 906 0 l 257
 978 197 l 257
 282 197 l 257
 210 0 l 257
226 39 m 257
 428 39 l 257
 635 619 l 257
 433 619 l 257
 226 39 l 257
466 418 m 257
 1048 418 l 257
 1121 619 l 257
 539 619 l 257
 466 418 l 257
1413 1274 m 257
 585 1274 l 257
 513 1077 l 257
 1341 1077 l 257
 1413 1274 l 257
805 1077 m 257
 513 1077 l 257
 820 619 l 257
 1126 619 l 257
 805 1077 l 257
EndSplineSet
EndChar

StartChar: f
Encoding: 102 102 441
GlifName: f
Width: 1024
VWidth: 0
GlyphClass: 2
Flags: W
AnchorPoint: "top" 1182.84 1647 basechar 0
AnchorPoint: "base" 466.84 -88 basechar 0
LayerCount: 2
Fore
SplineSet
874.84 1551 m 257
 351.84 -6 l 257
 551.84 -6 l 257
 1074.84 1551 l 257
 874.84 1551 l 257
936.84 1551 m 257
 866.84 1359 l 257
 1348.84 1359 l 257
 1418.84 1551 l 257
 936.84 1551 l 257
518.84 959 m 257
 444.84 756 l 257
 1075.84 756 l 257
 1149.84 959 l 257
 518.84 959 l 257
EndSplineSet
EndChar

StartChar: five
Encoding: 53 53 445
GlifName: five
Width: 1024
VWidth: 0
GlyphClass: 2
Flags: W
LayerCount: 2
Fore
SplineSet
756 759 m 257
 551 198 l 257
 -162 198 l 257
 -234 0 l 257
 684 0 l 257
 1033 959 l 257
 316 959 l 257
 459 1352 l 257
 1186 1352 l 257
 1258 1548 l 257
 331 1548 l 257
 44 759 l 257
 756 759 l 257
EndSplineSet
Substitution2: "supsSuperscriptinLatinlookup16 subtable" uni2075
EndChar

StartChar: four
Encoding: 52 52 447
GlifName: four
Width: 1024
VWidth: 0
GlyphClass: 2
Flags: W
LayerCount: 2
Fore
SplineSet
-50 761 m 257
 592 761 l 257
 317 7 l 257
 513 7 l 257
 1074 1548 l 257
 875 1548 l 257
 662 961 l 257
 223 961 l 257
 436 1548 l 257
 236 1548 l 257
 -50 761 l 257
EndSplineSet
Substitution2: "supsSuperscriptinLatinlookup16 subtable" uni2074
EndChar

StartChar: franc
Encoding: 8355 8355 448
GlifName: franc
Width: 1024
VWidth: 0
GlyphClass: 2
Flags: W
LayerCount: 2
Fore
SplineSet
206 565 m 257
 132 362 l 257
 681 362 l 257
 755 565 l 257
 206 565 l 257
704 1548 m 257
 141 0 l 257
 341 0 l 257
 904 1548 l 257
 704 1548 l 257
806 1548 m 257
 733 1347 l 257
 1367 1347 l 257
 1440 1548 l 257
 806 1548 l 257
549 875 m 257
 476 672 l 257
 1025 672 l 257
 1098 875 l 257
 549 875 l 257
EndSplineSet
EndChar

StartChar: g
Encoding: 103 103 449
GlifName: g
Width: 1024
VWidth: 0
GlyphClass: 2
Flags: W
AnchorPoint: "top" 869.227 1134 basechar 0
AnchorPoint: "base" 348.227 -467 basechar 0
LayerCount: 2
Fore
SplineSet
598.227 1023 m 257
 226.227 0 l 257
 418.227 0 l 257
 790.227 1023 l 257
 598.227 1023 l 257
638.227 1023 m 257
 566.227 823 l 257
 1082.23 823 l 257
 1154.23 1023 l 257
 638.227 1023 l 257
982.227 1023 m 257
 460.227 -411 l 257
 654.227 -411 l 257
 1176.23 1023 l 257
 982.227 1023 l 257
361.227 198 m 257
 289.227 0 l 257
 746.227 0 l 257
 818.227 198 l 257
 361.227 198 l 257
142.227 -214 m 257
 70.2266 -413 l 257
 605.227 -413 l 257
 677.227 -214 l 257
 142.227 -214 l 257
EndSplineSet
EndChar

StartChar: gamma
Encoding: 947 947 450
GlifName: gamma
Width: 1024
VWidth: 0
GlyphClass: 2
Flags: W
LayerCount: 2
Fore
SplineSet
382 235 m 257
 152 -398 l 257
 354 -398 l 257
 584 235 l 257
 382 235 l 257
419 1026 m 257
 368 197 l 257
 564 197 l 257
 619 1026 l 257
 419 1026 l 257
924 1026 m 257
 369 197 l 257
 568 197 l 257
 1123 1026 l 257
 924 1026 l 257
EndSplineSet
EndChar

StartChar: uni0263
Encoding: 611 611 451
GlifName: gamma_latin
Width: 1024
VWidth: 0
GlyphClass: 2
Flags: W
LayerCount: 2
Fore
SplineSet
740 935 m 257
 630 -158 l 257
 830 -158 l 257
 940 935 l 257
 740 935 l 257
1400 965 m 257
 292 -158 l 257
 491 -158 l 257
 1600 965 l 257
 1400 965 l 257
219 -360 m 257
 757 -361 l 257
 831 -158 l 257
 293 -158 l 257
 219 -360 l 257
EndSplineSet
EndChar

StartChar: uni0433
Encoding: 1075 1075 456
GlifName: ge-cy
Width: 1024
VWidth: 0
Flags: W
LayerCount: 2
Fore
SplineSet
478 1021 m 257
 406 821 l 257
 1180 821 l 257
 1252 1021 l 257
 478 1021 l 257
442 909 m 257
 131.184 6 l 257
 331.184 6 l 257
 642 909 l 257
 442 909 l 257
EndSplineSet
EndChar

StartChar: germandbls
Encoding: 223 223 457
GlifName: germandbls
Width: 1024
VWidth: 0
GlyphClass: 2
Flags: W
LayerCount: 2
Fore
SplineSet
462 1221 m 257
 390 1023 l 257
 641 1023 l 257
 713 1221 l 257
 462 1221 l 257
767 1548 m 257
 204 0 l 257
 410 0 l 257
 973 1548 l 257
 767 1548 l 257
973 1548 m 257
 893 1328 l 257
 1288 1328 l 257
 1368 1548 l 257
 973 1548 l 257
1253 1548 m 257
 1062 1023 l 257
 1261 1023 l 257
 1452 1548 l 257
 1253 1548 l 257
999 848 m 257
 754 175 l 257
 954 175 l 257
 1199 848 l 257
 999 848 l 257
638 251 m 257
 562 40 l 257
 905 40 l 257
 981 251 l 257
 638 251 l 257
1055 1224 m 257
 982 1027 l 257
 1260 1020 l 257
 1334 1223 l 257
 1055 1224 l 257
936 897 m 257
 863 694 l 257
 1143 694 l 257
 1216 897 l 257
 936 897 l 257
959 1222 m 257
 768 695 l 257
 862 696 l 257
 1053 1223 l 257
 959 1222 l 257
EndSplineSet
EndChar

StartChar: uni0491
Encoding: 1169 1169 458
GlifName: geupturn-cy
Width: 1024
VWidth: 0
Flags: W
LayerCount: 2
Fore
SplineSet
688 1023 m 257
 616 823 l 257
 1390 823 l 257
 1462 1023 l 257
 688 1023 l 257
652 911 m 257
 131.184 6 l 257
 331.184 6 l 257
 852 911 l 257
 652 911 l 257
1478 1234 m 257
 1188 828 l 257
 1390 828 l 257
 1680 1234 l 257
 1478 1234 l 257
EndSplineSet
EndChar

StartChar: uni0294
Encoding: 660 660 461
GlifName: glottalstop
Width: 1024
VWidth: 0
GlyphClass: 2
Flags: W
LayerCount: 2
Fore
SplineSet
645 1543 m 257
 573 1343 l 257
 1101 1343 l 257
 1173 1543 l 257
 645 1543 l 257
973 1543 m 257
 786 1028 l 257
 986 1028 l 257
 1173 1543 l 257
 973 1543 l 257
542 1073 m 257
 470 873 l 257
 930 873 l 257
 1002 1073 l 257
 542 1073 l 257
529 1073 m 257
 266 167 l 257
 466 167 l 257
 729 1073 l 257
 529 1073 l 257
EndSplineSet
EndChar

StartChar: uni02C0
Encoding: 704 704 462
GlifName: glottalstopmod
Width: 1024
VWidth: 0
GlyphClass: 2
Flags: W
LayerCount: 2
Fore
SplineSet
645 1543 m 257
 573 1343 l 257
 1101 1343 l 257
 1173 1543 l 257
 645 1543 l 257
973 1543 m 257
 786 1028 l 257
 986 1028 l 257
 1173 1543 l 257
 973 1543 l 257
542 1073 m 257
 470 873 l 257
 930 873 l 257
 1002 1073 l 257
 542 1073 l 257
529 1073 m 257
 347 572 l 257
 547 572 l 257
 729 1073 l 257
 529 1073 l 257
EndSplineSet
EndChar

StartChar: uni0295
Encoding: 661 661 463
GlifName: glottalstopreversed
Width: 1024
VWidth: 0
GlyphClass: 2
Flags: W
LayerCount: 2
Fore
SplineSet
1321 1543 m 257
 793 1543 l 257
 720 1343 l 257
 1248 1343 l 257
 1321 1543 l 257
993 1543 m 257
 793 1543 l 257
 605 1028 l 257
 805 1028 l 257
 993 1543 l 257
1082 1073 m 257
 622 1073 l 257
 549 873 l 257
 1009 873 l 257
 1082 1073 l 257
1095 1073 m 257
 895 1073 l 257
 565 167 l 257
 765 167 l 257
 1095 1073 l 257
EndSplineSet
EndChar

StartChar: grave
Encoding: 96 96 465
GlifName: grave
Width: 1024
VWidth: 0
GlyphClass: 2
Flags: W
LayerCount: 2
Fore
SplineSet
407 1358 m 257
 442 1057 l 257
 617 1129 l 257
 581 1430 l 257
 407 1358 l 257
EndSplineSet
EndChar

StartChar: gravecomb
Encoding: 768 768 466
GlifName: gravecomb
Width: 0
VWidth: 0
GlyphClass: 4
Flags: W
AnchorPoint: "top" 16 885 mark 0
LayerCount: 2
Fore
SplineSet
-123 1178 m 257
 -57 878 l 257
 140 943 l 257
 77 1244 l 257
 -123 1178 l 257
EndSplineSet
EndChar

StartChar: greater
Encoding: 62 62 468
GlifName: greater
Width: 1024
VWidth: 0
GlyphClass: 2
Flags: W
LayerCount: 2
Fore
SplineSet
1041 777 m 257
 305 1013 l 257
 230 807 l 257
 967 568 l 257
 1041 777 l 257
1041 777 m 257
 55 319 l 257
 -17 122 l 257
 967 568 l 257
 1041 777 l 257
EndSplineSet
EndChar

StartChar: greaterequal
Encoding: 8805 8805 469
GlifName: greaterequal
Width: 1024
VWidth: 0
GlyphClass: 2
Flags: W
LayerCount: 2
Fore
SplineSet
-7 -5 m 257
 -62 -157 l 257
 962 -157 l 257
 1017 -5 l 257
 -7 -5 l 257
1205 777 m 257
 469 1013 l 257
 394 807 l 257
 1131 568 l 257
 1205 777 l 257
1205 777 m 257
 218 319 l 257
 146 122 l 257
 1131 568 l 257
 1205 777 l 257
EndSplineSet
EndChar

StartChar: guillemotleft
Encoding: 171 171 472
GlifName: guillemotleft
Width: 1024
VWidth: 0
GlyphClass: 2
Flags: W
LayerCount: 2
Fore
SplineSet
341.506 609 m 257
 285.506 454 l 257
 718.506 631 l 257
 774.506 784 l 257
 341.506 609 l 257
341.506 609 m 257
 285.506 454 l 257
 532.506 122 l 257
 585.506 268 l 257
 341.506 609 l 257
756.506 609 m 257
 700.506 454 l 257
 1133.51 631 l 257
 1189.51 784 l 257
 756.506 609 l 257
756.506 609 m 257
 700.506 454 l 257
 947.506 122 l 257
 1000.51 268 l 257
 756.506 609 l 257
EndSplineSet
EndChar

StartChar: guillemotright
Encoding: 187 187 473
GlifName: guillemotright
Width: 1024
VWidth: 0
GlyphClass: 2
Flags: W
LayerCount: 2
Fore
SplineSet
1125.45 609 m 257
 820.453 784 l 257
 764.453 631 l 257
 1069.45 454 l 257
 1125.45 609 l 257
1125.45 609 m 257
 633.453 268 l 257
 580.453 122 l 257
 1069.45 454 l 257
 1125.45 609 l 257
710.453 609 m 257
 405.453 784 l 257
 349.453 631 l 257
 654.453 454 l 257
 710.453 609 l 257
710.453 609 m 257
 218.453 268 l 257
 165.453 122 l 257
 654.453 454 l 257
 710.453 609 l 257
EndSplineSet
EndChar

StartChar: guilsinglleft
Encoding: 8249 8249 474
GlifName: guilsinglleft
Width: 1024
VWidth: 0
GlyphClass: 2
Flags: W
LayerCount: 2
Fore
SplineSet
98 777 m 257
 22 569 l 257
 927 807 l 257
 1002 1013 l 257
 98 777 l 257
98 777 m 257
 22 569 l 257
 676 122 l 257
 747 319 l 257
 98 777 l 257
EndSplineSet
EndChar

StartChar: guilsinglright
Encoding: 8250 8250 475
GlifName: guilsinglright
Width: 1024
VWidth: 0
GlyphClass: 2
Flags: W
LayerCount: 2
Fore
SplineSet
1041 777 m 257
 305 1013 l 257
 230 807 l 257
 967 568 l 257
 1041 777 l 257
1041 777 m 257
 55 319 l 257
 -17 122 l 257
 967 568 l 257
 1041 777 l 257
EndSplineSet
EndChar

StartChar: h
Encoding: 104 104 476
GlifName: h
Width: 1024
VWidth: 0
GlyphClass: 2
Flags: W
AnchorPoint: "top" 872.211 1636 basechar 0
AnchorPoint: "base" 508.211 -36 basechar 0
LayerCount: 2
Fore
SplineSet
733.211 1537 m 257
 176.211 6 l 257
 376.211 6 l 257
 933.211 1537 l 257
 733.211 1537 l 257
683.211 1023 m 257
 611.211 826 l 257
 1142.21 826 l 257
 1214.21 1023 l 257
 683.211 1023 l 257
1023.21 1023 m 257
 651.211 0 l 257
 850.211 0 l 257
 1222.21 1023 l 257
 1023.21 1023 l 257
EndSplineSet
EndChar

StartChar: uni044A
Encoding: 1098 1098 477
GlifName: hardsign-cy
Width: 1024
VWidth: 0
Flags: W
AnchorPoint: "base" 502.201 -60 basechar 0
AnchorPoint: "top" 820.201 1639 basechar 0
LayerCount: 2
Fore
SplineSet
697 1013 m 257
 240 0 l 257
 412 0 l 257
 896 1013 l 257
 697 1013 l 257
541 584 m 257
 416 385 l 257
 1000 385 l 257
 1072 584 l 257
 541 584 l 257
1012 584 m 257
 764 0 l 257
 963 0 l 257
 1211 584 l 257
 1012 584 l 257
332 207 m 257
 257 0 l 257
 884 0 l 257
 959 207 l 257
 332 207 l 257
485 1017 m 257
 425 818 l 257
 744 818 l 257
 790 1017 l 257
 485 1017 l 257
EndSplineSet
EndChar

StartChar: hbar
Encoding: 295 295 478
GlifName: hbar
Width: 1024
VWidth: 0
GlyphClass: 2
Flags: W
LayerCount: 2
Fore
SplineSet
733 1537 m 257
 176 6 l 257
 376 6 l 257
 933 1537 l 257
 733 1537 l 257
683 1023 m 257
 612 826 l 257
 1143 826 l 257
 1214 1023 l 257
 683 1023 l 257
1023 1023 m 257
 651 0 l 257
 850 0 l 257
 1222 1023 l 257
 1023 1023 l 257
558 1429 m 257
 482 1221 l 257
 938 1221 l 257
 1014 1429 l 257
 558 1429 l 257
EndSplineSet
EndChar

StartChar: hookabovecomb
Encoding: 777 777 483
GlifName: hookabovecomb
Width: 0
VWidth: 0
GlyphClass: 4
Flags: W
AnchorPoint: "top" -8 769 mark 0
LayerCount: 2
Fore
SplineSet
17 1075 m 257
 -14 999 l 257
 206 999 l 257
 237 1075 l 257
 17 1075 l 257
139 1075 m 257
 79 927 l 257
 179 927 l 257
 240 1075 l 257
 139 1075 l 257
3 936 m 257
 -27 865 l 257
 153 865 l 257
 183 936 l 257
 3 936 l 257
3 936 m 257
 -44 823 l 257
 44 823 l 257
 90 936 l 257
 3 936 l 257
EndSplineSet
EndChar

StartChar: uni20B4
Encoding: 8372 8372 485
GlifName: hryvnia
Width: 1024
VWidth: 0
GlyphClass: 2
Flags: W
LayerCount: 2
Fore
SplineSet
1477 1537 m 257
 879 1537 l 257
 806 1336 l 257
 1404 1336 l 257
 1477 1537 l 257
1479 1542 m 257
 1277 1542 l 257
 1090 1028 l 257
 1292 1028 l 257
 1479 1542 l 257
962 199 m 257
 254 199 l 257
 182 0 l 257
 890 0 l 257
 962 199 l 257
347 0 m 257
 476 355 l 257
 275 355 l 257
 146 0 l 257
 347 0 l 257
1292 1028 m 257
 1090 1028 l 257
 275 355 l 257
 476 355 l 257
 1292 1028 l 257
434 921 m 257
 352 695 l 257
 1178 695 l 257
 1260 921 l 257
 434 921 l 257
329 632 m 257
 253 424 l 257
 1079 424 l 257
 1155 632 l 257
 329 632 l 257
EndSplineSet
EndChar

StartChar: hungarumlaut
Encoding: 733 733 489
GlifName: hungarumlaut
Width: 1024
VWidth: 0
GlyphClass: 2
Flags: W
LayerCount: 2
Fore
SplineSet
195 122 m 257
 339 122 l 257
 429 370 l 257
 285 370 l 257
 195 122 l 257
595 122 m 257
 739 122 l 257
 829 370 l 257
 685 370 l 257
 595 122 l 257
EndSplineSet
EndChar

StartChar: hyphen
Encoding: 45 45 490
GlifName: hyphen
Width: 1024
VWidth: 0
GlyphClass: 2
Flags: W
LayerCount: 2
Fore
SplineSet
137 808 m 257
 61 600 l 257
 887 600 l 257
 963 808 l 257
 137 808 l 257
EndSplineSet
EndChar

StartChar: i
Encoding: 105 105 492
GlifName: i
Width: 1024
VWidth: 0
GlyphClass: 2
Flags: W
AnchorPoint: "top" 966.217 1457 basechar 0
AnchorPoint: "base" 481 -78 basechar 0
LayerCount: 2
Fore
SplineSet
781.217 1018 m 257
 461.217 139 l 257
 663.217 139 l 257
 983.217 1018 l 257
 781.217 1018 l 257
215.217 204 m 257
 143.217 6 l 257
 885.217 6 l 257
 957.217 204 l 257
 215.217 204 l 257
845.217 1369 m 257
 772.217 1168 l 257
 970.217 1168 l 257
 1043.22 1369 l 257
 845.217 1369 l 257
561.217 1018 m 257
 488.217 818 l 257
 864.217 818 l 257
 937.217 1018 l 257
 561.217 1018 l 257
EndSplineSet
Substitution2: "Single Substitution lookup 5 subtable" dotlessi
EndChar

StartChar: uni026A
Encoding: 618 618 495
GlifName: icapitalsmall
Width: 1024
VWidth: 0
GlyphClass: 2
Flags: W
AnchorPoint: "top" 1053.22 1645 basechar 0
AnchorPoint: "base" 499.217 -50 basechar 0
LayerCount: 2
Fore
SplineSet
713 1019 m 257
 640 817 l 257
 1341 817 l 257
 1414 1019 l 257
 713 1019 l 257
921 950 m 257
 417.217 84 l 257
 617.217 84 l 257
 1121 950 l 257
 921 950 l 257
208.217 204 m 257
 136.217 6 l 257
 892.217 6 l 257
 964.217 204 l 257
 208.217 204 l 257
EndSplineSet
EndChar

StartChar: uni0438
Encoding: 1080 1080 500
GlifName: ii-cy
Width: 1024
VWidth: 0
Flags: W
LayerCount: 2
Fore
SplineSet
599 1019 m 257
 34 0 l 257
 234 0 l 257
 799 1019 l 257
 599 1019 l 257
1354 1019 m 257
 789 0 l 257
 989 0 l 257
 1554 1019 l 257
 1354 1019 l 257
1354 1019 m 257
 34 0 l 257
 234 0 l 257
 1555 1019 l 257
 1354 1019 l 257
EndSplineSet
EndChar

StartChar: Delta
Encoding: 8710 8710 505
GlifName: increment
Width: 1024
VWidth: 0
GlyphClass: 2
Flags: W
LayerCount: 2
Fore
SplineSet
196.702 197 m 257
 123.908 -3 l 257
 897.908 -3 l 257
 970.702 197 l 257
 196.702 197 l 257
917 0 m 257
 1220.43 1548 l 257
 999.426 1548 l 257
 716 0 l 257
 917 0 l 257
307 0 m 257
 1095.43 1548 l 257
 872.426 1548 l 257
 106 0 l 257
 307 0 l 257
EndSplineSet
EndChar

StartChar: infinity
Encoding: 8734 8734 506
GlifName: infinity
Width: 1024
VWidth: 0
GlyphClass: 2
Flags: W
LayerCount: 2
Fore
SplineSet
400 1023 m 257
 329 826 l 257
 646 823 l 257
 717 1020 l 257
 400 1023 l 257
386 984 m 257
 28 0 l 257
 232 0 l 257
 590 984 l 257
 386 984 l 257
209 201 m 257
 136 0 l 257
 368 2 l 257
 441 203 l 257
 209 201 l 257
661 -3 m 257
 862 65 l 257
 716 1021 l 257
 505 936 l 257
 661 -3 l 257
367 0 m 257
 1179 939 l 257
 1030 1024 l 257
 218 85 l 257
 367 0 l 257
1029 1024 m 257
 957 827 l 257
 1266 827 l 257
 1338 1024 l 257
 1029 1024 l 257
1160 1024 m 257
 792 0 l 257
 996 0 l 257
 1364 1024 l 257
 1160 1024 l 257
738 200 m 257
 666 -1 l 257
 884 4 l 257
 957 205 l 257
 738 200 l 257
EndSplineSet
EndChar

StartChar: integral
Encoding: 8747 8747 507
GlifName: integral
Width: 1024
VWidth: 0
GlyphClass: 2
Flags: W
LayerCount: 2
Fore
SplineSet
534 1641 m 257
 311 -399 l 257
 504 -399 l 257
 727 1641 l 257
 534 1641 l 257
131 -241 m 257
 131 -398 l 257
 469 -398 l 257
 469 -241 l 257
 131 -241 l 257
606 1641 m 257
 606 1507 l 257
 925 1507 l 257
 925 1641 l 257
 606 1641 l 257
EndSplineSet
EndChar

StartChar: iota
Encoding: 953 953 510
GlifName: iota
Width: 1024
VWidth: 0
GlyphClass: 2
Flags: W
LayerCount: 2
Fore
SplineSet
664 1018 m 257
 381 239 l 257
 583 239 l 257
 866 1018 l 257
 664 1018 l 257
404 304 m 257
 332 106 l 257
 792 6 l 257
 864 204 l 257
 404 304 l 257
EndSplineSet
EndChar

StartChar: uni0269
Encoding: 617 617 511
GlifName: iota_latin
Width: 1024
VWidth: 0
GlyphClass: 2
Flags: W
AnchorPoint: "top" 925 1191 basechar 0
LayerCount: 2
Fore
SplineSet
664 1018 m 257
 381 239 l 257
 583 239 l 257
 866 1018 l 257
 664 1018 l 257
404 304 m 257
 332 106 l 257
 792 6 l 257
 864 204 l 257
 404 304 l 257
EndSplineSet
EndChar

StartChar: uni0475
Encoding: 1141 1141 522
GlifName: izhitsa-cy
Width: 1024
VWidth: 0
Flags: W
AnchorPoint: "top" 1092.93 1642 basechar 0
AnchorPoint: "base" 514.926 -82 basechar 0
LayerCount: 2
Fore
SplineSet
414 1024 m 257
 366.926 0 l 257
 587.926 0 l 257
 615 1024 l 257
 414 1024 l 257
1024 1024 m 257
 491.926 0 l 257
 714.926 0 l 257
 1225 1024 l 257
 1024 1024 l 257
955 881 m 257
 1228 873 l 257
 1297 1019 l 257
 1023 1027 l 257
 955 881 l 257
EndSplineSet
EndChar

StartChar: j
Encoding: 106 106 523
GlifName: j
Width: 1024
VWidth: 0
GlyphClass: 2
Flags: W
AnchorPoint: "top" 1250.29 1521 basechar 0
AnchorPoint: "base" 356.285 -455 basechar 0
LayerCount: 2
Fore
SplineSet
1000.29 1023 m 257
 478.285 -411 l 257
 677.285 -411 l 257
 1199.29 1023 l 257
 1000.29 1023 l 257
121.285 -209 m 257
 49.2852 -406 l 257
 579.285 -406 l 257
 651.285 -209 l 257
 121.285 -209 l 257
196.285 -6 m 257
 70.2852 -351 l 257
 270.285 -351 l 257
 396.285 -6 l 257
 196.285 -6 l 257
1134.29 1413 m 257
 1061.29 1214 l 257
 1262.29 1214 l 257
 1335.29 1413 l 257
 1134.29 1413 l 257
EndSplineSet
Substitution2: "Single Substitution lookup 5 subtable" uni0237
EndChar

StartChar: uni029D
Encoding: 669 669 526
GlifName: jcrossedtail
Width: 1024
VWidth: 0
GlyphClass: 2
Flags: W
AnchorPoint: "top" 1250.29 1521 basechar 0
AnchorPoint: "base" 356.285 -455 basechar 0
LayerCount: 2
Fore
SplineSet
1000.29 1023 m 257
 478.285 -411 l 257
 677.285 -411 l 257
 1199.29 1023 l 257
 1000.29 1023 l 257
121.285 -209 m 257
 49.2852 -406 l 257
 579.285 -406 l 257
 651.285 -209 l 257
 121.285 -209 l 257
196.285 -6 m 257
 70.2852 -351 l 257
 270.285 -351 l 257
 396.285 -6 l 257
 196.285 -6 l 257
1134.29 1413 m 257
 1061.29 1214 l 257
 1262.29 1214 l 257
 1335.29 1413 l 257
 1134.29 1413 l 257
195 -12 m 257
 1021 -12 l 257
 1097 196 l 257
 271 196 l 257
 195 -12 l 257
EndSplineSet
EndChar

StartChar: k
Encoding: 107 107 530
GlifName: k
Width: 1024
VWidth: 0
GlyphClass: 2
Flags: W
AnchorPoint: "base" 486.91 -31 basechar 0
AnchorPoint: "top" 773.91 1621 basechar 0
LayerCount: 2
Fore
SplineSet
650.91 1537 m 257
 92.9102 5 l 257
 292.91 5 l 257
 850.91 1537 l 257
 650.91 1537 l 257
327.91 516 m 257
 297.91 298 l 257
 1248.91 1023 l 257
 1031.91 1023 l 257
 327.91 516 l 257
626.91 631 m 257
 420.91 483 l 257
 694.91 0 l 257
 932.91 0 l 257
 626.91 631 l 257
EndSplineSet
EndChar

StartChar: uni03D7
Encoding: 983 983 531
GlifName: kaiS_ymbol
Width: 1024
VWidth: 0
GlyphClass: 2
Flags: W
LayerCount: 2
Fore
SplineSet
549 1017 m 257
 480 819 l 257
 799 709 l 257
 940 909 l 257
 549 1017 l 257
754 908 m 257
 136 22 l 257
 320 22 l 257
 938 908 l 257
 754 908 l 257
1192 1014 m 257
 143 18 l 257
 327 18 l 257
 1376 1014 l 257
 1192 1014 l 257
1175 991 m 257
 516 -5 l 257
 700 -5 l 257
 1359 991 l 257
 1175 991 l 257
697 193 m 257
 628 -5 l 257
 970 -2 l 257
 1087 193 l 257
 697 193 l 257
501 -183 m 257
 485 -346 l 257
 804 -270 l 257
 907 -104 l 257
 501 -183 l 257
1060 139 m 257
 897 185 l 257
 682 -163 l 257
 824 -239 l 257
 1060 139 l 257
EndSplineSet
EndChar

StartChar: kgreenlandic
Encoding: 312 312 533
GlifName: kgreenlandic
Width: 1024
VWidth: 0
GlyphClass: 2
Flags: W
AnchorPoint: "base" 297 -89 basechar 0
AnchorPoint: "top" 329 1141 basechar 0
LayerCount: 2
Fore
SplineSet
228 1022 m 257
 -142 5 l 257
 58 5 l 257
 428 1022 l 257
 228 1022 l 257
93 516 m 257
 62 298 l 257
 1198 1023 l 257
 981 1023 l 257
 93 516 l 257
467 631 m 257
 186 483 l 257
 579 0 l 257
 817 0 l 257
 467 631 l 257
EndSplineSet
EndChar

StartChar: l
Encoding: 108 108 538
GlifName: l
Width: 1024
VWidth: 0
GlyphClass: 2
Flags: W
AnchorPoint: "base" 522.172 -61 basechar 0
AnchorPoint: "top" 1100.17 1640 basechar 0
LayerCount: 2
Fore
SplineSet
271.172 209 m 257
 198.172 9 l 257
 832.172 9 l 257
 905.172 209 l 257
 271.172 209 l 257
976.172 1548 m 257
 443.172 86 l 257
 643.172 86 l 257
 1176.17 1548 l 257
 976.172 1548 l 257
820.172 1548 m 257
 747.172 1349 l 257
 982.172 1349 l 257
 1055.17 1548 l 257
 820.172 1548 l 257
EndSplineSet
EndChar

StartChar: lambda
Encoding: 955 955 541
GlifName: lambda
Width: 1024
VWidth: 0
GlyphClass: 2
Flags: W
LayerCount: 2
Fore
SplineSet
-10 0 m 257
 189 0 l 257
 767 777 l 257
 560 777 l 257
 -10 0 l 257
452 0 m 257
 652 0 l 257
 806 1047 l 257
 599 1047 l 257
 452 0 l 257
EndSplineSet
EndChar

StartChar: uni20BE
Encoding: 8382 8382 542
GlifName: lari
Width: 1024
VWidth: 0
GlyphClass: 2
Flags: W
LayerCount: 2
Fore
SplineSet
160 211 m 257
 86 9 l 257
 921 9 l 257
 995 211 l 257
 160 211 l 257
613 1040 m 257
 544 838 l 257
 1172 838 l 257
 1241 1040 l 257
 613 1040 l 257
781 1166 m 257
 618 718 l 257
 748 718 l 257
 911 1166 l 257
 781 1166 l 257
1242 1040 m 257
 1027 991 l 257
 1046 586 l 257
 1224 612 l 257
 1242 1040 l 257
254 606 m 257
 333 476 l 257
 693 909 l 257
 614 1039 l 257
 254 606 l 257
287 207 m 257
 470 206 l 257
 440 613 l 257
 257 609 l 257
 287 207 l 257
967 1160 m 257
 804 712 l 257
 934 712 l 257
 1097 1160 l 257
 967 1160 l 257
EndSplineSet
EndChar

StartChar: lcaron
Encoding: 318 318 543
GlifName: lcaron
Width: 1024
VWidth: 0
GlyphClass: 2
Flags: W
LayerCount: 2
Fore
SplineSet
209 209 m 257
 136 9 l 257
 770 9 l 257
 843 209 l 257
 209 209 l 257
913 1548 m 257
 381 86 l 257
 581 86 l 257
 1113 1548 l 257
 913 1548 l 257
757 1548 m 257
 685 1349 l 257
 920 1349 l 257
 992 1548 l 257
 757 1548 l 257
1174 1496 m 257
 1090 1264 l 257
 1220 1264 l 257
 1304 1496 l 257
 1174 1496 l 257
EndSplineSet
EndChar

StartChar: uni0234
Encoding: 564 564 545
GlifName: lcurl
Width: 1024
VWidth: 0
GlyphClass: 2
Flags: W
AnchorPoint: "base" 522.172 -61 basechar 0
AnchorPoint: "top" 1100.17 1640 basechar 0
LayerCount: 2
Fore
SplineSet
712 285 m 257
 639 85 l 257
 846 349 l 257
 919 549 l 257
 712 285 l 257
976.172 1548 m 257
 443.172 86 l 257
 640 86 l 257
 1173 1548 l 257
 976.172 1548 l 257
820.172 1548 m 257
 747.172 1349 l 257
 982.172 1349 l 257
 1055.17 1548 l 257
 820.172 1548 l 257
253 499 m 257
 180 299 l 257
 849 361 l 257
 922 561 l 257
 253 499 l 257
EndSplineSet
EndChar

StartChar: arrowleft
Encoding: 8592 8592 547
GlifName: leftA_rrow
Width: 1024
VWidth: 0
GlyphClass: 2
Flags: W
LayerCount: 2
Fore
SplineSet
338 870 m 257
 261 659 l 257
 1005 659 l 257
 1082 870 l 257
 338 870 l 257
554 1091 m 257
 209 759 l 257
 451 759 l 257
 796 1091 l 257
 554 1091 l 257
209 759 m 257
 331 426 l 257
 573 426 l 257
 452 759 l 257
 209 759 l 257
EndSplineSet
EndChar

StartChar: uni25C2
Encoding: 9666 9666 548
GlifName: leftB_lackS_mallT_riangle
Width: 1024
VWidth: 0
GlyphClass: 2
Flags: W
LayerCount: 2
Fore
SplineSet
303 671 m 257
 716 431 l 257
 719 915 l 257
 303 671 l 257
EndSplineSet
EndChar

StartChar: uni25C0
Encoding: 9664 9664 549
GlifName: leftB_lackT_riangle
Width: 1024
VWidth: 0
GlyphClass: 2
Flags: W
LayerCount: 2
Fore
SplineSet
165 669 m 257
 853 269 l 257
 857 1077 l 257
 165 669 l 257
EndSplineSet
EndChar

StartChar: arrowboth
Encoding: 8596 8596 550
GlifName: leftR_ightA_rrow
Width: 1024
VWidth: 0
GlyphClass: 2
Flags: W
LayerCount: 2
Fore
SplineSet
133 855 m 257
 133 644 l 257
 846 644 l 257
 846 855 l 257
 133 855 l 257
236 1076 m 257
 66 744 l 257
 251 744 l 257
 422 1076 l 257
 236 1076 l 257
66 744 m 257
 252 411 l 257
 436 411 l 257
 252 744 l 257
 66 744 l 257
829 414 m 257
 1000 746 l 257
 815 746 l 257
 644 414 l 257
 829 414 l 257
1013 746 m 257
 827 1079 l 257
 642 1079 l 257
 827 746 l 257
 1013 746 l 257
EndSplineSet
EndChar

StartChar: uni25C3
Encoding: 9667 9667 551
GlifName: leftW_hiteS_mallT_riangle
Width: 1024
VWidth: 0
GlyphClass: 2
Flags: W
LayerCount: 2
Fore
SplineSet
303 671 m 257
 716 431 l 257
 719 915 l 257
 303 671 l 257
361 671 m 257
 693 867 l 257
 692 479 l 257
 361 671 l 257
EndSplineSet
EndChar

StartChar: uni25C1
Encoding: 9665 9665 552
GlifName: leftW_hiteT_riangle
Width: 1024
VWidth: 0
GlyphClass: 2
Flags: W
LayerCount: 2
Fore
SplineSet
165 669 m 257
 853 269 l 257
 857 1077 l 257
 165 669 l 257
261 670 m 257
 815 996 l 257
 812 350 l 257
 261 670 l 257
EndSplineSet
EndChar

StartChar: less
Encoding: 60 60 553
GlifName: less
Width: 1024
VWidth: 0
GlyphClass: 2
Flags: W
LayerCount: 2
Fore
SplineSet
98 777 m 257
 22 569 l 257
 927 807 l 257
 1002 1013 l 257
 98 777 l 257
98 777 m 257
 22 569 l 257
 676 122 l 257
 747 319 l 257
 98 777 l 257
EndSplineSet
EndChar

StartChar: lessequal
Encoding: 8804 8804 554
GlifName: lessequal
Width: 1024
VWidth: 0
GlyphClass: 2
Flags: W
LayerCount: 2
Fore
SplineSet
-7 -5 m 257
 -62 -157 l 257
 962 -157 l 257
 1017 -5 l 257
 -7 -5 l 257
386 777 m 257
 310 569 l 257
 1215 807 l 257
 1290 1013 l 257
 386 777 l 257
386 777 m 257
 310 569 l 257
 963 122 l 257
 1035 319 l 257
 386 777 l 257
EndSplineSet
EndChar

StartChar: lira
Encoding: 8356 8356 555
GlifName: lira
Width: 1024
VWidth: 0
GlyphClass: 2
Flags: W
LayerCount: 2
Fore
SplineSet
334 770 m 257
 262 571 l 257
 988 571 l 257
 1060 770 l 257
 334 770 l 257
943 1543 m 257
 870 1344 l 257
 1161 1344 l 257
 1234 1543 l 257
 943 1543 l 257
441 1064 m 257
 369 865 l 257
 1095 865 l 257
 1167 1064 l 257
 441 1064 l 257
898 1542 m 257
 337 0 l 257
 535 0 l 257
 1096 1542 l 257
 898 1542 l 257
236 202 m 257
 162 0 l 257
 888 0 l 257
 962 202 l 257
 236 202 l 257
EndSplineSet
EndChar

StartChar: uni2113
Encoding: 8467 8467 556
GlifName: literS_ign
Width: 1024
VWidth: 0
GlyphClass: 2
Flags: W
LayerCount: 2
Fore
SplineSet
237 290 m 257
 164 90 l 257
 549 9 l 257
 622 209 l 257
 237 290 l 257
692 1548 m 257
 160 86 l 257
 360 86 l 257
 892 1548 l 257
 692 1548 l 257
835 1549 m 257
 756 1340 l 257
 1005 1335 l 257
 1084 1544 l 257
 835 1549 l 257
1085 1545 m 257
 179 123 l 257
 352 70 l 257
 1259 1492 l 257
 1085 1545 l 257
EndSplineSet
EndChar

StartChar: uni0459
Encoding: 1113 1113 557
GlifName: lje-cy
Width: 1024
VWidth: 0
Flags: W
LayerCount: 2
Fore
SplineSet
869 1024 m 257
 541 1 l 257
 741 1 l 257
 1069 1024 l 257
 869 1024 l 257
619 1024 m 257
 547 824 l 257
 985 824 l 257
 1057 1024 l 257
 619 1024 l 257
609 1024 m 257
 99 0 l 257
 299 0 l 257
 809 1024 l 257
 609 1024 l 257
106 201 m 257
 33 1 l 257
 299 1 l 257
 372 201 l 257
 106 201 l 257
805 197 m 257
 732 -3 l 257
 998 -3 l 257
 1071 197 l 257
 805 197 l 257
957 649 m 257
 884 449 l 257
 1183 440 l 257
 1256 640 l 257
 957 649 l 257
843 187 m 257
 1043 114 l 257
 1225 561 l 257
 1025 634 l 257
 843 187 l 257
EndSplineSet
EndChar

StartChar: logicalnot
Encoding: 172 172 559
GlifName: logicalnot
Width: 1024
VWidth: 0
GlyphClass: 2
Flags: W
LayerCount: 2
Fore
SplineSet
1007.11 935 m 257
 900.113 640 l 257
 1010.11 640 l 257
 1117.11 935 l 257
 1007.11 935 l 257
577.113 935 m 257
 541.113 835 l 257
 1091.11 835 l 257
 1127.11 935 l 257
 577.113 935 l 257
EndSplineSet
EndChar

StartChar: longs
Encoding: 383 383 560
GlifName: longs
Width: 1024
VWidth: 0
GlyphClass: 2
Flags: W
LayerCount: 2
Fore
SplineSet
462 1221 m 257
 390 1023 l 257
 641 1023 l 257
 713 1221 l 257
 462 1221 l 257
767 1548 m 257
 204 0 l 257
 410 0 l 257
 973 1548 l 257
 767 1548 l 257
973 1548 m 257
 893 1328 l 257
 1288 1328 l 257
 1368 1548 l 257
 973 1548 l 257
EndSplineSet
EndChar

StartChar: lozenge
Encoding: 9674 9674 562
GlifName: lozenge
Width: 1024
VWidth: 0
GlyphClass: 2
Flags: W
LayerCount: 2
Fore
SplineSet
320 829 m 257
 508 402 l 257
 715 820 l 257
 509 1255 l 257
 320 829 l 257
EndSplineSet
EndChar

StartChar: lslash
Encoding: 322 322 563
GlifName: lslash
Width: 1024
VWidth: 0
GlyphClass: 2
Flags: W
LayerCount: 2
Fore
SplineSet
271 209 m 257
 198 9 l 257
 832 9 l 257
 905 209 l 257
 271 209 l 257
975 1548 m 257
 443 86 l 257
 643 86 l 257
 1175 1548 l 257
 975 1548 l 257
819 1548 m 257
 747 1349 l 257
 982 1349 l 257
 1054 1548 l 257
 819 1548 l 257
1256 1213 m 257
 414 830 l 257
 453 656 l 257
 1295 1039 l 257
 1256 1213 l 257
EndSplineSet
EndChar

StartChar: m
Encoding: 109 109 564
GlifName: m
Width: 1024
VWidth: 0
GlyphClass: 2
Flags: W
AnchorPoint: "base" 544.938 -112 basechar 0
AnchorPoint: "top" 939.938 1110 basechar 0
LayerCount: 2
Fore
SplineSet
496.938 993 m 257
 134.938 0 l 257
 334.938 0 l 257
 696.938 993 l 257
 496.938 993 l 257
803.938 972 m 257
 449.938 0 l 257
 649.938 0 l 257
 1003.94 972 l 257
 803.938 972 l 257
1120.94 976 m 257
 764.938 0 l 257
 964.938 0 l 257
 1320.94 976 l 257
 1120.94 976 l 257
430.938 1023 m 257
 358.938 826 l 257
 1264.94 826 l 257
 1336.94 1023 l 257
 430.938 1023 l 257
EndSplineSet
EndChar

StartChar: macron
Encoding: 175 175 565
GlifName: macron
Width: 1024
VWidth: 0
GlyphClass: 2
Flags: W
LayerCount: 2
Fore
SplineSet
603.965 1023 m 257
 575.965 944 l 257
 1135.96 944 l 257
 1163.96 1023 l 257
 603.965 1023 l 257
EndSplineSet
EndChar

StartChar: mu
Encoding: 181 181 573
GlifName: mu
Width: 1024
VWidth: 0
GlyphClass: 2
Flags: W
LayerCount: 2
Fore
SplineSet
889 935 m 257
 549 0 l 257
 749 0 l 257
 1089 935 l 257
 889 935 l 257
277 200 m 257
 204 0 l 257
 719 0 l 257
 792 200 l 257
 277 200 l 257
444 935 m 257
 -52 -430 l 257
 148 -430 l 257
 644 935 l 257
 444 935 l 257
EndSplineSet
EndChar

StartChar: multiply
Encoding: 215 215 574
GlifName: multiply
Width: 1024
VWidth: 0
GlyphClass: 2
Flags: W
LayerCount: 2
Fore
SplineSet
200.919 302 m 257
 401.919 302 l 257
 1408.53 1323 l 257
 1209.53 1323 l 257
 200.919 302 l 257
575.261 1325 m 257
 843.463 298 l 257
 1042.46 298 l 257
 777.261 1325 l 257
 575.261 1325 l 257
EndSplineSet
EndChar

StartChar: n
Encoding: 110 110 575
GlifName: n
Width: 1024
VWidth: 0
GlyphClass: 2
Flags: W
AnchorPoint: "base" 596.938 -33 basechar 0
AnchorPoint: "top" 998.938 1127 basechar 0
LayerCount: 2
Fore
SplineSet
661.938 990 m 257
 300.938 0 l 257
 501.938 0 l 257
 862.938 990 l 257
 661.938 990 l 257
1055.94 976 m 257
 699.938 0 l 257
 900.938 0 l 257
 1256.94 976 l 257
 1055.94 976 l 257
494.938 1023 m 257
 422.938 826 l 257
 1200.94 826 l 257
 1272.94 1023 l 257
 494.938 1023 l 257
EndSplineSet
EndChar

StartChar: uni0235
Encoding: 565 565 580
GlifName: ncurl
Width: 1024
VWidth: 0
GlyphClass: 2
Flags: W
AnchorPoint: "base" 596.938 -33 basechar 0
AnchorPoint: "top" 998.938 1127 basechar 0
LayerCount: 2
Fore
SplineSet
441 990 m 257
 80 0 l 257
 281 0 l 257
 642 990 l 257
 441 990 l 257
889 966 m 257
 600 -10 l 257
 734 -10 l 257
 1090 966 l 257
 889 966 l 257
395 1013 m 257
 323 816 l 257
 1034 816 l 257
 1106 1013 l 257
 395 1013 l 257
434 177 m 257
 347 0 l 257
 991 250 l 257
 1078 427 l 257
 434 177 l 257
753 134 m 257
 730 -14 l 257
 905 -14 l 257
 928 134 l 257
 753 134 l 257
1078 426 m 257
 822 -10 l 257
 981 -6 l 257
 1237 430 l 257
 1078 426 l 257
EndSplineSet
EndChar

StartChar: nine
Encoding: 57 57 582
GlifName: nine
Width: 1024
VWidth: 0
GlyphClass: 2
Flags: W
LayerCount: 2
Fore
SplineSet
758 759 m 257
 555 200 l 257
 -147 200 l 257
 -220 0 l 257
 678 0 l 257
 1244 1554 l 257
 324 1554 l 257
 318 1537 l 257
 34 759 l 257
 758 759 l 257
828 959 m 257
 307 959 l 257
 451 1354 l 257
 972 1354 l 257
 828 959 l 257
EndSplineSet
Substitution2: "supsSuperscriptinLatinlookup16 subtable" uni2079
EndChar

StartChar: uni045A
Encoding: 1114 1114 583
GlifName: nje-cy
Width: 1024
VWidth: 0
Flags: W
LayerCount: 2
Fore
SplineSet
468 1021 m 257
 34 0 l 257
 234 0 l 257
 668 1021 l 257
 468 1021 l 257
878 1021 m 257
 444 0 l 257
 644 0 l 257
 1078 1021 l 257
 878 1021 l 257
341 661 m 257
 268 461 l 257
 1035 461 l 257
 1108 661 l 257
 341 661 l 257
998 662 m 257
 790 1 l 257
 990 0 l 257
 1198 661 l 257
 998 662 l 257
568 200 m 257
 495 0 l 257
 990 0 l 257
 1063 200 l 257
 568 200 l 257
EndSplineSet
EndChar

StartChar: uni2197
Encoding: 8599 8599 586
GlifName: northE_astA_rrow
Width: 1024
VWidth: 0
GlyphClass: 2
Flags: W
LayerCount: 2
Fore
SplineSet
942 897 m 257
 847 1101 l 257
 321 575 l 257
 416 371 l 257
 942 897 l 257
945 588 m 257
 955 1067 l 257
 783 896 l 257
 774 417 l 257
 945 588 l 257
955 1067 m 257
 633 1216 l 257
 462 1045 l 257
 783 895 l 257
 955 1067 l 257
EndSplineSet
EndChar

StartChar: uni2196
Encoding: 8598 8598 587
GlifName: northW_estA_rrow
Width: 1024
VWidth: 0
GlyphClass: 2
Flags: W
LayerCount: 2
Fore
SplineSet
507 1055 m 257
 303 960 l 257
 829 434 l 257
 1033 529 l 257
 507 1055 l 257
816 1058 m 257
 337 1068 l 257
 508 896 l 257
 987 887 l 257
 816 1058 l 257
337 1068 m 257
 188 746 l 257
 359 575 l 257
 509 896 l 257
 337 1068 l 257
EndSplineSet
EndChar

StartChar: notequal
Encoding: 8800 8800 588
GlifName: notequal
Width: 1024
VWidth: 0
GlyphClass: 2
Flags: W
LayerCount: 2
Fore
SplineSet
1104 1101 m 257
 199 182 l 257
 304 109 l 257
 1208 1028 l 257
 1104 1101 l 257
437 914 m 257
 368 724 l 257
 1184 724 l 257
 1253 914 l 257
 437 914 l 257
301 540 m 257
 231 350 l 257
 1047 350 l 257
 1117 540 l 257
 301 540 l 257
EndSplineSet
EndChar

StartChar: numbersign
Encoding: 35 35 591
GlifName: numbersign
Width: 1024
VWidth: 0
GlyphClass: 2
Flags: W
LayerCount: 2
Fore
SplineSet
405 1347 m 257
 29 313 l 257
 169 313 l 257
 545 1347 l 257
 405 1347 l 257
816 1350 m 257
 426 279 l 257
 594 279 l 257
 984 1350 l 257
 816 1350 l 257
206 1157 m 257
 152 1010 l 257
 970 1010 l 257
 1024 1157 l 257
 206 1157 l 257
64 767 m 257
 0 592 l 257
 828 592 l 257
 892 767 l 257
 64 767 l 257
EndSplineSet
EndChar

StartChar: o
Encoding: 111 111 593
GlifName: o
Width: 1024
VWidth: 0
GlyphClass: 2
Flags: W
AnchorPoint: "top" 827 1079 basechar 0
AnchorPoint: "base" 436 -117 basechar 0
LayerCount: 2
Fore
SplineSet
476.171 1023 m 257
 103.171 0 l 257
 303.171 0 l 257
 676.171 1023 l 257
 476.171 1023 l 257
1091.17 1023 m 257
 718.171 0 l 257
 920.171 0 l 257
 1293.17 1023 l 257
 1091.17 1023 l 257
599.171 1023 m 257
 526.171 822 l 257
 1112.17 822 l 257
 1185.17 1023 l 257
 599.171 1023 l 257
303.171 200 m 257
 230.171 0 l 257
 802.171 0 l 257
 875.171 200 l 257
 303.171 200 l 257
EndSplineSet
EndChar

StartChar: uni0275
Encoding: 629 629 596
GlifName: obarred
Width: 1024
VWidth: 0
GlyphClass: 2
Flags: W
AnchorPoint: "top" 923 1127 basechar 0
AnchorPoint: "base" 490.171 -69 basechar 0
LayerCount: 2
Fore
SplineSet
476.171 1023 m 257
 103.171 0 l 257
 303.171 0 l 257
 676.171 1023 l 257
 476.171 1023 l 257
1091.17 1023 m 257
 718.171 0 l 257
 920.171 0 l 257
 1293.17 1023 l 257
 1091.17 1023 l 257
599.171 1023 m 257
 526.171 822 l 257
 1112.17 822 l 257
 1185.17 1023 l 257
 599.171 1023 l 257
303.171 200 m 257
 230.171 0 l 257
 802.171 0 l 257
 875.171 200 l 257
 303.171 200 l 257
399.985 644 m 257
 339.526 436 l 257
 996.619 436 l 257
 1057.08 644 l 257
 399.985 644 l 257
EndSplineSet
EndChar

StartChar: uni04E9
Encoding: 1257 1257 597
GlifName: obarred-cy
Width: 1024
VWidth: 0
Flags: W
AnchorPoint: "top" 923 1127 basechar 0
AnchorPoint: "base" 490.171 -69 basechar 0
LayerCount: 2
Fore
SplineSet
476.171 1023 m 257
 103.171 0 l 257
 303.171 0 l 257
 676.171 1023 l 257
 476.171 1023 l 257
1091.17 1023 m 257
 718.171 0 l 257
 920.171 0 l 257
 1293.17 1023 l 257
 1091.17 1023 l 257
599.171 1023 m 257
 526.171 822 l 257
 1112.17 822 l 257
 1185.17 1023 l 257
 599.171 1023 l 257
303.171 200 m 257
 230.171 0 l 257
 802.171 0 l 257
 875.171 200 l 257
 303.171 200 l 257
399.985 644 m 257
 339.526 436 l 257
 996.619 436 l 257
 1057.08 644 l 257
 399.985 644 l 257
EndSplineSet
EndChar

StartChar: oe
Encoding: 339 339 601
GlifName: oe
Width: 1024
VWidth: 0
GlyphClass: 2
Flags: W
AnchorPoint: "top" 754 1152 basechar 0
AnchorPoint: "base" 362 -128 basechar 0
LayerCount: 2
Fore
SplineSet
646 645 m 257
 573 446 l 257
 800 446 l 257
 873 645 l 257
 646 645 l 257
985 1023 m 257
 775 445 l 257
 975 445 l 257
 1185 1023 l 257
 985 1023 l 257
289 1023 m 257
 -83 0 l 257
 117 0 l 257
 489 1023 l 257
 289 1023 l 257
637 1023 m 257
 265 0 l 257
 465 0 l 257
 837 1023 l 257
 637 1023 l 257
344 1023 m 257
 271 823 l 257
 972 823 l 257
 1045 1023 l 257
 344 1023 l 257
36 200 m 257
 -37 0 l 257
 813 0 l 257
 886 200 l 257
 36 200 l 257
EndSplineSet
EndChar

StartChar: ogonek
Encoding: 731 731 602
GlifName: ogonek
Width: 1024
VWidth: 0
GlyphClass: 2
Flags: W
LayerCount: 2
Fore
SplineSet
210 -288 m 257
 167 -406 l 257
 709 -406 l 257
 752 -288 l 257
 210 -288 l 257
315 0 m 257
 167 -406 l 257
 285 -406 l 257
 433 0 l 257
 315 0 l 257
315 0 m 257
 271 -121 l 257
 813 -121 l 257
 857 0 l 257
 315 0 l 257
EndSplineSet
EndChar

StartChar: omega
Encoding: 969 969 607
GlifName: omega
Width: 1024
VWidth: 0
GlyphClass: 2
Flags: W
LayerCount: 2
Fore
SplineSet
573 1023 m 257
 204 129 l 257
 403 129 l 257
 772 1023 l 257
 573 1023 l 257
1085 1024 m 257
 819 127 l 257
 1018 127 l 257
 1284 1024 l 257
 1085 1024 l 257
681 612 m 257
 408 119 l 257
 609 119 l 257
 882 612 l 257
 681 612 l 257
229 197 m 257
 153 2 l 257
 484 119 l 257
 557 319 l 257
 229 197 l 257
612 319 m 257
 539 119 l 257
 972 2 l 257
 1043 197 l 257
 612 319 l 257
EndSplineSet
EndChar

StartChar: uniA7B7
Encoding: 42935 42935 608
GlifName: omega_latin
Width: 1024
VWidth: 0
GlyphClass: 2
Flags: W
AnchorPoint: "base" 482.08 -93 basechar 0
AnchorPoint: "top" 1090 1082 basechar 0
LayerCount: 2
Fore
SplineSet
627 1025 m 257
 64 0 l 257
 264 0 l 257
 827 1025 l 257
 627 1025 l 257
1322 1025 m 257
 759 0 l 257
 959 0 l 257
 1525 1026 l 257
 1322 1025 l 257
654 669 m 257
 464 146 l 257
 664 146 l 257
 854 669 l 257
 654 669 l 257
337 200 m 257
 264 0 l 257
 464 146 l 257
 537 346 l 257
 337 200 l 257
737 346 m 257
 664 146 l 257
 759 1 l 257
 870 180 l 257
 737 346 l 257
658 1025 m 257
 588 825 l 257
 888 825 l 257
 958 1025 l 257
 658 1025 l 257
1182 1025 m 257
 1108 825 l 257
 1450 825 l 257
 1524 1025 l 257
 1182 1025 l 257
EndSplineSet
EndChar

StartChar: one
Encoding: 49 49 613
GlifName: one
Width: 1024
VWidth: 0
GlyphClass: 2
Flags: W
LayerCount: 2
Fore
SplineSet
131 0 m 257
 330 0 l 257
 893 1548 l 257
 694 1548 l 257
 131 0 l 257
698 1548 m 257
 392 1252 l 257
 506 1152 l 257
 812 1449 l 257
 698 1548 l 257
EndSplineSet
Substitution2: "supsSuperscriptinLatinlookup16 subtable" uni00B9
EndChar

StartChar: onequarter
Encoding: 188 188 616
GlifName: onequarter
Width: 1024
VWidth: 0
GlyphClass: 2
Flags: W
LayerCount: 2
Fore
SplineSet
79 10 m 257
 182 10 l 257
 79 10 l 257
873 7 m 257
 932 7 l 257
 873 7 l 257
EndSplineSet
Refer: 752 185 N 1 0 0 1 135 321 2
Refer: 701 47 N 1 0 0 1 88 -120 2
Refer: 1749 8324 N 1 0 0 1 253 18 2
EndChar

StartChar: uni0254
Encoding: 596 596 618
GlifName: oopen
Width: 1024
VWidth: 0
GlyphClass: 2
Flags: W
AnchorPoint: "base" 539.49 -67 basechar 0
AnchorPoint: "top" 864.49 1116 basechar 0
LayerCount: 2
Fore
SplineSet
862 0 m 257
 934 197 l 257
 238 197 l 257
 166 0 l 257
 862 0 l 257
874 39 m 257
 1232 1023 l 257
 1030 1023 l 257
 672 39 l 257
 874 39 l 257
1053 822 m 257
 1126 1023 l 257
 544 1023 l 257
 471 822 l 257
 1053 822 l 257
EndSplineSet
EndChar

StartChar: ordfeminine
Encoding: 170 170 619
GlifName: ordfeminine
Width: 1024
VWidth: 0
GlyphClass: 2
Flags: W
LayerCount: 2
Fore
SplineSet
648.981 1319 m 257
 575.981 1119 l 257
 1181.98 1119 l 257
 1254.98 1319 l 257
 648.981 1319 l 257
1141.98 1320 m 257
 769.981 296 l 257
 963.981 296 l 257
 1335.98 1320 l 257
 1141.98 1320 l 257
497.981 894 m 257
 425.981 695 l 257
 1049.98 695 l 257
 1121.98 894 l 257
 497.981 894 l 257
488.981 870 m 257
 278.981 293 l 257
 479.981 293 l 257
 689.981 870 l 257
 488.981 870 l 257
350.981 496 m 257
 278.981 296 l 257
 968.981 296 l 257
 1040.98 496 l 257
 350.981 496 l 257
136.981 162 m 257
 77.9814 0 l 257
 945.981 0 l 257
 1004.98 162 l 257
 136.981 162 l 257
EndSplineSet
EndChar

StartChar: ordmasculine
Encoding: 186 186 620
GlifName: ordmasculine
Width: 1024
VWidth: 0
GlyphClass: 2
Flags: W
LayerCount: 2
Fore
SplineSet
481.512 1023 m 257
 109.512 0 l 257
 309.512 0 l 257
 681.512 1023 l 257
 481.512 1023 l 257
1096.51 1023 m 257
 724.512 0 l 257
 926.512 0 l 257
 1298.51 1023 l 257
 1096.51 1023 l 257
604.512 1023 m 257
 531.512 822 l 257
 1117.51 822 l 257
 1190.51 1023 l 257
 604.512 1023 l 257
308.512 200 m 257
 236.512 0 l 257
 808.512 0 l 257
 880.512 200 l 257
 308.512 200 l 257
-25.4883 -70 m 257
 -49.4883 -136 l 257
 974.512 -136 l 257
 998.512 -70 l 257
 -25.4883 -70 l 257
EndSplineSet
EndChar

StartChar: oslash
Encoding: 248 248 621
GlifName: oslash
Width: 1024
VWidth: 0
GlyphClass: 2
Flags: W
AnchorPoint: "top" 827 1079 basechar 0
AnchorPoint: "base" 436 -117 basechar 0
LayerCount: 2
Fore
SplineSet
1261 1164 m 257
 7 -5 l 257
 134 -103 l 257
 1388 1066 l 257
 1261 1164 l 257
476 1023 m 257
 104 0 l 257
 304 0 l 257
 676 1023 l 257
 476 1023 l 257
1091 1023 m 257
 719 0 l 257
 921 0 l 257
 1293 1023 l 257
 1091 1023 l 257
599 1023 m 257
 526 822 l 257
 1112 822 l 257
 1185 1023 l 257
 599 1023 l 257
304 200 m 257
 231 0 l 257
 803 0 l 257
 876 200 l 257
 304 200 l 257
EndSplineSet
EndChar

StartChar: p
Encoding: 112 112 625
GlifName: p
Width: 1024
VWidth: 0
GlyphClass: 2
Flags: W
AnchorPoint: "base" 154.875 -475 basechar 0
AnchorPoint: "top" 703.875 1308 basechar 0
LayerCount: 2
Fore
SplineSet
628.875 1203 m 257
 42.875 -406 l 257
 242.875 -406 l 257
 828.875 1203 l 257
 628.875 1203 l 257
661.875 1023 m 257
 587.875 821 l 257
 1126.88 821 l 257
 1200.88 1023 l 257
 661.875 1023 l 257
366.875 202 m 257
 292.875 0 l 257
 832.875 0 l 257
 906.875 202 l 257
 366.875 202 l 257
949.875 876 m 257
 694.875 175 l 257
 892.875 175 l 257
 1147.88 876 l 257
 949.875 876 l 257
EndSplineSet
EndChar

StartChar: paragraph
Encoding: 182 182 626
GlifName: paragraph
Width: 1024
VWidth: 0
GlyphClass: 2
Flags: W
LayerCount: 2
Fore
SplineSet
500.756 1130 m 257
 447.756 985 l 257
 1012.76 985 l 257
 1065.76 1130 l 257
 500.756 1130 l 257
652.756 1548 m 257
 453.756 1000 l 257
 613.756 1000 l 257
 812.756 1548 l 257
 652.756 1548 l 257
652.756 1548 m 257
 611.756 1435 l 257
 1431.76 1435 l 257
 1472.76 1548 l 257
 652.756 1548 l 257
1122.76 1548 m 257
 559.756 0 l 257
 704.756 0 l 257
 1267.76 1548 l 257
 1122.76 1548 l 257
1392.76 1548 m 257
 829.756 0 l 257
 934.756 0 l 257
 1497.76 1548 l 257
 1392.76 1548 l 257
EndSplineSet
EndChar

StartChar: parenleft
Encoding: 40 40 627
GlifName: parenleft
Width: 1024
VWidth: 0
GlyphClass: 2
Flags: W
LayerCount: 2
Fore
SplineSet
379 1023 m 257
 72 179 l 257
 262 179 l 257
 569 1023 l 257
 379 1023 l 257
919 1633 m 257
 381 1028 l 257
 569 1028 l 257
 952 1640 l 257
 919 1633 l 257
72 179 m 257
 203 -406 l 257
 235 -406 l 257
 262 179 l 257
 72 179 l 257
EndSplineSet
EndChar

StartChar: parenright
Encoding: 41 41 628
GlifName: parenright
Width: 1024
VWidth: 0
GlyphClass: 2
Flags: W
LayerCount: 2
Fore
SplineSet
748 1023 m 257
 441 179 l 257
 631 179 l 257
 938 1023 l 257
 748 1023 l 257
827 1629 m 257
 748 1023 l 257
 938 1023 l 257
 865 1629 l 257
 827 1629 l 257
441 179 m 257
 86 -406 l 257
 114 -406 l 257
 631 179 l 257
 441 179 l 257
EndSplineSet
EndChar

StartChar: partialdiff
Encoding: 8706 8706 629
GlifName: partialdiff
Width: 1024
VWidth: 0
GlyphClass: 2
Flags: W
LayerCount: 2
Fore
SplineSet
804 1548 m 257
 692 0 l 257
 893 0 l 257
 1005 1548 l 257
 804 1548 l 257
600 1023 m 257
 527 822 l 257
 868 822 l 257
 941 1023 l 257
 600 1023 l 257
504 1023 m 257
 132 0 l 257
 333 0 l 257
 705 1023 l 257
 504 1023 l 257
299 195 m 257
 228 0 l 257
 845 0 l 257
 916 195 l 257
 299 195 l 257
671 1539 m 257
 603 1352 l 257
 803 1361 l 257
 871 1548 l 257
 671 1539 l 257
EndSplineSet
EndChar

StartChar: percent
Encoding: 37 37 631
GlifName: percent
Width: 1024
VWidth: 0
GlyphClass: 2
Flags: W
LayerCount: 2
Fore
SplineSet
43 522 m 257
 34 377 l 257
 981 716 l 257
 990 860 l 257
 43 522 l 257
411 1148 m 257
 292 822 l 257
 370 822 l 257
 489 1148 l 257
 411 1148 l 257
412 1152 m 257
 378 1057 l 257
 726 1057 l 257
 760 1152 l 257
 412 1152 l 257
310 871 m 257
 280 789 l 257
 624 789 l 257
 654 871 l 257
 310 871 l 257
668 1152 m 257
 537 791 l 257
 629 791 l 257
 760 1152 l 257
 668 1152 l 257
480 436 m 257
 361 110 l 257
 439 110 l 257
 558 436 l 257
 480 436 l 257
481 440 m 257
 446 345 l 257
 792 345 l 257
 827 440 l 257
 481 440 l 257
379 159 m 257
 349 77 l 257
 693 77 l 257
 723 159 l 257
 379 159 l 257
735 440 m 257
 604 79 l 257
 696 79 l 257
 827 440 l 257
 735 440 l 257
EndSplineSet
EndChar

StartChar: period
Encoding: 46 46 632
GlifName: period
Width: 1024
VWidth: 0
GlyphClass: 2
Flags: W
LayerCount: 2
Fore
SplineSet
425 246 m 257
 335 0 l 257
 599 0 l 257
 689 246 l 257
 425 246 l 257
EndSplineSet
EndChar

StartChar: periodcentered
Encoding: 183 183 633
GlifName: periodcentered
Width: 1024
VWidth: 0
GlyphClass: 2
Flags: W
LayerCount: 2
Fore
SplineSet
796.16 1146 m 257
 707.16 899 l 257
 972.16 899 l 257
 1061.16 1146 l 257
 796.16 1146 l 257
EndSplineSet
EndChar

StartChar: perthousand
Encoding: 8240 8240 635
GlifName: perthousand
Width: 1024
VWidth: 0
GlyphClass: 2
Flags: W
LayerCount: 2
Fore
SplineSet
651 436 m 257
 532 110 l 257
 610 110 l 257
 729 436 l 257
 651 436 l 257
652 440 m 257
 618 345 l 257
 964 345 l 257
 998 440 l 257
 652 440 l 257
550 159 m 257
 520 77 l 257
 864 77 l 257
 894 159 l 257
 550 159 l 257
906 440 m 257
 775 79 l 257
 867 79 l 257
 998 440 l 257
 906 440 l 257
36 522 m 257
 26 377 l 257
 973 716 l 257
 981 860 l 257
 36 522 l 257
404 1148 m 257
 286 822 l 257
 364 822 l 257
 482 1148 l 257
 404 1148 l 257
406 1152 m 257
 371 1057 l 257
 717 1057 l 257
 752 1152 l 257
 406 1152 l 257
303 871 m 257
 273 789 l 257
 617 789 l 257
 647 871 l 257
 303 871 l 257
660 1152 m 257
 528 791 l 257
 620 791 l 257
 752 1152 l 257
 660 1152 l 257
249 436 m 257
 130 110 l 257
 208 110 l 257
 327 436 l 257
 249 436 l 257
250 440 m 257
 216 345 l 257
 564 345 l 257
 598 440 l 257
 250 440 l 257
148 159 m 257
 118 77 l 257
 462 77 l 257
 492 159 l 257
 148 159 l 257
506 440 m 257
 375 79 l 257
 467 79 l 257
 598 440 l 257
 506 440 l 257
EndSplineSet
EndChar

StartChar: peseta
Encoding: 8359 8359 636
GlifName: peseta
Width: 1024
VWidth: 0
GlyphClass: 2
Flags: W
LayerCount: 2
Fore
SplineSet
784 1548 m 257
 224 0 l 257
 294 0 l 257
 854 1548 l 257
 784 1548 l 257
813 1548 m 257
 739 1346 l 257
 982 1346 l 257
 1055 1548 l 257
 813 1548 l 257
989 1548 m 257
 746 881 l 257
 820 881 l 257
 1063 1548 l 257
 989 1548 l 257
632 1068 m 257
 560 868 l 257
 814 868 l 257
 886 1068 l 257
 632 1068 l 257
1151 1526 m 257
 597 0 l 257
 663 0 l 257
 1217 1526 l 257
 1151 1526 l 257
669 198 m 257
 597 0 l 257
 728 0 l 257
 800 198 l 257
 669 198 l 257
885 1009 m 257
 814 813 l 257
 1036 813 l 257
 1108 1009 l 257
 885 1009 l 257
1000 609 m 257
 957 491 l 257
 1112 491 l 257
 1155 609 l 257
 1000 609 l 257
1000 609 m 257
 938 438 l 257
 989 438 l 257
 1051 609 l 257
 1000 609 l 257
822 118 m 257
 778 0 l 257
 931 0 l 257
 975 118 l 257
 822 118 l 257
944 173 m 257
 883 5 l 257
 934 5 l 257
 995 173 l 257
 944 173 l 257
938 438 m 257
 944 173 l 257
 995 173 l 257
 989 438 l 257
 938 438 l 257
EndSplineSet
EndChar

StartChar: phi
Encoding: 966 966 637
GlifName: phi
Width: 1024
VWidth: 0
GlyphClass: 2
Flags: W
LayerCount: 2
Fore
SplineSet
627 1023 m 257
 254 0 l 257
 454 0 l 257
 827 1023 l 257
 627 1023 l 257
1242 1023 m 257
 869 0 l 257
 1071 0 l 257
 1444 1023 l 257
 1242 1023 l 257
750 1023 m 257
 677 822 l 257
 1263 822 l 257
 1336 1023 l 257
 750 1023 l 257
454 200 m 257
 381 0 l 257
 953 0 l 257
 1026 200 l 257
 454 200 l 257
999 1202 m 257
 411 -413 l 257
 613 -413 l 257
 1201 1202 l 257
 999 1202 l 257
EndSplineSet
EndChar

StartChar: phi1
Encoding: 981 981 638
GlifName: phiS_ymbol
Width: 1024
VWidth: 0
GlyphClass: 2
Flags: W
LayerCount: 2
Fore
SplineSet
365 1110 m 257
 -30 25 l 257
 170 25 l 257
 565 1110 l 257
 365 1110 l 257
34 201 m 257
 -39 1 l 257
 776 1 l 257
 849 201 l 257
 34 201 l 257
1064 1098 m 257
 665 0 l 257
 865 0 l 257
 1264 1098 l 257
 1064 1098 l 257
757 1098 m 257
 684 898 l 257
 1191 898 l 257
 1264 1098 l 257
 757 1098 l 257
740 1098 m 257
 157 -503 l 257
 357 -503 l 257
 940 1098 l 257
 740 1098 l 257
EndSplineSet
EndChar

StartChar: pi
Encoding: 960 960 640
GlifName: pi
Width: 1024
VWidth: 0
GlyphClass: 2
Flags: W
LayerCount: 2
Fore
SplineSet
560 990 m 257
 188 0 l 257
 389 0 l 257
 761 990 l 257
 560 990 l 257
954 976 m 257
 587 0 l 257
 788 0 l 257
 1155 976 l 257
 954 976 l 257
452 1023 m 257
 378 826 l 257
 1240 826 l 257
 1314 1023 l 257
 452 1023 l 257
EndSplineSet
EndChar

StartChar: plus
Encoding: 43 43 641
GlifName: plus
Width: 1024
VWidth: 0
GlyphClass: 2
Flags: W
LayerCount: 2
Fore
SplineSet
567 1221 m 257
 183 165 l 257
 408 165 l 257
 792 1221 l 257
 567 1221 l 257
99 821 m 257
 23 613 l 257
 925 613 l 257
 1001 821 l 257
 99 821 l 257
EndSplineSet
EndChar

StartChar: plusminus
Encoding: 177 177 642
GlifName: plusminus
Width: 1024
VWidth: 0
GlyphClass: 2
Flags: W
LayerCount: 2
Fore
SplineSet
137.967 108 m 257
 61.9668 -100 l 257
 887.967 -100 l 257
 963.967 108 l 257
 137.967 108 l 257
827.967 1221 m 257
 443.967 165 l 257
 668.967 165 l 257
 1052.97 1221 l 257
 827.967 1221 l 257
359.967 821 m 257
 283.967 613 l 257
 1185.97 613 l 257
 1261.97 821 l 257
 359.967 821 l 257
EndSplineSet
EndChar

StartChar: product
Encoding: 8719 8719 644
GlifName: product
Width: 1024
VWidth: 0
GlyphClass: 2
Flags: W
LayerCount: 2
Fore
SplineSet
692 1537 m 257
 133 0 l 257
 334 0 l 257
 893 1537 l 257
 692 1537 l 257
1266 1537 m 257
 707 0 l 257
 910 0 l 257
 1469 1537 l 257
 1266 1537 l 257
615 1537 m 257
 543 1337 l 257
 1469 1337 l 257
 1541 1537 l 257
 615 1537 l 257
EndSplineSet
EndChar

StartChar: psi
Encoding: 968 968 645
GlifName: psi
Width: 1024
VWidth: 0
GlyphClass: 2
Flags: W
LayerCount: 2
Fore
SplineSet
843 1015 m 257
 411 -129 l 257
 613 -129 l 257
 1045 1015 l 257
 843 1015 l 257
597 1020 m 257
 318 278 l 257
 518 278 l 257
 797 1020 l 257
 597 1020 l 257
1102 1020 m 257
 823 278 l 257
 1022 278 l 257
 1301 1020 l 257
 1102 1020 l 257
461 478 m 257
 386 278 l 257
 932 278 l 257
 1007 478 l 257
 461 478 l 257
EndSplineSet
EndChar

StartChar: q
Encoding: 113 113 649
GlifName: q
Width: 1024
VWidth: 0
GlyphClass: 2
Flags: W
AnchorPoint: "top" 1141.71 1297 basechar 0
AnchorPoint: "base" 582.711 -486 basechar 0
LayerCount: 2
Fore
SplineSet
1048.71 1201 m 257
 463.711 -406 l 257
 662.711 -406 l 257
 1247.71 1201 l 257
 1048.71 1201 l 257
510.711 1023 m 257
 437.711 823 l 257
 1086.71 823 l 257
 1159.71 1023 l 257
 510.711 1023 l 257
213.711 203 m 257
 139.711 0 l 257
 755.711 0 l 257
 829.711 203 l 257
 213.711 203 l 257
448.711 855 m 257
 176.711 107 l 257
 376.711 107 l 257
 648.711 855 l 257
 448.711 855 l 257
552.711 -268 m 257
 502.711 -406 l 257
 738.711 -406 l 257
 788.711 -268 l 257
 552.711 -268 l 257
EndSplineSet
EndChar

StartChar: question
Encoding: 63 63 650
GlifName: question
Width: 1024
VWidth: 0
GlyphClass: 2
Flags: W
LayerCount: 2
Fore
SplineSet
94 247 m 257
 4 0 l 257
 250 0 l 257
 340 247 l 257
 94 247 l 257
381 1519 m 257
 314 1333 l 257
 950 1333 l 257
 1017 1519 l 257
 381 1519 l 257
826 1514 m 257
 626 966 l 257
 820 966 l 257
 1020 1514 l 257
 826 1514 l 257
374 1015 m 257
 301 816 l 257
 765 816 l 257
 838 1015 l 257
 374 1015 l 257
372 1011 m 257
 147 392 l 257
 395 392 l 257
 620 1011 l 257
 372 1011 l 257
EndSplineSet
EndChar

StartChar: questiondown
Encoding: 191 191 651
GlifName: questiondown
Width: 1024
VWidth: 0
GlyphClass: 2
Flags: W
LayerCount: 2
Fore
SplineSet
1118.91 1273 m 257
 1208.91 1519 l 257
 958.91 1519 l 257
 868.91 1272 l 257
 1118.91 1273 l 257
832.91 0 m 257
 899.91 186 l 257
 262.91 186 l 257
 195.91 0 l 257
 832.91 0 l 257
386.91 5 m 257
 586.91 553 l 257
 392.91 553 l 257
 192.91 5 l 257
 386.91 5 l 257
838.91 504 m 257
 911.91 703 l 257
 447.91 703 l 257
 374.91 504 l 257
 838.91 504 l 257
840.91 508 m 257
 1065.91 1127 l 257
 817.91 1127 l 257
 592.91 508 l 257
 840.91 508 l 257
EndSplineSet
EndChar

StartChar: quotedbl
Encoding: 34 34 653
GlifName: quotedbl
Width: 1024
VWidth: 0
GlyphClass: 2
Flags: W
LayerCount: 2
Fore
SplineSet
195 1326 m 257
 339 1326 l 257
 429 1574 l 257
 285 1574 l 257
 195 1326 l 257
595 1326 m 257
 739 1326 l 257
 829 1574 l 257
 685 1574 l 257
 595 1326 l 257
EndSplineSet
EndChar

StartChar: quotedblbase
Encoding: 8222 8222 654
GlifName: quotedblbase
Width: 1024
VWidth: 0
GlyphClass: 2
Flags: W
LayerCount: 2
Fore
SplineSet
268 237 m 257
 184 8 l 257
 432 8 l 257
 516 237 l 257
 268 237 l 257
330 135 m 257
 109 -146 l 257
 230 -206 l 257
 427 0 l 257
 330 135 l 257
667 237 m 257
 583 8 l 257
 831 8 l 257
 915 237 l 257
 667 237 l 257
729 135 m 257
 508 -146 l 257
 629 -206 l 257
 826 0 l 257
 729 135 l 257
EndSplineSet
EndChar

StartChar: quotedblleft
Encoding: 8220 8220 655
GlifName: quotedblleft
Width: 1024
VWidth: 0
GlyphClass: 2
Flags: W
LayerCount: 2
Fore
SplineSet
388 1842 m 257
 472 2071 l 257
 224 2071 l 257
 140 1842 l 257
 388 1842 l 257
327 1944 m 257
 548 2225 l 257
 426 2285 l 257
 227 2075 l 257
 327 1944 l 257
724 1842 m 257
 808 2071 l 257
 560 2071 l 257
 476 1842 l 257
 724 1842 l 257
663 1944 m 257
 884 2225 l 257
 762 2285 l 257
 563 2075 l 257
 663 1944 l 257
EndSplineSet
EndChar

StartChar: quotedblright
Encoding: 8221 8221 656
GlifName: quotedblright
Width: 1024
VWidth: 0
GlyphClass: 2
Flags: W
LayerCount: 2
Fore
SplineSet
626 1485 m 257
 542 1256 l 257
 790 1256 l 257
 874 1485 l 257
 626 1485 l 257
689 1383 m 257
 468 1102 l 257
 588 1042 l 257
 787 1252 l 257
 689 1383 l 257
308 1485 m 257
 224 1256 l 257
 472 1256 l 257
 556 1485 l 257
 308 1485 l 257
371 1383 m 257
 150 1102 l 257
 270 1042 l 257
 469 1252 l 257
 371 1383 l 257
EndSplineSet
EndChar

StartChar: quoteleft
Encoding: 8216 8216 657
GlifName: quoteleft
Width: 1024
VWidth: 0
GlyphClass: 2
Flags: W
LayerCount: 2
Fore
SplineSet
556 1042 m 257
 640 1271 l 257
 392 1271 l 257
 308 1042 l 257
 556 1042 l 257
495 1144 m 257
 716 1425 l 257
 594 1485 l 257
 395 1275 l 257
 495 1144 l 257
EndSplineSet
EndChar

StartChar: quoteright
Encoding: 8217 8217 658
GlifName: quoteright
Width: 1024
VWidth: 0
GlyphClass: 2
Flags: W
LayerCount: 2
Fore
SplineSet
468 2285 m 257
 384 2056 l 257
 632 2056 l 257
 716 2285 l 257
 468 2285 l 257
529 2183 m 257
 308 1902 l 257
 430 1842 l 257
 629 2052 l 257
 529 2183 l 257
EndSplineSet
EndChar

StartChar: quotesinglbase
Encoding: 8218 8218 659
GlifName: quotesinglbase
Width: 1024
VWidth: 0
GlyphClass: 2
Flags: W
LayerCount: 2
Fore
SplineSet
468 237 m 257
 384 8 l 257
 632 8 l 257
 716 237 l 257
 468 237 l 257
529 135 m 257
 308 -146 l 257
 430 -206 l 257
 627 0 l 257
 529 135 l 257
EndSplineSet
EndChar

StartChar: quotesingle
Encoding: 39 39 660
GlifName: quotesingle
Width: 1024
VWidth: 0
GlyphClass: 2
Flags: W
LayerCount: 2
Fore
SplineSet
489 1496 m 257
 405 1264 l 257
 535 1264 l 257
 619 1496 l 257
 489 1496 l 257
EndSplineSet
EndChar

StartChar: r
Encoding: 114 114 661
GlifName: r
Width: 1024
VWidth: 0
GlyphClass: 2
Flags: W
AnchorPoint: "top" 797.58 1174 basechar 0
AnchorPoint: "base" 450.58 -73 basechar 0
LayerCount: 2
Fore
SplineSet
517.58 1023 m 257
 444.58 821 l 257
 1177.58 821 l 257
 1250.58 1023 l 257
 517.58 1023 l 257
707.58 954 m 257
 360.58 0 l 257
 560.58 0 l 257
 907.58 954 l 257
 707.58 954 l 257
1033.58 976 m 257
 914.58 650 l 257
 1114.58 650 l 257
 1233.58 976 l 257
 1033.58 976 l 257
EndSplineSet
EndChar

StartChar: radical
Encoding: 8730 8730 663
GlifName: radical
Width: 1024
VWidth: 0
GlyphClass: 2
Flags: W
LayerCount: 2
Fore
SplineSet
700 1390 m 257
 504 117 l 257
 688 117 l 257
 884 1390 l 257
 700 1390 l 257
184 620 m 257
 110 396 l 257
 206 317 l 257
 389 675 l 257
 184 620 l 257
194 621 m 257
 504 117 l 257
 688 117 l 257
 392 679 l 257
 194 621 l 257
EndSplineSet
EndChar

StartChar: uni0264
Encoding: 612 612 664
GlifName: ramshorn
Width: 1024
VWidth: 0
GlyphClass: 2
Flags: W
AnchorPoint: "top" 1181 1105 basechar 0
LayerCount: 2
Fore
SplineSet
740 935 m 257
 630 202 l 257
 830 202 l 257
 940 935 l 257
 740 935 l 257
1400 965 m 257
 292 202 l 257
 491 202 l 257
 1600 965 l 257
 1400 965 l 257
219 0 m 257
 757 -1 l 257
 831 202 l 257
 293 202 l 257
 219 0 l 257
EndSplineSet
EndChar

StartChar: registered
Encoding: 174 174 666
GlifName: registered
Width: 1024
VWidth: 0
GlyphClass: 2
Flags: W
LayerCount: 2
Fore
SplineSet
772.711 1032 m 257
 579.711 501 l 257
 647.711 501 l 257
 840.711 1032 l 257
 772.711 1032 l 257
797.711 1032 m 257
 772.711 963 l 257
 1001.71 963 l 257
 1026.71 1032 l 257
 797.711 1032 l 257
966.711 1032 m 257
 882.711 802 l 257
 951.711 802 l 257
 1035.71 1032 l 257
 966.711 1032 l 257
736.711 875 m 257
 709.711 801 l 257
 947.711 801 l 257
 974.711 875 l 257
 736.711 875 l 257
759.711 809 m 257
 785.711 500 l 257
 868.711 500 l 257
 829.711 809 l 257
 759.711 809 l 257
600.711 1537 m 257
 40.7109 0 l 257
 241.711 0 l 257
 801.711 1537 l 257
 600.711 1537 l 257
1339.71 1537 m 257
 779.711 0 l 257
 982.711 0 l 257
 1542.71 1537 l 257
 1339.71 1537 l 257
741.711 1537 m 257
 668.711 1337 l 257
 1311.71 1337 l 257
 1384.71 1537 l 257
 741.711 1537 l 257
232.711 204 m 257
 157.711 0 l 257
 830.711 0 l 257
 905.711 204 l 257
 232.711 204 l 257
EndSplineSet
EndChar

StartChar: uni027F
Encoding: 639 639 667
GlifName: rfishhookreversed
Width: 1024
VWidth: 0
GlyphClass: 2
Flags: W
AnchorPoint: "top" 797.58 1174 basechar 0
AnchorPoint: "base" 450.58 -73 basechar 0
LayerCount: 2
Fore
SplineSet
517.58 1023 m 257
 444.58 821 l 257
 1177.58 821 l 257
 1250.58 1023 l 257
 517.58 1023 l 257
1024 954 m 257
 677 -492 l 257
 877 -492 l 257
 1224 954 l 257
 1024 954 l 257
EndSplineSet
EndChar

StartChar: rho
Encoding: 961 961 668
GlifName: rho
Width: 1024
VWidth: 0
GlyphClass: 2
Flags: W
LayerCount: 2
Fore
SplineSet
759 1203 m 257
 173 -406 l 257
 373 -406 l 257
 959 1203 l 257
 759 1203 l 257
857 1203 m 257
 783 1001 l 257
 1257 821 l 257
 1330 1023 l 257
 857 1203 l 257
496 202 m 257
 423 0 l 257
 1016 147 l 257
 1090 349 l 257
 496 202 l 257
1080 876 m 257
 858 266 l 257
 1056 266 l 257
 1278 876 l 257
 1080 876 l 257
EndSplineSet
EndChar

StartChar: arrowright
Encoding: 8594 8594 669
GlifName: rightA_rrow
Width: 1024
VWidth: 0
GlyphClass: 2
Flags: W
LayerCount: 2
Fore
SplineSet
953 647 m 257
 1030 858 l 257
 286 858 l 257
 209 647 l 257
 953 647 l 257
737 426 m 257
 1082 758 l 257
 840 758 l 257
 495 426 l 257
 737 426 l 257
1082 758 m 257
 960 1091 l 257
 718 1091 l 257
 839 758 l 257
 1082 758 l 257
EndSplineSet
EndChar

StartChar: uni25B8
Encoding: 9656 9656 670
GlifName: rightB_lackS_mallT_riangle
Width: 1024
VWidth: 0
GlyphClass: 2
Flags: W
LayerCount: 2
Fore
SplineSet
719 675 m 257
 306 915 l 257
 303 431 l 257
 719 675 l 257
EndSplineSet
EndChar

StartChar: uni25B6
Encoding: 9654 9654 671
GlifName: rightB_lackT_riangle
Width: 1024
VWidth: 0
GlyphClass: 2
Flags: W
LayerCount: 2
Fore
SplineSet
857 677 m 257
 169 1077 l 257
 165 269 l 257
 857 677 l 257
EndSplineSet
EndChar

StartChar: uni25B9
Encoding: 9657 9657 672
GlifName: rightW_hiteS_mallT_riangle
Width: 1024
VWidth: 0
GlyphClass: 2
Flags: W
LayerCount: 2
Fore
SplineSet
719 675 m 257
 306 915 l 257
 303 431 l 257
 719 675 l 257
661 675 m 257
 329 479 l 257
 330 867 l 257
 661 675 l 257
EndSplineSet
EndChar

StartChar: uni25B7
Encoding: 9655 9655 673
GlifName: rightW_hiteT_riangle
Width: 1024
VWidth: 0
GlyphClass: 2
Flags: W
LayerCount: 2
Fore
SplineSet
857 677 m 257
 169 1077 l 257
 165 269 l 257
 857 677 l 257
761 676 m 257
 207 350 l 257
 210 996 l 257
 761 676 l 257
EndSplineSet
EndChar

StartChar: ring
Encoding: 730 730 674
GlifName: ring
Width: 1024
VWidth: 0
GlyphClass: 2
Flags: W
LayerCount: 2
Fore
SplineSet
460 1756 m 257
 608 1756 l 257
 561 1626 l 257
 413 1626 l 257
 460 1756 l 257
388 1847 m 257
 276 1537 l 257
 636 1537 l 257
 748 1847 l 257
 388 1847 l 257
EndSplineSet
EndChar

StartChar: uni0325
Encoding: 805 805 675
GlifName: ringbelowcomb
Width: 0
VWidth: 0
GlyphClass: 4
Flags: W
AnchorPoint: "base" 7 -22 mark 0
LayerCount: 2
Fore
SplineSet
-140 -271 m 257
 8 -271 l 257
 -40 -401 l 257
 -188 -401 l 257
 -140 -271 l 257
-212 -180 m 257
 -325 -490 l 257
 35 -490 l 257
 148 -180 l 257
 -212 -180 l 257
EndSplineSet
EndChar

StartChar: s
Encoding: 115 115 682
GlifName: s
Width: 1024
VWidth: 0
GlyphClass: 2
Flags: W
AnchorPoint: "top" 897.99 1124 basechar 0
AnchorPoint: "base" 490.99 -73 basechar 0
LayerCount: 2
Fore
SplineSet
579.99 1023 m 257
 507.99 826 l 257
 1116.99 826 l 257
 1188.99 1023 l 257
 579.99 1023 l 257
579.99 1023 m 257
 475.99 736 l 257
 675.99 736 l 257
 779.99 1023 l 257
 579.99 1023 l 257
281.99 201 m 257
 208.99 0 l 257
 813.99 0 l 257
 886.99 201 l 257
 281.99 201 l 257
718.99 293 m 257
 616.99 12 l 257
 816.99 12 l 257
 918.99 293 l 257
 718.99 293 l 257
476.99 736 m 257
 718.99 293 l 257
 918.99 293 l 257
 676.99 736 l 257
 476.99 736 l 257
EndSplineSet
EndChar

StartChar: uniA78C
Encoding: 42892 42892 684
GlifName: saltillo
Width: 1024
VWidth: 0
GlyphClass: 2
Flags: W
LayerCount: 2
Fore
SplineSet
803 1458 m 257
 522 813 l 257
 626 808 l 257
 1077 1458 l 257
 803 1458 l 257
EndSplineSet
EndChar

StartChar: section
Encoding: 167 167 689
GlifName: section
Width: 1024
VWidth: 0
GlyphClass: 2
Flags: W
LayerCount: 2
Fore
SplineSet
572.481 1238 m 257
 498.481 1035 l 257
 1096.48 1035 l 257
 1170.48 1238 l 257
 572.481 1238 l 257
573.481 1241 m 257
 341.481 605 l 257
 543.481 605 l 257
 775.481 1241 l 257
 573.481 1241 l 257
136.481 -61 m 257
 63.4814 -260 l 257
 771.481 -260 l 257
 844.481 -61 l 257
 136.481 -61 l 257
607.481 -259 m 257
 808.481 -259 l 257
 936.481 95 l 257
 735.481 95 l 257
 607.481 -259 l 257
341.481 605 m 257
 735.481 95 l 257
 936.481 95 l 257
 543.481 605 l 257
 341.481 605 l 257
713.481 1626 m 257
 639.481 1423 l 257
 1237.48 1423 l 257
 1311.48 1626 l 257
 713.481 1626 l 257
714.481 1629 m 257
 571.481 1237 l 257
 773.481 1237 l 257
 916.481 1629 l 257
 714.481 1629 l 257
253.481 286 m 257
 181.481 87 l 257
 889.481 87 l 257
 961.481 286 l 257
 253.481 286 l 257
724.481 88 m 257
 925.481 88 l 257
 1054.48 442 l 257
 853.481 442 l 257
 724.481 88 l 257
571.481 1237 m 257
 853.481 442 l 257
 1054.48 442 l 257
 773.481 1237 l 257
 571.481 1237 l 257
EndSplineSet
EndChar

StartChar: semicolon
Encoding: 59 59 690
GlifName: semicolon
Width: 1024
VWidth: 0
GlyphClass: 2
Flags: W
LayerCount: 2
Fore
SplineSet
390 430 m 257
 307 201 l 257
 555 201 l 257
 638 430 l 257
 390 430 l 257
451 328 m 257
 231 47 l 257
 353 -13 l 257
 552 197 l 257
 451 328 l 257
527 871 m 257
 437 624 l 257
 703 624 l 257
 793 871 l 257
 527 871 l 257
EndSplineSet
EndChar

StartChar: seven
Encoding: 55 55 692
GlifName: seven
Width: 1024
VWidth: 0
GlyphClass: 2
Flags: W
LayerCount: 2
Fore
SplineSet
19 1355 m 257
 729 1355 l 257
 236 0 l 257
 439 0 l 257
 1005 1557 l 257
 92 1557 l 257
 19 1355 l 257
EndSplineSet
Substitution2: "supsSuperscriptinLatinlookup16 subtable" uni2077
EndChar

StartChar: uni0448
Encoding: 1096 1096 694
GlifName: sha-cy
Width: 1024
VWidth: 0
Flags: W
LayerCount: 2
Fore
SplineSet
568 1024 m 257
 133 0 l 257
 333 0 l 257
 768 1024 l 257
 568 1024 l 257
1141 1029 m 257
 703 0 l 257
 903 0 l 257
 1341 1029 l 257
 1141 1029 l 257
210 200 m 257
 141 0 l 257
 862 0 l 257
 931 200 l 257
 210 200 l 257
853 1021 m 257
 415 -1 l 257
 615 -1 l 257
 1053 1021 l 257
 853 1021 l 257
EndSplineSet
EndChar

StartChar: uni0449
Encoding: 1097 1097 695
GlifName: shcha-cy
Width: 1024
VWidth: 0
Flags: W
LayerCount: 2
Fore
SplineSet
471 1024 m 257
 36 0 l 257
 236 0 l 257
 671 1024 l 257
 471 1024 l 257
1044 1029 m 257
 606 0 l 257
 806 0 l 257
 1244 1029 l 257
 1044 1029 l 257
117 200 m 257
 44 0 l 257
 806 0 l 257
 879 200 l 257
 117 200 l 257
874 198 m 257
 656 -401 l 257
 855 -401 l 257
 1073 198 l 257
 874 198 l 257
756 1021 m 257
 318 -1 l 257
 518 -1 l 257
 956 1021 l 257
 756 1021 l 257
EndSplineSet
EndChar

StartChar: uni20AA
Encoding: 8362 8362 696
GlifName: sheqel
Width: 1024
VWidth: 0
GlyphClass: 2
Flags: W
LayerCount: 2
Fore
SplineSet
674 1534 m 257
 117 4 l 257
 279 4 l 257
 836 1534 l 257
 674 1534 l 257
675 1538 m 257
 618 1381 l 257
 1089 1381 l 257
 1146 1538 l 257
 675 1538 l 257
1061 1538 m 257
 1084 1278 l 257
 1231 1277 l 257
 1214 1538 l 257
 1061 1538 l 257
1084 1278 m 257
 867 673 l 257
 1011 673 l 257
 1231 1277 l 257
 1084 1278 l 257
969 8 m 257
 1526 1538 l 257
 1364 1538 l 257
 807 8 l 257
 969 8 l 257
968 4 m 257
 1025 161 l 257
 554 161 l 257
 497 4 l 257
 968 4 l 257
582 4 m 257
 560 264 l 257
 412 265 l 257
 429 4 l 257
 582 4 l 257
560 264 m 257
 776 869 l 257
 632 869 l 257
 412 265 l 257
 560 264 l 257
EndSplineSet
EndChar

StartChar: sigma
Encoding: 963 963 698
GlifName: sigma
Width: 1024
VWidth: 0
GlyphClass: 2
Flags: W
LayerCount: 2
Fore
SplineSet
423 1023 m 257
 38 0 l 257
 238 0 l 257
 623 1023 l 257
 423 1023 l 257
980 1023 m 257
 595 0 l 257
 797 0 l 257
 1182 1023 l 257
 980 1023 l 257
546 1023 m 257
 470 822 l 257
 1278 822 l 257
 1354 1023 l 257
 546 1023 l 257
240 200 m 257
 165 0 l 257
 737 0 l 257
 812 200 l 257
 240 200 l 257
EndSplineSet
EndChar

StartChar: sigma1
Encoding: 962 962 699
GlifName: sigmafinal
Width: 1024
VWidth: 0
GlyphClass: 2
Flags: W
LayerCount: 2
Fore
SplineSet
654 1023 m 257
 581 823 l 257
 1277 823 l 257
 1350 1023 l 257
 654 1023 l 257
642 984 m 257
 302 51 l 257
 503 53 l 257
 843 986 l 257
 642 984 l 257
413 253 m 257
 340 53 l 257
 993 51 l 257
 1066 251 l 257
 413 253 l 257
536 -124 m 257
 463 -324 l 257
 857 -324 l 257
 930 -124 l 257
 536 -124 l 257
811 100 m 257
 672 -284 l 257
 872 -284 l 257
 1011 100 l 257
 811 100 l 257
EndSplineSet
EndChar

StartChar: six
Encoding: 54 54 700
GlifName: six
Width: 1024
VWidth: 0
GlyphClass: 2
Flags: W
LayerCount: 2
Fore
SplineSet
322 1548 m 257
 -169 201 l 257
 -242 0 l 257
 697 0 l 257
 1046 959 l 257
 310 959 l 257
 452 1348 l 257
 1193 1348 l 257
 1266 1548 l 257
 322 1548 l 257
766 759 m 257
 563 203 l 257
 41 203 l 257
 244 759 l 257
 766 759 l 257
EndSplineSet
Substitution2: "supsSuperscriptinLatinlookup16 subtable" uni2076
EndChar

StartChar: slash
Encoding: 47 47 701
GlifName: slash
Width: 1024
VWidth: 0
GlyphClass: 2
Flags: W
LayerCount: 2
Fore
SplineSet
985 1483 m 257
 -123 6 l 257
 39 -67 l 257
 1147 1410 l 257
 985 1483 l 257
EndSplineSet
EndChar

StartChar: uni044C
Encoding: 1100 1100 703
GlifName: softsign-cy
Width: 1024
VWidth: 0
Flags: W
AnchorPoint: "base" 502.201 -60 basechar 0
AnchorPoint: "top" 820.201 1639 basechar 0
LayerCount: 2
Fore
SplineSet
481 1017 m 257
 47 0 l 257
 246 0 l 257
 680 1017 l 257
 481 1017 l 257
479 641 m 257
 417 442 l 257
 980 442 l 257
 1043 641 l 257
 479 641 l 257
983 641 m 257
 732 0 l 257
 931 0 l 257
 1182 641 l 257
 983 641 l 257
247 207 m 257
 172 0 l 257
 852 0 l 257
 927 207 l 257
 247 207 l 257
EndSplineSet
EndChar

StartChar: uni2198
Encoding: 8600 8600 704
GlifName: southE_astA_rrow
Width: 1024
VWidth: 0
GlyphClass: 2
Flags: W
LayerCount: 2
Fore
SplineSet
784 462 m 257
 988 557 l 257
 462 1083 l 257
 258 988 l 257
 784 462 l 257
475 459 m 257
 954 449 l 257
 783 621 l 257
 304 630 l 257
 475 459 l 257
954 449 m 257
 1103 771 l 257
 932 942 l 257
 782 621 l 257
 954 449 l 257
EndSplineSet
EndChar

StartChar: uni2199
Encoding: 8601 8601 705
GlifName: southW_estA_rrow
Width: 1024
VWidth: 0
GlyphClass: 2
Flags: W
LayerCount: 2
Fore
SplineSet
349 620 m 257
 444 416 l 257
 970 942 l 257
 875 1146 l 257
 349 620 l 257
346 929 m 257
 336 450 l 257
 508 621 l 257
 517 1100 l 257
 346 929 l 257
336 450 m 257
 658 301 l 257
 829 472 l 257
 508 622 l 257
 336 450 l 257
EndSplineSet
EndChar

StartChar: sterling
Encoding: 163 163 707
GlifName: sterling
Width: 1024
VWidth: 0
GlyphClass: 2
Flags: W
LayerCount: 2
Fore
SplineSet
983.89 1543 m 257
 910.89 1344 l 257
 1201.89 1344 l 257
 1274.89 1543 l 257
 983.89 1543 l 257
374.89 770 m 257
 302.89 571 l 257
 1028.89 571 l 257
 1100.89 770 l 257
 374.89 770 l 257
938.89 1542 m 257
 377.89 0 l 257
 575.89 0 l 257
 1136.89 1542 l 257
 938.89 1542 l 257
276.89 202 m 257
 202.89 0 l 257
 928.89 0 l 257
 1002.89 202 l 257
 276.89 202 l 257
EndSplineSet
EndChar

StartChar: summation
Encoding: 8721 8721 708
GlifName: summation
Width: 1024
VWidth: 0
GlyphClass: 2
Flags: W
LayerCount: 2
Fore
SplineSet
1042 830 m 257
 186 112 l 257
 105 -112 l 257
 968 627 l 257
 1042 830 l 257
1041 823 m 257
 688.15 1539 l 257
 615.992 1338 l 257
 969 624 l 257
 1041 823 l 257
1336.63 1337 m 257
 1409.42 1537 l 257
 687.422 1537 l 257
 614.628 1337 l 257
 1336.63 1337 l 257
788 -98 m 257
 863 108 l 257
 200 108 l 257
 125 -98 l 257
 788 -98 l 257
EndSplineSet
EndChar

StartChar: t
Encoding: 116 116 709
GlifName: t
Width: 1024
VWidth: 0
GlyphClass: 2
Flags: W
AnchorPoint: "top" 1109.13 1649 basechar 0
AnchorPoint: "base" 485.127 -82 basechar 0
LayerCount: 2
Fore
SplineSet
974.127 1548 m 257
 411.127 0 l 257
 611.127 0 l 257
 1174.13 1548 l 257
 974.127 1548 l 257
491.127 199 m 257
 419.127 0 l 257
 810.127 0 l 257
 882.127 199 l 257
 491.127 199 l 257
547.127 1023 m 257
 475.127 824 l 257
 1149.13 824 l 257
 1221.13 1023 l 257
 547.127 1023 l 257
EndSplineSet
EndChar

StartChar: tcaron
Encoding: 357 357 712
GlifName: tcaron
Width: 1024
VWidth: 0
GlyphClass: 2
Flags: W
AnchorPoint: "base" 512 -78 basechar 0
LayerCount: 2
Fore
SplineSet
899 1529 m 257
 342 0 l 257
 543 0 l 257
 1100 1529 l 257
 899 1529 l 257
567 199 m 257
 495 0 l 257
 886 0 l 257
 958 199 l 257
 567 199 l 257
442 1023 m 257
 370 824 l 257
 1149 824 l 257
 1221 1023 l 257
 442 1023 l 257
1216 1496 m 257
 1142 1291 l 257
 1272 1291 l 257
 1346 1496 l 257
 1216 1496 l 257
EndSplineSet
EndChar

StartChar: uni0236
Encoding: 566 566 714
GlifName: tcurl
Width: 1024
VWidth: 0
GlyphClass: 2
Flags: W
AnchorPoint: "top" 1109.13 1649 basechar 0
AnchorPoint: "base" 485.127 -82 basechar 0
LayerCount: 2
Fore
SplineSet
974.127 1548 m 257
 411.127 0 l 257
 611.127 0 l 257
 1174.13 1548 l 257
 974.127 1548 l 257
491.127 199 m 257
 419.127 0 l 257
 810.127 0 l 257
 887 199 l 257
 491.127 199 l 257
547.127 1023 m 257
 475.127 824 l 257
 1149.13 824 l 257
 1221.13 1023 l 257
 547.127 1023 l 257
199 211 m 257
 127 12 l 257
 958 386 l 257
 1030 585 l 257
 199 211 l 257
809 0 m 257
 1010 2 l 257
 1229 537 l 257
 1030 585 l 257
 809 0 l 257
EndSplineSet
EndChar

StartChar: uni0442
Encoding: 1090 1090 715
GlifName: te-cy
Width: 1024
VWidth: 0
Flags: W
AnchorPoint: "top" 1130.53 1629 basechar 0
AnchorPoint: "base" 526.529 -79 basechar 0
LayerCount: 2
Fore
SplineSet
486 1021 m 257
 413 821 l 257
 1187 821 l 257
 1260 1021 l 257
 486 1021 l 257
732 909 m 257
 355 6 l 257
 555 6 l 257
 932 909 l 257
 732 909 l 257
EndSplineSet
EndChar

StartChar: theta
Encoding: 952 952 717
GlifName: theta
Width: 1024
VWidth: 0
GlyphClass: 2
Flags: W
LayerCount: 2
Fore
SplineSet
287 908 m 257
 215 708 l 257
 822 701 l 257
 895 901 l 257
 287 908 l 257
474 1276 m 257
 702 1359 l 257
 912 1282 l 257
 555 301 l 257
 277 208 l 257
 120 301 l 257
 474 1276 l 257
327 1425 m 257
 -133 163 l 257
 220 7 l 257
 704 163 l 257
 1166 1431 l 257
 755 1559 l 257
 327 1425 l 257
EndSplineSet
EndChar

StartChar: uni01AD
Encoding: 429 429 718
GlifName: thook
Width: 1024
VWidth: 0
GlyphClass: 2
Flags: W
AnchorPoint: "top" 1109.13 1649 basechar 0
AnchorPoint: "base" 485.127 -82 basechar 0
LayerCount: 2
Fore
SplineSet
974.127 1548 m 257
 411.127 0 l 257
 611.127 0 l 257
 1174.13 1548 l 257
 974.127 1548 l 257
491.127 199 m 257
 419.127 0 l 257
 810.127 0 l 257
 882.127 199 l 257
 491.127 199 l 257
547.127 1023 m 257
 475.127 824 l 257
 1149.13 824 l 257
 1221.13 1023 l 257
 547.127 1023 l 257
1470.64 1310.11 m 257
 1008.18 1684.05 l 257
 943.394 1495.89 l 257
 1403.96 1122.61 l 257
 1470.64 1310.11 l 257
1008.18 1684.05 m 257
 889.024 1337.99 l 257
 1054.36 1203.85 l 257
 1173.52 1549.91 l 257
 1008.18 1684.05 l 257
EndSplineSet
EndChar

StartChar: thorn
Encoding: 254 254 719
GlifName: thorn
Width: 1024
VWidth: 0
GlyphClass: 2
Flags: W
AnchorPoint: "base" 265 -491 basechar 0
LayerCount: 2
Fore
SplineSet
914 1630 m 257
 173 -406 l 257
 373 -406 l 257
 1114 1630 l 257
 914 1630 l 257
876 1012 m 257
 804 813 l 257
 1360 813 l 257
 1432 1012 l 257
 876 1012 l 257
590 204 m 257
 517 3 l 257
 1063 3 l 257
 1136 204 l 257
 590 204 l 257
1207 942 m 257
 898 94 l 257
 1096 94 l 257
 1405 942 l 257
 1207 942 l 257
EndSplineSet
EndChar

StartChar: three
Encoding: 51 51 720
GlifName: three
Width: 1024
VWidth: 0
GlyphClass: 2
Flags: W
LayerCount: 2
Fore
SplineSet
89 736 m 257
 747 736 l 257
 549 192 l 257
 -151 192 l 257
 -224 -8 l 257
 680 -8 l 257
 1248 1553 l 257
 374 1553 l 257
 301 1353 l 257
 969 1353 l 257
 818 936 l 257
 162 936 l 257
 89 736 l 257
EndSplineSet
Substitution2: "supsSuperscriptinLatinlookup16 subtable" uni00B3
EndChar

StartChar: tilde
Encoding: 732 732 723
GlifName: tilde
Width: 1024
VWidth: 0
GlyphClass: 2
Flags: W
LayerCount: 2
Fore
SplineSet
410 1607 m 257
 381 1528 l 257
 643 1479 l 257
 672 1558 l 257
 410 1607 l 257
203 1560 m 257
 186 1482 l 257
 381 1528 l 257
 410 1607 l 257
 203 1560 l 257
672 1558 m 257
 643 1479 l 257
 829 1592 l 257
 838 1668 l 257
 672 1558 l 257
EndSplineSet
EndChar

StartChar: tildecomb
Encoding: 771 771 725
GlifName: tildecomb
Width: 0
VWidth: 0
GlyphClass: 4
Flags: W
AnchorPoint: "top" -11 759 mark 0
LayerCount: 2
Fore
SplineSet
-164 969 m 257
 -200 870 l 257
 128 809 l 257
 164 908 l 257
 -164 969 l 257
-423 911 m 257
 -444 813 l 257
 -200 870 l 257
 -164 969 l 257
 -423 911 l 257
164 908 m 257
 128 809 l 257
 360 950 l 257
 371 1046 l 257
 164 908 l 257
EndSplineSet
EndChar

StartChar: tonos
Encoding: 900 900 727
GlifName: tonos
Width: 1024
VWidth: 0
GlyphClass: 2
Flags: W
AnchorPoint: "top" -1 785 mark 0
LayerCount: 2
Fore
SplineSet
507 1080 m 257
 377 826 l 257
 465 780 l 257
 596 1035 l 257
 507 1080 l 257
EndSplineSet
EndChar

StartChar: uni0288
Encoding: 648 648 729
GlifName: tretroflexhook
Width: 1024
VWidth: 0
GlyphClass: 2
Flags: W
AnchorPoint: "top" 1109.13 1649 basechar 0
AnchorPoint: "base" 506 -487 basechar 0
LayerCount: 2
Fore
SplineSet
974.127 1548 m 257
 411 -423 l 257
 611 -423 l 257
 1174.13 1548 l 257
 974.127 1548 l 257
491 -224 m 257
 419 -423 l 257
 810 -423 l 257
 882 -224 l 257
 491 -224 l 257
547.127 1023 m 257
 475.127 824 l 257
 1149.13 824 l 257
 1221.13 1023 l 257
 547.127 1023 l 257
EndSplineSet
EndChar

StartChar: uni0446
Encoding: 1094 1094 730
GlifName: tse-cy
Width: 1024
VWidth: 0
Flags: W
LayerCount: 2
Fore
SplineSet
425 1024 m 257
 36 3 l 257
 236 3 l 257
 625 1024 l 257
 425 1024 l 257
998 1029 m 257
 606 0 l 257
 806 0 l 257
 1198 1029 l 257
 998 1029 l 257
117 200 m 257
 44 0 l 257
 806 0 l 257
 879 200 l 257
 117 200 l 257
874 198 m 257
 656 -401 l 257
 855 -401 l 257
 1073 198 l 257
 874 198 l 257
EndSplineSet
EndChar

StartChar: uni045B
Encoding: 1115 1115 731
GlifName: tshe-cy
Width: 1024
VWidth: 0
Flags: W
LayerCount: 2
Fore
SplineSet
612 1365 m 257
 539 1165 l 257
 1327 1165 l 257
 1400 1365 l 257
 612 1365 l 257
795 1544 m 257
 233 -1 l 257
 433 -1 l 257
 995 1544 l 257
 795 1544 l 257
678 994 m 257
 605 794 l 257
 1218 794 l 257
 1291 994 l 257
 678 994 l 257
1089 989 m 257
 729 0 l 257
 929 0 l 257
 1289 989 l 257
 1089 989 l 257
EndSplineSet
EndChar

StartChar: two
Encoding: 50 50 733
GlifName: two
Width: 1024
VWidth: 0
GlyphClass: 2
Flags: W
LayerCount: 2
Fore
SplineSet
311 1344 m 257
 920 1344 l 257
 762 908 l 257
 160 908 l 257
 -171 0 l 257
 617 0 l 257
 690 200 l 257
 105 200 l 257
 290 707 l 257
 889 707 l 257
 1195 1548 l 257
 386 1548 l 257
 311 1344 l 257
EndSplineSet
Substitution2: "supsSuperscriptinLatinlookup16 subtable" uni00B2
EndChar

StartChar: u
Encoding: 117 117 735
GlifName: u
Width: 1024
VWidth: 0
GlyphClass: 2
Flags: W
AnchorPoint: "top" 830.568 1122 basechar 0
AnchorPoint: "base" 487.568 -60 basechar 0
LayerCount: 2
Fore
SplineSet
509.568 1023 m 257
 137.568 0 l 257
 338.568 0 l 257
 710.568 1023 l 257
 509.568 1023 l 257
941.568 1023 m 257
 569.568 0 l 257
 769.568 0 l 257
 1141.57 1023 l 257
 941.568 1023 l 257
257.568 200 m 257
 184.568 0 l 257
 886.568 0 l 257
 959.568 200 l 257
 257.568 200 l 257
EndSplineSet
EndChar

StartChar: underscore
Encoding: 95 95 747
GlifName: underscore
Width: 1024
VWidth: 0
GlyphClass: 2
Flags: W
LayerCount: 2
Fore
SplineSet
12 -5 m 257
 -12 -71 l 257
 1012 -71 l 257
 1036 -5 l 257
 12 -5 l 257
EndSplineSet
EndChar

StartChar: uni018F
Encoding: 399 399 765
GlifName: uni018F_
Width: 1024
VWidth: 0
GlyphClass: 2
Flags: W
AnchorPoint: "top" 1161 1630 basechar 0
AnchorPoint: "base" 647 -117 basechar 0
LayerCount: 2
Fore
SplineSet
804 0 m 257
 881 211 l 257
 342 211 l 257
 265 0 l 257
 804 0 l 257
854 0 m 257
 1416 1543 l 257
 1214 1543 l 257
 652 0 l 257
 854 0 l 257
1240 1342 m 257
 1314 1543 l 257
 732 1543 l 257
 658 1342 l 257
 1240 1342 l 257
1035 689 m 257
 1100 868 l 257
 446 868 l 257
 381 689 l 257
 1035 689 l 257
473 30 m 257
 618 869 l 257
 423 869 l 257
 278 30 l 257
 473 30 l 257
EndSplineSet
EndChar

StartChar: florin
Encoding: 402 402 766
GlifName: uni0192
Width: 1024
VWidth: 0
GlyphClass: 2
Flags: W
LayerCount: 2
Fore
SplineSet
413 1023 m 257
 413 -406 l 257
 613 -406 l 257
 613 1023 l 257
 413 1023 l 257
475 1023 m 257
 475 831 l 257
 957 831 l 257
 957 1023 l 257
 475 1023 l 257
229 559 m 257
 229 356 l 257
 860 356 l 257
 860 559 l 257
 229 559 l 257
167 -201 m 257
 167 -406 l 257
 615 -406 l 257
 615 -201 l 257
 167 -201 l 257
EndSplineSet
EndChar

StartChar: uni0237
Encoding: 567 567 847
GlifName: uni0237
Width: 1024
VWidth: 0
GlyphClass: 2
Flags: W
AnchorPoint: "top" 1150 1182 basechar 0
LayerCount: 2
Fore
SplineSet
969 940 m 257
 477 -411 l 257
 676 -411 l 257
 1168 940 l 257
 969 940 l 257
121 -209 m 257
 49 -406 l 257
 579 -406 l 257
 651 -209 l 257
 121 -209 l 257
196 -6 m 257
 70 -351 l 257
 270 -351 l 257
 396 -6 l 257
 196 -6 l 257
EndSplineSet
EndChar

StartChar: uni0259
Encoding: 601 601 848
GlifName: uni0259
Width: 1024
VWidth: 0
GlyphClass: 2
Flags: W
AnchorPoint: "top" 843.955 1144 basechar 0
AnchorPoint: "base" 531.955 -76 basechar 0
LayerCount: 2
Fore
SplineSet
804 0 m 257
 804 211 l 257
 240 278 l 257
 240 67 l 257
 804 0 l 257
854 0 m 257
 854 1023 l 257
 652 1023 l 257
 652 0 l 257
 854 0 l 257
752 822 m 257
 752 1023 l 257
 170 1023 l 257
 170 822 l 257
 752 822 l 257
784 398 m 257
 784 577 l 257
 194 577 l 257
 194 398 l 257
 784 398 l 257
437 97 m 257
 366 578 l 257
 171 578 l 257
 242 97 l 257
 437 97 l 257
EndSplineSet
EndChar

StartChar: uni02C9
Encoding: 713 713 852
GlifName: uni02C_9
Width: 1024
VWidth: 0
GlyphClass: 2
Flags: W
LayerCount: 2
Fore
SplineSet
247 1630 m 257
 217 1548 l 257
 777 1548 l 257
 807 1630 l 257
 247 1630 l 257
EndSplineSet
EndChar

StartChar: uni02CA
Encoding: 714 714 853
GlifName: uni02C_A_
Width: 1024
VWidth: 0
GlyphClass: 2
Flags: W
LayerCount: 2
Fore
SplineSet
587 1346 m 257
 364 1092 l 257
 436 1046 l 257
 660 1301 l 257
 587 1346 l 257
EndSplineSet
EndChar

StartChar: uni02CB
Encoding: 715 715 854
GlifName: uni02C_B_
Width: 1024
VWidth: 0
GlyphClass: 2
Flags: W
LayerCount: 2
Fore
SplineSet
441 2107 m 257
 475 1871 l 257
 583 1917 l 257
 550 2154 l 257
 441 2107 l 257
EndSplineSet
EndChar

StartChar: uni0302
Encoding: 770 770 855
GlifName: uni0302
Width: 0
VWidth: 0
GlyphClass: 4
Flags: W
AnchorPoint: "top" 16 767 mark 0
LayerCount: 2
Fore
SplineSet
144 1060 m 257
 84 1060 l 257
 -112 813 l 257
 -61 788 l 257
 144 1060 l 257
68 1012 m 257
 90 788 l 257
 158 810 l 257
 144 1060 l 257
 68 1012 l 257
EndSplineSet
EndChar

StartChar: uni0304
Encoding: 772 772 856
GlifName: uni0304
Width: 0
VWidth: 0
GlyphClass: 4
Flags: W
AnchorPoint: "top" -5 776 mark 0
LayerCount: 2
Fore
SplineSet
-274 891 m 257
 -304 809 l 257
 256 809 l 257
 286 891 l 257
 -274 891 l 257
EndSplineSet
EndChar

StartChar: uni0305
Encoding: 773 773 857
GlifName: uni0305
Width: 0
VWidth: 0
GlyphClass: 4
Flags: W
AnchorPoint: "top" 538 1464 mark 0
LayerCount: 2
Fore
SplineSet
206 1602 m 257
 184 1542 l 257
 938 1542 l 257
 960 1602 l 257
 206 1602 l 257
EndSplineSet
EndChar

StartChar: uni0306
Encoding: 774 774 858
GlifName: uni0306
Width: 0
VWidth: 0
GlyphClass: 4
Flags: W
AnchorPoint: "top" -12 826 mark 0
LayerCount: 2
Fore
SplineSet
183 899 m 257
 158 831 l 257
 348 899 l 257
 383 996 l 257
 183 899 l 257
-141 899 m 257
 -166 831 l 257
 158 831 l 257
 183 899 l 257
 -141 899 l 257
-282 981 m 257
 -312 899 l 257
 -166 831 l 257
 -141 899 l 257
 -282 981 l 257
EndSplineSet
EndChar

StartChar: uni0307
Encoding: 775 775 859
GlifName: uni0307
Width: 0
VWidth: 0
GlyphClass: 4
Flags: W
AnchorPoint: "top" -6 790 mark 0
LayerCount: 2
Fore
SplineSet
-63 995 m 257
 -136 793 l 257
 88 793 l 257
 161 995 l 257
 -63 995 l 257
EndSplineSet
EndChar

StartChar: uni0308
Encoding: 776 776 860
GlifName: uni0308
Width: 0
VWidth: 0
GlyphClass: 4
Flags: W
AnchorPoint: "top" -1 1499 mark 0
LayerCount: 2
Fore
SplineSet
-316 1788 m 257
 -390 1587 l 257
 -166 1587 l 257
 -92 1788 l 257
 -316 1788 l 257
167 1788 m 257
 93 1587 l 257
 317 1587 l 257
 391 1788 l 257
 167 1788 l 257
EndSplineSet
EndChar

StartChar: uni030A
Encoding: 778 778 861
GlifName: uni030A_
Width: 0
VWidth: 0
GlyphClass: 4
Flags: W
AnchorPoint: "top" 4 780 mark 0
LayerCount: 2
Fore
SplineSet
-3 1032 m 257
 145 1032 l 257
 97 902 l 257
 -51 902 l 257
 -3 1032 l 257
-75 1123 m 257
 -188 813 l 257
 172 813 l 257
 285 1123 l 257
 -75 1123 l 257
EndSplineSet
EndChar

StartChar: uni030B
Encoding: 779 779 862
GlifName: uni030B_
Width: 0
VWidth: 0
GlyphClass: 4
Flags: W
AnchorPoint: "top" 3 783 mark 0
LayerCount: 2
Fore
SplineSet
-286 815 m 257
 -142 815 l 257
 39 1063 l 257
 -105 1063 l 257
 -286 815 l 257
114 815 m 257
 258 815 l 257
 439 1063 l 257
 295 1063 l 257
 114 815 l 257
EndSplineSet
EndChar

StartChar: uni030C
Encoding: 780 780 863
GlifName: uni030C_
Width: 0
VWidth: 0
GlyphClass: 4
Flags: W
AnchorPoint: "top" -18 757 mark 0
LayerCount: 2
Fore
SplineSet
17 807 m 257
 10 1079 l 257
 -59 1054 l 257
 -43 807 l 257
 17 807 l 257
-24 855 m 257
 17 807 l 257
 213 1057 l 257
 161 1079 l 257
 -24 855 l 257
EndSplineSet
EndChar

StartChar: uni030F
Encoding: 783 783 864
GlifName: uni030F_
Width: 0
VWidth: 0
GlyphClass: 4
Flags: W
AnchorPoint: "top" -2 773 mark 0
LayerCount: 2
Fore
SplineSet
31 1032 m 257
 65 796 l 257
 172 842 l 257
 140 1079 l 257
 31 1032 l 257
-187 1032 m 257
 -153 796 l 257
 -46 842 l 257
 -78 1079 l 257
 -187 1032 l 257
EndSplineSet
EndChar

StartChar: uni0311
Encoding: 785 785 866
GlifName: uni0311
Width: 0
VWidth: 0
GlyphClass: 4
Flags: W
AnchorPoint: "top" 0 786 mark 0
LayerCount: 2
Fore
SplineSet
-202 831 m 257
 -178 899 l 257
 -367 831 l 257
 -403 734 l 257
 -202 831 l 257
122 831 m 257
 146 899 l 257
 -178 899 l 257
 -202 831 l 257
 122 831 l 257
263 749 m 257
 293 831 l 257
 146 899 l 257
 122 831 l 257
 263 749 l 257
EndSplineSet
EndChar

StartChar: uni0312
Encoding: 786 786 867
GlifName: uni0312
Width: 0
VWidth: 0
GlyphClass: 4
Flags: W
AnchorPoint: "top" -3 1505 mark 0
LayerCount: 2
Fore
SplineSet
-122 1555 m 257
 126 1555 l 257
 209 1784 l 257
 -39 1784 l 257
 -122 1555 l 257
13 1657 m 257
 209 1784 l 257
 163 1998 l 257
 -3 1938 l 257
 13 1657 l 257
EndSplineSet
EndChar

StartChar: uni031B
Encoding: 795 795 868
GlifName: uni031B_
Width: 0
VWidth: 0
GlyphClass: 4
Flags: W
AnchorPoint: "top" -14 771 mark 0
LayerCount: 2
Fore
SplineSet
85 1219 m 257
 1 990 l 257
 249 990 l 257
 333 1219 l 257
 85 1219 l 257
145 1117 m 257
 -75 836 l 257
 47 776 l 257
 244 982 l 257
 145 1117 l 257
EndSplineSet
EndChar

StartChar: uni0324
Encoding: 804 804 869
GlifName: uni0324
Width: 0
VWidth: 0
GlyphClass: 4
Flags: W
AnchorPoint: "base" -62 -147 mark 0
LayerCount: 2
Fore
SplineSet
96 -188 m 257
 6 -435 l 257
 270 -435 l 257
 360 -188 l 257
 96 -188 l 257
-501 -208 m 257
 -591 -455 l 257
 -327 -455 l 257
 -237 -208 l 257
 -501 -208 l 257
EndSplineSet
EndChar

StartChar: uni0326
Encoding: 806 806 870
GlifName: uni0326
Width: 0
VWidth: 0
GlyphClass: 4
Flags: W
AnchorPoint: "base" 22 -5 mark 0
LayerCount: 2
Fore
SplineSet
-114 0 m 257
 -198 -230 l 257
 50 -230 l 257
 134 0 l 257
 -114 0 l 257
-53 -103 m 257
 -273 -384 l 257
 -152 -444 l 257
 46 -234 l 257
 -53 -103 l 257
EndSplineSet
EndChar

StartChar: uni0327
Encoding: 807 807 871
GlifName: uni0327
Width: 0
VWidth: 0
GlyphClass: 4
Flags: W
AnchorPoint: "base" -140 40 mark 0
LayerCount: 2
Fore
SplineSet
-158 180 m 257
 -276 -144 l 257
 -120 -144 l 257
 -2 180 l 257
 -158 180 l 257
-327 -288 m 257
 -370 -406 l 257
 76 -406 l 257
 119 -288 l 257
 -327 -288 l 257
72 0 m 257
 -64 -372 l 257
 88 -372 l 257
 224 0 l 257
 72 0 l 257
-222 0 m 257
 -279 -156 l 257
 167 -156 l 257
 224 0 l 257
 -222 0 l 257
EndSplineSet
EndChar

StartChar: uni0328
Encoding: 808 808 872
GlifName: uni0328
Width: 0
VWidth: 0
GlyphClass: 4
Flags: W
AnchorPoint: "base" -335 -177 mark 0
LayerCount: 2
Fore
SplineSet
-376 -288 m 257
 -419 -406 l 257
 123 -406 l 257
 166 -288 l 257
 -376 -288 l 257
-271 0 m 257
 -419 -406 l 257
 -301 -406 l 257
 -153 0 l 257
 -271 0 l 257
-271 0 m 257
 -315 -121 l 257
 227 -121 l 257
 271 0 l 257
 -271 0 l 257
EndSplineSet
EndChar

StartChar: uni0329
Encoding: 809 809 873
GlifName: uni0329
Width: 0
VWidth: 0
GlyphClass: 4
Flags: W
AnchorPoint: "base" 4 -39 mark 0
LayerCount: 2
Fore
SplineSet
-37 -76 m 257
 -161 -419 l 257
 39 -419 l 257
 163 -76 l 257
 -37 -76 l 257
EndSplineSet
EndChar

StartChar: uni032E
Encoding: 814 814 874
GlifName: uni032E_
Width: 0
VWidth: 0
GlyphClass: 4
Flags: W
AnchorPoint: "base" -9 -4 mark 0
LayerCount: 2
Fore
SplineSet
134 -173 m 257
 109 -241 l 257
 299 -173 l 257
 334 -76 l 257
 134 -173 l 257
-190 -173 m 257
 -215 -241 l 257
 109 -241 l 257
 134 -173 l 257
 -190 -173 l 257
-331 -91 m 257
 -361 -173 l 257
 -215 -241 l 257
 -190 -173 l 257
 -331 -91 l 257
EndSplineSet
EndChar

StartChar: uni0331
Encoding: 817 817 875
GlifName: uni0331
Width: 0
VWidth: 0
GlyphClass: 4
Flags: W
AnchorPoint: "base" 4 -163 mark 0
LayerCount: 2
Fore
SplineSet
-342 -170 m 257
 -370 -248 l 257
 190 -248 l 257
 218 -170 l 257
 -342 -170 l 257
EndSplineSet
EndChar

StartChar: uni0335
Encoding: 821 821 877
GlifName: uni0335
Width: 0
VWidth: 0
GlyphClass: 4
Flags: W
AnchorPoint: "base" 4 -163 mark 0
LayerCount: 2
Fore
SplineSet
-575 1013 m 257
 -575 935 l 257
 -15 935 l 257
 -15 1013 l 257
 -575 1013 l 257
EndSplineSet
EndChar

StartChar: uni0345
Encoding: 837 837 878
GlifName: uni0345
Width: 0
VWidth: 0
GlyphClass: 4
Flags: W
LayerCount: 2
Fore
SplineSet
130 111 m 257
 -33 -338 l 257
 167 -338 l 257
 330 111 l 257
 130 111 l 257
-33 -338 m 257
 -22 -521 l 257
 349 -421 l 257
 339 -238 l 257
 -33 -338 l 257
EndSplineSet
EndChar

StartChar: uni0394
Encoding: 916 916 879
GlifName: uni0394
Width: 1024
VWidth: 0
GlyphClass: 2
Flags: W
LayerCount: 2
Fore
SplineSet
196.702 197 m 257
 123.908 -3 l 257
 897.908 -3 l 257
 970.702 197 l 257
 196.702 197 l 257
917 0 m 257
 1220.43 1548 l 257
 999.426 1548 l 257
 716 0 l 257
 917 0 l 257
307 0 m 257
 1095.43 1548 l 257
 872.426 1548 l 257
 106 0 l 257
 307 0 l 257
EndSplineSet
EndChar

StartChar: uni03A9
Encoding: 937 937 880
GlifName: uni03A_9
Width: 1024
VWidth: 0
GlyphClass: 2
Flags: W
LayerCount: 2
Fore
SplineSet
735.981 489 m 257
 623.515 180 l 257
 827.515 180 l 257
 939.981 489 l 257
 735.981 489 l 257
446.981 489 m 257
 334.515 180 l 257
 534.515 180 l 257
 646.981 489 l 257
 446.981 489 l 257
635.525 213 m 257
 561.275 9 l 257
 918.275 9 l 257
 992.525 213 l 257
 635.525 213 l 257
189.525 213 m 257
 115.275 9 l 257
 472.275 9 l 257
 546.525 213 l 257
 189.525 213 l 257
780 611 m 257
 706 407 l 257
 1058 407 l 257
 1132 611 l 257
 780 611 l 257
669.422 1537 m 257
 316.007 566 l 257
 517.007 566 l 257
 870.422 1537 l 257
 669.422 1537 l 257
1266.42 1537 m 257
 913.007 566 l 257
 1116.01 566 l 257
 1469.42 1537 l 257
 1266.42 1537 l 257
733.422 1537 m 257
 660.628 1337 l 257
 1303.63 1337 l 257
 1376.42 1537 l 257
 733.422 1537 l 257
334.386 611 m 257
 260.136 407 l 257
 617.136 407 l 257
 691.386 611 l 257
 334.386 611 l 257
EndSplineSet
EndChar

StartChar: uni0900
Encoding: 2304 2304 917
GlifName: uni0900
Width: 0
VWidth: 0
GlyphClass: 4
Flags: W
AnchorPoint: "abvm_deva" 642 1648 mark 0
LayerCount: 2
Fore
SplineSet
371 2124 m 257
 195 1639 l 257
 394 1639 l 257
 570 2124 l 257
 371 2124 l 257
417 2124 m 257
 345 1925 l 257
 979 1925 l 257
 1051 2124 l 257
 417 2124 l 257
589 1865 m 257
 516 1665 l 257
 716 1665 l 257
 789 1865 l 257
 589 1865 l 257
975 2124 m 257
 797 1636 l 257
 997 1636 l 257
 1175 2124 l 257
 975 2124 l 257
EndSplineSet
EndChar

StartChar: uni0901
Encoding: 2305 2305 918
GlifName: uni0901
Width: 0
VWidth: 0
GlyphClass: 4
Flags: W
AnchorPoint: "abvm_deva" 589 1618 mark 0
LayerCount: 2
Fore
SplineSet
371 2124 m 257
 195 1639 l 257
 394 1639 l 257
 570 2124 l 257
 371 2124 l 257
314 1842 m 257
 241 1641 l 257
 875 1641 l 257
 948 1842 l 257
 314 1842 l 257
663 2095 m 257
 590 1895 l 257
 790 1895 l 257
 863 2095 l 257
 663 2095 l 257
978 2132 m 257
 799 1641 l 257
 999 1641 l 257
 1178 2132 l 257
 978 2132 l 257
EndSplineSet
EndChar

StartChar: uni0902
Encoding: 2306 2306 919
GlifName: uni0902
Width: 0
VWidth: 0
GlyphClass: 4
Flags: W
AnchorPoint: "abvm_deva" -1 1504 mark 0
LayerCount: 2
Fore
SplineSet
80 1757 m 257
 8 1557 l 257
 208 1557 l 257
 280 1757 l 257
 80 1757 l 257
EndSplineSet
EndChar

StartChar: uni0903
Encoding: 2307 2307 920
GlifName: uni0903
Width: 1024
VWidth: 0
GlyphClass: 2
Flags: W
LayerCount: 2
Fore
SplineSet
648 649 m 257
 575 449 l 257
 775 449 l 257
 848 649 l 257
 648 649 l 257
891 1317 m 257
 819 1117 l 257
 1019 1117 l 257
 1091 1317 l 257
 891 1317 l 257
EndSplineSet
EndChar

StartChar: uni0904
Encoding: 2308 2308 921
GlifName: uni0904
Width: 1024
VWidth: 0
GlyphClass: 2
Flags: W
AnchorPoint: "abvm_deva" 1354 1972 basechar 0
LayerCount: 2
Fore
SplineSet
1050 2155 m 257
 934 1836 l 257
 1132 1836 l 257
 1248 2155 l 257
 1050 2155 l 257
981 1967 m 257
 908 1768 l 257
 1592 1768 l 257
 1664 1967 l 257
 981 1967 l 257
1461 1956 m 257
 1301 1516 l 257
 1502 1516 l 257
 1662 1956 l 257
 1461 1956 l 257
1279 1548 m 257
 1206 1347 l 257
 1515 1347 l 257
 1588 1548 l 257
 1279 1548 l 257
1293 1419 m 257
 777 0 l 257
 976 0 l 257
 1492 1419 l 257
 1293 1419 l 257
613 1548 m 257
 541 1348 l 257
 1064 1348 l 257
 1136 1548 l 257
 613 1548 l 257
962 1548 m 257
 450 140 l 257
 650 140 l 257
 1162 1548 l 257
 962 1548 l 257
459 894 m 257
 386 693 l 257
 1083 693 l 257
 1156 894 l 257
 459 894 l 257
98 201 m 257
 25 0 l 257
 599 0 l 257
 672 201 l 257
 98 201 l 257
EndSplineSet
EndChar

StartChar: uni0905
Encoding: 2309 2309 922
GlifName: uni0905
Width: 1024
VWidth: 0
GlyphClass: 2
Flags: W
AnchorPoint: "abvm_deva" 1441 1618 basechar 0
LayerCount: 2
Fore
SplineSet
1279 1548 m 257
 1207 1348 l 257
 1518 1348 l 257
 1590 1548 l 257
 1279 1548 l 257
1293 1419 m 257
 777 0 l 257
 976 0 l 257
 1492 1419 l 257
 1293 1419 l 257
613 1548 m 257
 541 1348 l 257
 1064 1348 l 257
 1136 1548 l 257
 613 1548 l 257
962 1548 m 257
 450 140 l 257
 650 140 l 257
 1162 1548 l 257
 962 1548 l 257
459 894 m 257
 386 693 l 257
 1083 693 l 257
 1156 894 l 257
 459 894 l 257
98 201 m 257
 25 0 l 257
 599 0 l 257
 672 201 l 257
 98 201 l 257
EndSplineSet
EndChar

StartChar: uni0906
Encoding: 2310 2310 923
GlifName: uni0906
Width: 1024
VWidth: 0
GlyphClass: 2
Flags: W
AnchorPoint: "abvm_deva" 1347 1606 basechar 0
LayerCount: 2
Fore
SplineSet
1091 1548 m 257
 1019 1348 l 257
 1516 1348 l 257
 1588 1548 l 257
 1091 1548 l 257
1060 1419 m 257
 544 0 l 257
 743 0 l 257
 1259 1419 l 257
 1060 1419 l 257
588 1548 m 257
 516 1348 l 257
 876 1348 l 257
 948 1548 l 257
 588 1548 l 257
774 1548 m 257
 262 140 l 257
 462 140 l 257
 974 1548 l 257
 774 1548 l 257
434 894 m 257
 361 693 l 257
 895 693 l 257
 968 894 l 257
 434 894 l 257
73 201 m 257
 0 0 l 257
 411 0 l 257
 484 201 l 257
 73 201 l 257
1328 1420 m 257
 811 0 l 257
 1010 0 l 257
 1527 1420 l 257
 1328 1420 l 257
EndSplineSet
EndChar

StartChar: uni0907
Encoding: 2311 2311 924
GlifName: uni0907
Width: 1024
VWidth: 0
GlyphClass: 2
Flags: W
AnchorPoint: "abvm_deva" 1212 1600 basechar 0
LayerCount: 2
Fore
SplineSet
563 1548 m 257
 491 1348 l 257
 1516 1348 l 257
 1588 1548 l 257
 563 1548 l 257
1103 1530 m 257
 950 1110 l 257
 1150 1110 l 257
 1303 1530 l 257
 1103 1530 l 257
604 1205 m 257
 530 1004 l 257
 1111 1004 l 257
 1185 1205 l 257
 604 1205 l 257
595 1181 m 257
 434 738 l 257
 604 738 l 257
 765 1181 l 257
 595 1181 l 257
486 881 m 257
 413 681 l 257
 1008 681 l 257
 1081 881 l 257
 486 881 l 257
960 881 m 257
 740 278 l 257
 939 278 l 257
 1159 881 l 257
 960 881 l 257
251 298 m 257
 178 97 l 257
 873 97 l 257
 946 298 l 257
 251 298 l 257
367 298 m 257
 170 -244 l 257
 370 -244 l 257
 567 298 l 257
 367 298 l 257
EndSplineSet
EndChar

StartChar: uni0908
Encoding: 2312 2312 925
GlifName: uni0908
Width: 1024
VWidth: 0
GlyphClass: 2
Flags: W
AnchorPoint: "abvm_deva" 1371 1624 basechar 0
LayerCount: 2
Fore
SplineSet
563 1548 m 257
 491 1348 l 257
 1516 1348 l 257
 1588 1548 l 257
 563 1548 l 257
1109 1548 m 257
 948 1104 l 257
 1148 1104 l 257
 1309 1548 l 257
 1109 1548 l 257
604 1205 m 257
 530 1004 l 257
 1111 1004 l 257
 1185 1205 l 257
 604 1205 l 257
595 1181 m 257
 434 738 l 257
 634 738 l 257
 795 1181 l 257
 595 1181 l 257
486 881 m 257
 413 681 l 257
 1008 681 l 257
 1081 881 l 257
 486 881 l 257
978 881 m 257
 761 285 l 257
 942 285 l 257
 1159 881 l 257
 978 881 l 257
251 298 m 257
 178 97 l 257
 876 97 l 257
 949 298 l 257
 251 298 l 257
367 298 m 257
 170 -244 l 257
 393 -244 l 257
 590 298 l 257
 367 298 l 257
912 1770 m 257
 1033 1423 l 257
 1237 1537 l 257
 1116 1886 l 257
 912 1770 l 257
EndSplineSet
EndChar

StartChar: uni0909
Encoding: 2313 2313 926
GlifName: uni0909
Width: 1024
VWidth: 0
GlyphClass: 2
Flags: W
AnchorPoint: "abvm_deva" 1143 1606 basechar 0
LayerCount: 2
Fore
SplineSet
563 1548 m 257
 491 1348 l 257
 1517 1348 l 257
 1589 1548 l 257
 563 1548 l 257
1037 1530 m 257
 844 1001 l 257
 1043 1001 l 257
 1236 1530 l 257
 1037 1530 l 257
615 1044 m 257
 543 845 l 257
 1185 845 l 257
 1257 1044 l 257
 615 1044 l 257
1040 994 m 257
 678 0 l 257
 878 0 l 257
 1240 994 l 257
 1040 994 l 257
203 201 m 257
 130 0 l 257
 867 0 l 257
 940 201 l 257
 203 201 l 257
262 363 m 257
 143 36 l 257
 343 36 l 257
 462 363 l 257
 262 363 l 257
EndSplineSet
EndChar

StartChar: uni090A
Encoding: 2314 2314 927
GlifName: uni090A_
Width: 1024
VWidth: 0
GlyphClass: 2
Flags: W
AnchorPoint: "abvm_deva" 1103 1612 basechar 0
LayerCount: 2
Fore
SplineSet
563 1548 m 257
 491 1348 l 257
 1516 1348 l 257
 1588 1548 l 257
 563 1548 l 257
865 1530 m 257
 672 1001 l 257
 871 1001 l 257
 1064 1530 l 257
 865 1530 l 257
531 1044 m 257
 459 845 l 257
 1282 845 l 257
 1354 1044 l 257
 531 1044 l 257
849 994 m 257
 491 11 l 257
 691 11 l 257
 1049 994 l 257
 849 994 l 257
120 204 m 257
 48 5 l 257
 686 5 l 257
 758 204 l 257
 120 204 l 257
179 366 m 257
 60 39 l 257
 260 39 l 257
 379 366 l 257
 179 366 l 257
1119 946 m 257
 854 217 l 257
 1053 217 l 257
 1318 946 l 257
 1119 946 l 257
EndSplineSet
EndChar

StartChar: uni090B
Encoding: 2315 2315 928
GlifName: uni090B_
Width: 1024
VWidth: 0
GlyphClass: 2
Flags: W
AnchorPoint: "abvm_deva" 1182 1600 basechar 0
LayerCount: 2
Fore
SplineSet
563 1548 m 257
 490 1346 l 257
 1517 1346 l 257
 1590 1548 l 257
 563 1548 l 257
1073 1525 m 257
 518 0 l 257
 717 0 l 257
 1272 1525 l 257
 1073 1525 l 257
402 1044 m 257
 330 845 l 257
 634 845 l 257
 706 1044 l 257
 402 1044 l 257
692 496 m 257
 238 329 l 257
 250 136 l 257
 703 303 l 257
 692 496 l 257
706 1044 m 257
 634 846 l 257
 878 742 l 257
 952 944 l 257
 706 1044 l 257
1021 897 m 257
 949 699 l 257
 1264 699 l 257
 1336 897 l 257
 1021 897 l 257
1114 897 m 257
 883 262 l 257
 1082 262 l 257
 1313 897 l 257
 1114 897 l 257
1032 462 m 257
 959 262 l 257
 1123 262 l 257
 1196 462 l 257
 1032 462 l 257
EndSplineSet
EndChar

StartChar: uni090C
Encoding: 2316 2316 929
GlifName: uni090C_
Width: 1024
VWidth: 0
GlyphClass: 2
Flags: W
AnchorPoint: "abvm_deva" 1196 1588 basechar 0
LayerCount: 2
Fore
SplineSet
563 1548 m 257
 491 1350 l 257
 1517 1350 l 257
 1589 1548 l 257
 563 1548 l 257
1112 1524 m 257
 808 689 l 257
 1008 689 l 257
 1312 1524 l 257
 1112 1524 l 257
1233 791 m 257
 329 791 l 257
 256 590 l 257
 1160 590 l 257
 1233 791 l 257
325 777 m 257
 134 252 l 257
 335 252 l 257
 526 777 l 257
 325 777 l 257
681 791 m 257
 551 433 l 257
 752 433 l 257
 882 791 l 257
 681 791 l 257
1033 791 m 257
 771 72 l 257
 971 72 l 257
 1233 791 l 257
 1033 791 l 257
915 260 m 257
 846 72 l 257
 1047 72 l 257
 1116 260 l 257
 915 260 l 257
EndSplineSet
EndChar

StartChar: uni090D
Encoding: 2317 2317 930
GlifName: uni090D_
Width: 1024
VWidth: 0
GlyphClass: 2
Flags: W
AnchorPoint: "abvm_deva" 1240 2104 basechar 0
LayerCount: 2
Fore
SplineSet
563 1548 m 257
 491 1348 l 257
 1517 1348 l 257
 1589 1548 l 257
 563 1548 l 257
1292 1548 m 257
 1013 779 l 257
 1212 779 l 257
 1491 1548 l 257
 1292 1548 l 257
940 839 m 257
 868 639 l 257
 1161 639 l 257
 1233 839 l 257
 940 839 l 257
703 1542 m 257
 265 338 l 257
 464 338 l 257
 902 1542 l 257
 703 1542 l 257
323 496 m 257
 250 297 l 257
 857 297 l 257
 930 496 l 257
 323 496 l 257
680 358 m 257
 514 -98 l 257
 713 -98 l 257
 879 358 l 257
 680 358 l 257
424 101 m 257
 351 -98 l 257
 711 -98 l 257
 784 101 l 257
 424 101 l 257
930 2124 m 257
 754 1639 l 257
 953 1639 l 257
 1129 2124 l 257
 930 2124 l 257
873 1840 m 257
 800 1641 l 257
 1394 1641 l 257
 1467 1840 l 257
 873 1840 l 257
1398 2132 m 257
 1219 1641 l 257
 1418 1641 l 257
 1597 2132 l 257
 1398 2132 l 257
EndSplineSet
EndChar

StartChar: uni090E
Encoding: 2318 2318 931
GlifName: uni090E_
Width: 1024
VWidth: 0
GlyphClass: 2
Flags: W
AnchorPoint: "abvm_deva" 1641 1606 basechar 0
LayerCount: 2
Fore
SplineSet
563 1548 m 257
 491 1348 l 257
 1517 1348 l 257
 1589 1548 l 257
 563 1548 l 257
1240 1403 m 257
 1013 779 l 257
 1212 779 l 257
 1439 1403 l 257
 1240 1403 l 257
991 979 m 257
 919 779 l 257
 1212 779 l 257
 1284 979 l 257
 991 979 l 257
703 1542 m 257
 265 338 l 257
 464 338 l 257
 902 1542 l 257
 703 1542 l 257
272 358 m 257
 200 159 l 257
 800 159 l 257
 872 358 l 257
 272 358 l 257
671 358 m 257
 505 -98 l 257
 706 -98 l 257
 872 358 l 257
 671 358 l 257
368 -38 m 257
 295 -238 l 257
 655 -238 l 257
 728 -38 l 257
 368 -38 l 257
1021 2062 m 257
 934 1823 l 257
 1134 1823 l 257
 1221 2062 l 257
 1021 2062 l 257
949 1868 m 257
 876 1667 l 257
 1559 1667 l 257
 1632 1868 l 257
 949 1868 l 257
1426 1858 m 257
 1309 1537 l 257
 1511 1537 l 257
 1628 1858 l 257
 1426 1858 l 257
EndSplineSet
EndChar

StartChar: uni090F
Encoding: 2319 2319 932
GlifName: uni090F_
Width: 1024
VWidth: 0
GlyphClass: 2
Flags: W
AnchorPoint: "abvm_deva" 1115 1630 basechar 0
LayerCount: 2
Fore
SplineSet
563 1548 m 257
 491 1348 l 257
 1517 1348 l 257
 1589 1548 l 257
 563 1548 l 257
1287 1548 m 257
 1009 782 l 257
 1209 782 l 257
 1487 1548 l 257
 1287 1548 l 257
987 979 m 257
 915 779 l 257
 1208 779 l 257
 1280 979 l 257
 987 979 l 257
699 1542 m 257
 261 338 l 257
 461 338 l 257
 899 1542 l 257
 699 1542 l 257
319 497 m 257
 246 297 l 257
 846 297 l 257
 919 497 l 257
 319 497 l 257
717 473 m 257
 509 -98 l 257
 709 -98 l 257
 917 473 l 257
 717 473 l 257
420 102 m 257
 347 -98 l 257
 707 -98 l 257
 780 102 l 257
 420 102 l 257
EndSplineSet
EndChar

StartChar: uni0910
Encoding: 2320 2320 933
GlifName: uni0910
Width: 1024
VWidth: 0
GlyphClass: 2
Flags: W
AnchorPoint: "abvm_deva" 1555 1702 basechar 0
LayerCount: 2
Fore
SplineSet
563 1548 m 257
 491 1348 l 257
 1517 1348 l 257
 1589 1548 l 257
 563 1548 l 257
1287 1548 m 257
 1008 779 l 257
 1208 779 l 257
 1487 1548 l 257
 1287 1548 l 257
987 979 m 257
 915 779 l 257
 1208 779 l 257
 1280 979 l 257
 987 979 l 257
699 1542 m 257
 261 338 l 257
 461 338 l 257
 899 1542 l 257
 699 1542 l 257
319 497 m 257
 246 297 l 257
 846 297 l 257
 919 497 l 257
 319 497 l 257
710 473 m 257
 502 -98 l 257
 702 -98 l 257
 910 473 l 257
 710 473 l 257
420 102 m 257
 347 -98 l 257
 707 -98 l 257
 780 102 l 257
 420 102 l 257
1127 1883 m 257
 1280 1433 l 257
 1485 1548 l 257
 1333 1998 l 257
 1127 1883 l 257
EndSplineSet
EndChar

StartChar: uni0911
Encoding: 2321 2321 934
GlifName: uni0911
Width: 1024
VWidth: 0
GlyphClass: 2
Flags: W
AnchorPoint: "abvm_deva" 1564 2170 basechar 0
LayerCount: 2
Fore
SplineSet
1091 1548 m 257
 1019 1348 l 257
 1516 1348 l 257
 1588 1548 l 257
 1091 1548 l 257
1060 1419 m 257
 544 0 l 257
 743 0 l 257
 1259 1419 l 257
 1060 1419 l 257
588 1548 m 257
 516 1348 l 257
 876 1348 l 257
 948 1548 l 257
 588 1548 l 257
774 1548 m 257
 262 140 l 257
 462 140 l 257
 974 1548 l 257
 774 1548 l 257
434 894 m 257
 361 693 l 257
 895 693 l 257
 968 894 l 257
 434 894 l 257
73 201 m 257
 0 0 l 257
 411 0 l 257
 484 201 l 257
 73 201 l 257
1328 1420 m 257
 811 0 l 257
 1010 0 l 257
 1527 1420 l 257
 1328 1420 l 257
1291 2085 m 257
 1129 1639 l 257
 1329 1639 l 257
 1491 2085 l 257
 1291 2085 l 257
1201 1839 m 257
 1128 1638 l 257
 1619 1638 l 257
 1692 1839 l 257
 1201 1839 l 257
1581 2083 m 257
 1420 1641 l 257
 1620 1641 l 257
 1781 2083 l 257
 1581 2083 l 257
EndSplineSet
EndChar

StartChar: uni0912
Encoding: 2322 2322 935
GlifName: uni0912
Width: 1024
VWidth: 0
GlyphClass: 2
Flags: W
AnchorPoint: "abvm_deva" 1654 1628 basechar 0
LayerCount: 2
Fore
SplineSet
1091 1548 m 257
 1019 1348 l 257
 1516 1348 l 257
 1588 1548 l 257
 1091 1548 l 257
1065 1419 m 257
 549 0 l 257
 748 0 l 257
 1264 1419 l 257
 1065 1419 l 257
588 1548 m 257
 516 1348 l 257
 876 1348 l 257
 948 1548 l 257
 588 1548 l 257
774 1548 m 257
 262 140 l 257
 462 140 l 257
 974 1548 l 257
 774 1548 l 257
434 894 m 257
 361 693 l 257
 895 693 l 257
 968 894 l 257
 434 894 l 257
73 201 m 257
 0 0 l 257
 411 0 l 257
 484 201 l 257
 73 201 l 257
1328 1420 m 257
 811 0 l 257
 1010 0 l 257
 1527 1420 l 257
 1328 1420 l 257
1050 2155 m 257
 934 1836 l 257
 1132 1836 l 257
 1248 2155 l 257
 1050 2155 l 257
981 1967 m 257
 908 1768 l 257
 1592 1768 l 257
 1664 1967 l 257
 981 1967 l 257
1461 1956 m 257
 1301 1516 l 257
 1502 1516 l 257
 1662 1956 l 257
 1461 1956 l 257
EndSplineSet
EndChar

StartChar: uni0913
Encoding: 2323 2323 936
GlifName: uni0913
Width: 1024
VWidth: 0
GlyphClass: 2
Flags: W
AnchorPoint: "abvm_deva" 1608 1582 basechar 0
LayerCount: 2
Fore
SplineSet
1091 1548 m 257
 1019 1348 l 257
 1516 1348 l 257
 1588 1548 l 257
 1091 1548 l 257
1060 1419 m 257
 544 0 l 257
 743 0 l 257
 1259 1419 l 257
 1060 1419 l 257
588 1548 m 257
 516 1348 l 257
 876 1348 l 257
 948 1548 l 257
 588 1548 l 257
774 1548 m 257
 262 140 l 257
 462 140 l 257
 974 1548 l 257
 774 1548 l 257
434 894 m 257
 361 693 l 257
 895 693 l 257
 968 894 l 257
 434 894 l 257
78 201 m 257
 5 0 l 257
 411 0 l 257
 484 201 l 257
 78 201 l 257
1329 1423 m 257
 811 0 l 257
 1010 0 l 257
 1528 1423 l 257
 1329 1423 l 257
1282 1768 m 257
 1331 1458 l 257
 1541 1548 l 257
 1493 1861 l 257
 1282 1768 l 257
EndSplineSet
EndChar

StartChar: uni0914
Encoding: 2324 2324 937
GlifName: uni0914
Width: 1024
VWidth: 0
GlyphClass: 2
Flags: W
AnchorPoint: "abvm_deva" 1619 1564 basechar 0
LayerCount: 2
Fore
SplineSet
1091 1548 m 257
 1019 1348 l 257
 1516 1348 l 257
 1588 1548 l 257
 1091 1548 l 257
1060 1419 m 257
 544 0 l 257
 743 0 l 257
 1259 1419 l 257
 1060 1419 l 257
588 1548 m 257
 516 1348 l 257
 876 1348 l 257
 948 1548 l 257
 588 1548 l 257
774 1548 m 257
 262 140 l 257
 462 140 l 257
 974 1548 l 257
 774 1548 l 257
434 894 m 257
 361 693 l 257
 895 693 l 257
 968 894 l 257
 434 894 l 257
85 201 m 257
 12 0 l 257
 411 0 l 257
 484 201 l 257
 85 201 l 257
1328 1420 m 257
 811 0 l 257
 1010 0 l 257
 1527 1420 l 257
 1328 1420 l 257
976 1750 m 257
 1182 1548 l 257
 1474 1548 l 257
 1168 1903 l 257
 976 1750 l 257
1437 1949 m 257
 1345 1522 l 257
 1566 1548 l 257
 1649 1988 l 257
 1437 1949 l 257
EndSplineSet
EndChar

